SplineFontDB: 3.0
FontName: DenkOne-Regular
FullName: Denk One
FamilyName: Denk One
Weight: Book
Copyright: Copyright (c) 2012, Sorkin Type Co (www.sorkintype.com) with Reserved Font Name 'Denk'
Version: 1.002
ItalicAngle: 0
UnderlinePosition: -23
UnderlineWidth: 157
Ascent: 1638
Descent: 410
sfntRevision: 0x00010083
LayerCount: 2
Layer: 0 1 "Back"  1
Layer: 1 1 "Fore"  0
XUID: [1021 631 1661839179 1938602]
FSType: 0
OS2Version: 3
OS2_WeightWidthSlopeOnly: 0
OS2_UseTypoMetrics: 1
CreationTime: 1353795840
ModificationTime: 1354632402
PfmFamily: 17
TTFWeight: 400
TTFWidth: 5
LineGap: 0
VLineGap: 0
Panose: 2 0 5 6 6 0 0 2 0 4
OS2TypoAscent: 2118
OS2TypoAOffset: 0
OS2TypoDescent: -442
OS2TypoDOffset: 0
OS2TypoLinegap: 0
OS2WinAscent: 2118
OS2WinAOffset: 0
OS2WinDescent: 442
OS2WinDOffset: 0
HheadAscent: 2118
HheadAOffset: 0
HheadDescent: -442
HheadDOffset: 0
OS2SubXSize: 1434
OS2SubYSize: 1331
OS2SubXOff: 0
OS2SubYOff: 287
OS2SupXSize: 1434
OS2SupYSize: 1331
OS2SupXOff: 0
OS2SupYOff: 977
OS2StrikeYSize: 226
OS2StrikeYPos: 593
OS2Vendor: 'STC '
OS2CodePages: 20000111.40000000
OS2UnicodeRanges: 800000ef.5000004b.00000000.00000000
DEI: 91125
TtTable: prep
MPPEM
PUSHW_1
 200
GT
IF
PUSHB_2
 1
 1
INSTCTRL
EIF
PUSHW_2
 2048
 2048
MUL
DUP
PUSHB_1
 1
SWAP
WCVTP
DUP
PUSHB_1
 3
SWAP
WCVTF
PUSHB_1
 20
RCVT
DUP
DUP
MPPEM
PUSHW_1
 14
LTEQ
MPPEM
PUSHB_1
 6
GTEQ
AND
IF
PUSHB_1
 52
ELSE
PUSHB_1
 40
EIF
ADD
FLOOR
DUP
ROLL
NEQ
IF
PUSHB_1
 2
CINDEX
SUB
PUSHB_1
 1
RCVT
MUL
SWAP
DIV
PUSHB_1
 2
SWAP
WCVTP
PUSHB_4
 10
 10
 5
 4
CALL
PUSHB_4
 11
 16
 5
 4
CALL
PUSHB_4
 17
 22
 5
 4
CALL
EIF
PUSHB_3
 4
 40
 8
RCVT
GT
WCVTP
PUSHB_4
 11
 16
 6
 4
CALL
PUSHB_2
 6
 1
WCVTP
PUSHB_2
 36
 1
GETINFO
LTEQ
IF
PUSHB_1
 64
GETINFO
IF
PUSHB_2
 6
 1
WCVTP
PUSHB_2
 38
 1
GETINFO
LTEQ
IF
PUSHW_1
 1024
GETINFO
IF
PUSHB_2
 6
 3
WCVTP
EIF
EIF
EIF
EIF
PUSHW_1
 511
SCANCTRL
PUSHB_1
 4
SCANTYPE
PUSHB_2
 5
 0
WCVTP
EndTTInstrs
TtTable: fpgm
PUSHB_1
 0
FDEF
PUSHB_1
 32
ADD
FLOOR
ENDF
PUSHB_1
 1
FDEF
DUP
ABS
DUP

StartChar: n
Encoding: 110 110 4
Width: 1079
Flags: W
LayerCount: 2
Fore
SplineSet
121 1129 m 2,0,1
 121 1150 121 1150 125.5 1164.5 c 128,-1,2
 130 1179 130 1179 145.5 1187 c 128,-1,3
 161 1195 161 1195 191.5 1198.5 c 128,-1,4
 222 1202 222 1202 273 1202 c 256,5,6
 324 1202 324 1202 354.5 1198.5 c 128,-1,7
 385 1195 385 1195 400.5 1187 c 128,-1,8
 416 1179 416 1179 420.5 1164.5 c 128,-1,9
 425 1150 425 1150 425 1129 c 2,10,-1
 423 1068 l 1,11,12
 451 1100 451 1100 480.5 1126.5 c 128,-1,13
 510 1153 510 1153 543.5 1172.5 c 128,-1,14
 577 1192 577 1192 615 1203 c 128,-1,15
 653 1214 653 1214 698 1214 c 0,16,17
 759 1214 759 1214 811.5 1192 c 128,-1,18
 864 1170 864 1170 901.5 1128 c 128,-1,19
 939 1086 939 1086 959.5 1026 c 128,-1,20
 980 966 980 966 978 890 c 2,21,-1
 954 57 l 2,22,23
 954 38 954 38 949 27 c 128,-1,24
 944 16 944 16 930 10 c 128,-1,25
 916 4 916 4 890.5 2 c 128,-1,26
 865 0 865 0 823 0 c 256,27,28
 781 0 781 0 755.5 2 c 128,-1,29
 730 4 730 4 716.5 10 c 128,-1,30
 703 16 703 16 698 27 c 128,-1,31
 693 38 693 38 693 57 c 2,32,-1
 670 861 l 2,33,34
 669 900 669 900 660 926 c 128,-1,35
 651 952 651 952 636 967 c 128,-1,36
 621 982 621 982 600.5 988 c 128,-1,37
 580 994 580 994 556 994 c 0,38,39
 518 994 518 994 489 973 c 128,-1,40
 460 952 460 952 439 923 c 1,41,-1
 414 57 l 2,42,43
 414 38 414 38 409 27 c 128,-1,44
 404 16 404 16 390 10 c 128,-1,45
 376 4 376 4 350.5 2 c 128,-1,46
 325 0 325 0 283 0 c 256,47,48
 241 0 241 0 215.5 2 c 128,-1,49
 190 4 190 4 176.5 10 c 128,-1,50
 163 16 163 16 158 27 c 128,-1,51
 153 38 153 38 153 57 c 2,52,-1
 121 1129 l 2,0,1
EndSplineSet
EndChar

StartChar: o
Encoding: 111 111 6
Width: 1081
Flags: W
LayerCount: 2
Fore
SplineSet
111 910 m 2,0,1
 108 990 108 990 143.5 1047.5 c 128,-1,2
 179 1105 179 1105 239.5 1142 c 128,-1,3
 300 1179 300 1179 379 1196.5 c 128,-1,4
 458 1214 458 1214 541 1214 c 256,5,6
 624 1214 624 1214 703 1196.5 c 128,-1,7
 782 1179 782 1179 842.5 1142 c 128,-1,8
 903 1105 903 1105 938.5 1047.5 c 128,-1,9
 974 990 974 990 971 910 c 2,10,-1
 948 277 l 2,11,12
 945 195 945 195 910 139.5 c 128,-1,13
 875 84 875 84 819 50.5 c 128,-1,14
 763 17 763 17 691 2.5 c 128,-1,15
 619 -12 619 -12 542 -12 c 0,16,17
 464 -12 464 -12 392 2.5 c 128,-1,18
 320 17 320 17 263.5 50.5 c 128,-1,19
 207 84 207 84 172 139 c 128,-1,20
 137 194 137 194 134 276 c 2,21,-1
 111 910 l 2,0,1
408 268 m 2,22,23
 407 230 407 230 414.5 204 c 128,-1,24
 422 178 422 178 438.5 162 c 128,-1,25
 455 146 455 146 480.5 139 c 128,-1,26
 506 132 506 132 541 132 c 0,27,28
 611 132 611 132 643.5 162 c 128,-1,29
 676 192 676 192 674 269 c 2,30,-1
 654 927 l 2,31,32
 653 969 653 969 644.5 995 c 128,-1,33
 636 1021 636 1021 621 1035 c 128,-1,34
 606 1049 606 1049 586 1053.5 c 128,-1,35
 566 1058 566 1058 541 1058 c 256,36,37
 516 1058 516 1058 496 1053.5 c 128,-1,38
 476 1049 476 1049 461 1035 c 128,-1,39
 446 1021 446 1021 437.5 995 c 128,-1,40
 429 969 429 969 428 927 c 2,41,-1
 408 268 l 2,22,23
EndSplineSet
EndChar

StartChar: A
Encoding: 65 65 7
Width: 1079
Flags: W
LayerCount: 2
Fore
SplineSet
288 1605 m 2,0,1
 292 1633 292 1633 301.5 1651 c 128,-1,2
 311 1669 311 1669 336.5 1679 c 128,-1,3
 362 1689 362 1689 410 1692.5 c 128,-1,4
 458 1696 458 1696 540 1696 c 0,5,6
 621 1696 621 1696 669 1692.5 c 128,-1,7
 717 1689 717 1689 742.5 1679 c 128,-1,8
 768 1669 768 1669 777 1651 c 128,-1,9
 786 1633 786 1633 791 1605 c 2,10,-1
 1056 78 l 2,11,12
 1060 51 1060 51 1055.5 35.5 c 128,-1,13
 1051 20 1051 20 1035.5 12 c 128,-1,14
 1020 4 1020 4 993 2 c 128,-1,15
 966 0 966 0 927 0 c 0,16,17
 879 0 879 0 850.5 2 c 128,-1,18
 822 4 822 4 806 12 c 128,-1,19
 790 20 790 20 782.5 35.5 c 128,-1,20
 775 51 775 51 771 78 c 2,21,-1
 730 317 l 1,22,-1
 349 317 l 1,23,-1
 308 78 l 2,24,25
 303 51 303 51 296 35.5 c 128,-1,26
 289 20 289 20 273 12 c 128,-1,27
 257 4 257 4 228.5 2 c 128,-1,28
 200 0 200 0 152 0 c 0,29,30
 113 0 113 0 86.5 2 c 128,-1,31
 60 4 60 4 44 12 c 128,-1,32
 28 20 28 20 23 35.5 c 128,-1,33
 18 51 18 51 23 78 c 2,34,-1
 288 1605 l 2,0,1
697 507 m 1,35,-1
 544 1394 l 1,36,-1
 535 1394 l 1,37,-1
 382 507 l 1,38,-1
 697 507 l 1,35,-1
EndSplineSet
EndChar

StartChar: O
Encoding: 79 79 8
Width: 1208
Flags: W
LayerCount: 2
Fore
SplineSet
120 1365 m 2,0,1
 118 1440 118 1440 145 1502 c 128,-1,2
 172 1564 172 1564 230.5 1608 c 128,-1,3
 289 1652 289 1652 381.5 1676.5 c 128,-1,4
 474 1701 474 1701 604 1701 c 0,5,6
 733 1701 733 1701 825.5 1676.5 c 128,-1,7
 918 1652 918 1652 977 1608 c 128,-1,8
 1036 1564 1036 1564 1063 1502 c 128,-1,9
 1090 1440 1090 1440 1088 1365 c 2,10,-1
 1059 305 l 2,11,12
 1057 240 1057 240 1031 182 c 128,-1,13
 1005 124 1005 124 950.5 81 c 128,-1,14
 896 38 896 38 810.5 13 c 128,-1,15
 725 -12 725 -12 604 -12 c 256,16,17
 483 -12 483 -12 397 13 c 128,-1,18
 311 38 311 38 256.5 81 c 128,-1,19
 202 124 202 124 176 182 c 128,-1,20
 150 240 150 240 148 305 c 2,21,-1
 120 1365 l 2,0,1
443 296 m 2,22,23
 442 254 442 254 450.5 226 c 128,-1,24
 459 198 459 198 478.5 181.5 c 128,-1,25
 498 165 498 165 529 158 c 128,-1,26
 560 151 560 151 604 151 c 256,27,28
 648 151 648 151 679 158 c 128,-1,29
 710 165 710 165 729.5 181.5 c 128,-1,30
 749 198 749 198 757.5 226 c 128,-1,31
 766 254 766 254 765 296 c 2,32,-1
 736 1396 l 2,33,34
 735 1440 735 1440 726 1466 c 128,-1,35
 717 1492 717 1492 700.5 1506 c 128,-1,36
 684 1520 684 1520 660 1524.5 c 128,-1,37
 636 1529 636 1529 604 1529 c 256,38,39
 572 1529 572 1529 548 1524.5 c 128,-1,40
 524 1520 524 1520 507.5 1506 c 128,-1,41
 491 1492 491 1492 482 1466 c 128,-1,42
 473 1440 473 1440 472 1396 c 2,43,-1
 443 296 l 2,22,23
EndSplineSet
EndChar

StartChar: e
Encoding: 101 101 9
Width: 1062
Flags: W
LayerCount: 2
Fore
SplineSet
111 910 m 2,0,1
 108 990 108 990 144.5 1047.5 c 128,-1,2
 181 1105 181 1105 242.5 1142 c 128,-1,3
 304 1179 304 1179 383.5 1196.5 c 128,-1,4
 463 1214 463 1214 546 1214 c 0,5,6
 625 1214 625 1214 701 1196.5 c 128,-1,7
 777 1179 777 1179 836 1142 c 128,-1,8
 895 1105 895 1105 929.5 1047.5 c 128,-1,9
 964 990 964 990 961 910 c 2,10,-1
 946 541 l 2,11,12
 945 522 945 522 939.5 511 c 128,-1,13
 934 500 934 500 919 494 c 128,-1,14
 904 488 904 488 876.5 486 c 128,-1,15
 849 484 849 484 804 484 c 2,16,-1
 414 484 l 1,17,-1
 408 268 l 2,18,19
 407 230 407 230 415.5 204 c 128,-1,20
 424 178 424 178 441 162 c 128,-1,21
 458 146 458 146 483 139 c 128,-1,22
 508 132 508 132 540 132 c 0,23,24
 604 132 604 132 634 160 c 128,-1,25
 664 188 664 188 664 259 c 2,26,-1
 664 290 l 2,27,28
 664 309 664 309 669 321.5 c 128,-1,29
 674 334 674 334 688.5 341.5 c 128,-1,30
 703 349 703 349 730 352 c 128,-1,31
 757 355 757 355 802 355 c 0,32,33
 846 355 846 355 873 352 c 128,-1,34
 900 349 900 349 914.5 341.5 c 128,-1,35
 929 334 929 334 933.5 322 c 128,-1,36
 938 310 938 310 938 291 c 2,37,-1
 938 247 l 2,38,39
 938 168 938 168 904 118 c 128,-1,40
 870 68 870 68 814.5 39 c 128,-1,41
 759 10 759 10 687.5 -1 c 128,-1,42
 616 -12 616 -12 541 -12 c 0,43,44
 465 -12 465 -12 393 2.5 c 128,-1,45
 321 17 321 17 264.5 50.5 c 128,-1,46
 208 84 208 84 172.5 139 c 128,-1,47
 137 194 137 194 134 276 c 2,48,-1
 111 910 l 2,0,1
664 634 m 1,49,-1
 654 927 l 2,50,51
 653 969 653 969 644.5 995 c 128,-1,52
 636 1021 636 1021 621.5 1035 c 128,-1,53
 607 1049 607 1049 587.5 1053.5 c 128,-1,54
 568 1058 568 1058 546 1058 c 0,55,56
 521 1058 521 1058 500 1053.5 c 128,-1,57
 479 1049 479 1049 463.5 1035 c 128,-1,58
 448 1021 448 1021 438.5 995 c 128,-1,59
 429 969 429 969 428 927 c 2,60,-1
 419 634 l 1,61,-1
 664 634 l 1,49,-1
EndSplineSet
EndChar

StartChar: d
Encoding: 100 100 10
Width: 1098
Flags: W
LayerCount: 2
Fore
SplineSet
121 883 m 2,0,1
 119 955 119 955 140 1016 c 128,-1,2
 161 1077 161 1077 201.5 1121 c 128,-1,3
 242 1165 242 1165 299 1189.5 c 128,-1,4
 356 1214 356 1214 426 1214 c 0,5,6
 468 1214 468 1214 504 1203 c 128,-1,7
 540 1192 540 1192 570 1175.5 c 128,-1,8
 600 1159 600 1159 623.5 1139 c 128,-1,9
 647 1119 647 1119 664 1101 c 1,10,-1
 653 1651 l 2,11,12
 653 1672 653 1672 657.5 1686.5 c 128,-1,13
 662 1701 662 1701 679 1709 c 128,-1,14
 696 1717 696 1717 728.5 1720.5 c 128,-1,15
 761 1724 761 1724 815 1724 c 256,16,17
 869 1724 869 1724 901.5 1720.5 c 128,-1,18
 934 1717 934 1717 951 1709 c 128,-1,19
 968 1701 968 1701 972.5 1686.5 c 128,-1,20
 977 1672 977 1672 977 1651 c 2,21,-1
 946 57 l 2,22,23
 946 38 946 38 941 27 c 128,-1,24
 936 16 936 16 922 10 c 128,-1,25
 908 4 908 4 882.5 2 c 128,-1,26
 857 0 857 0 815 0 c 0,27,28
 776 0 776 0 752.5 2 c 128,-1,29
 729 4 729 4 716.5 10 c 128,-1,30
 704 16 704 16 699.5 27 c 128,-1,31
 695 38 695 38 695 57 c 2,32,-1
 695 95 l 1,33,34
 674 76 674 76 646.5 57 c 128,-1,35
 619 38 619 38 585 22.5 c 128,-1,36
 551 7 551 7 511 -2.5 c 128,-1,37
 471 -12 471 -12 425 -12 c 0,38,39
 360 -12 360 -12 308.5 6 c 128,-1,40
 257 24 257 24 220.5 63.5 c 128,-1,41
 184 103 184 103 163 166.5 c 128,-1,42
 142 230 142 230 139 320 c 2,43,-1
 121 883 l 2,0,1
415 320 m 2,44,45
 413 246 413 246 449.5 206.5 c 128,-1,46
 486 167 486 167 550 167 c 0,47,48
 592 167 592 167 625.5 182.5 c 128,-1,49
 659 198 659 198 682 218 c 1,50,-1
 667 956 l 1,51,52
 643 976 643 976 610 991.5 c 128,-1,53
 577 1007 577 1007 543 1007 c 0,54,55
 521 1007 521 1007 501 1000.5 c 128,-1,56
 481 994 481 994 465.5 979.5 c 128,-1,57
 450 965 450 965 440.5 941 c 128,-1,58
 431 917 431 917 430 883 c 2,59,-1
 415 320 l 2,44,45
EndSplineSet
EndChar

StartChar: H
Encoding: 72 72 11
Width: 1231
Flags: W
LayerCount: 2
Fore
SplineSet
125 1607 m 2,0,1
 124 1633 124 1633 130 1649 c 128,-1,2
 136 1665 136 1665 155.5 1674 c 128,-1,3
 175 1683 175 1683 211 1686.5 c 128,-1,4
 247 1690 247 1690 307 1690 c 0,5,6
 366 1690 366 1690 402 1686.5 c 128,-1,7
 438 1683 438 1683 457.5 1674 c 128,-1,8
 477 1665 477 1665 483.5 1649 c 128,-1,9
 490 1633 490 1633 489 1607 c 2,10,-1
 468 879 l 1,11,-1
 762 879 l 1,12,-1
 742 1607 l 2,13,14
 741 1633 741 1633 747 1649 c 128,-1,15
 753 1665 753 1665 772.5 1674 c 128,-1,16
 792 1683 792 1683 828 1686.5 c 128,-1,17
 864 1690 864 1690 924 1690 c 0,18,19
 983 1690 983 1690 1019 1686.5 c 128,-1,20
 1055 1683 1055 1683 1074.5 1674 c 128,-1,21
 1094 1665 1094 1665 1100.5 1649 c 128,-1,22
 1107 1633 1107 1633 1106 1607 c 2,23,-1
 1062 68 l 2,24,25
 1061 45 1061 45 1056.5 31.5 c 128,-1,26
 1052 18 1052 18 1038 11 c 128,-1,27
 1024 4 1024 4 997 2 c 128,-1,28
 970 0 970 0 924 0 c 256,29,30
 878 0 878 0 850.5 2 c 128,-1,31
 823 4 823 4 809 11 c 128,-1,32
 795 18 795 18 790.5 31.5 c 128,-1,33
 786 45 786 45 785 68 c 2,34,-1
 768 689 l 1,35,-1
 463 689 l 1,36,-1
 445 68 l 2,37,38
 445 45 445 45 440.5 31.5 c 128,-1,39
 436 18 436 18 421.5 11 c 128,-1,40
 407 4 407 4 380 2 c 128,-1,41
 353 0 353 0 307 0 c 256,42,43
 261 0 261 0 233.5 2 c 128,-1,44
 206 4 206 4 192 11 c 128,-1,45
 178 18 178 18 173.5 31.5 c 128,-1,46
 169 45 169 45 168 68 c 2,47,-1
 125 1607 l 2,0,1
EndSplineSet
EndChar

StartChar: I
Encoding: 73 73 12
Width: 614
Flags: W
LayerCount: 2
Fore
SplineSet
125 1607 m 2,0,1
 124 1633 124 1633 130 1649 c 128,-1,2
 136 1665 136 1665 155.5 1674 c 128,-1,3
 175 1683 175 1683 211 1686.5 c 128,-1,4
 247 1690 247 1690 307 1690 c 0,5,6
 366 1690 366 1690 402 1686.5 c 128,-1,7
 438 1683 438 1683 457.5 1674 c 128,-1,8
 477 1665 477 1665 483.5 1649 c 128,-1,9
 490 1633 490 1633 489 1607 c 2,10,-1
 445 68 l 2,11,12
 445 45 445 45 440.5 31.5 c 128,-1,13
 436 18 436 18 421.5 11 c 128,-1,14
 407 4 407 4 380 2 c 128,-1,15
 353 0 353 0 307 0 c 256,16,17
 261 0 261 0 233.5 2 c 128,-1,18
 206 4 206 4 192 11 c 128,-1,19
 178 18 178 18 173.5 31.5 c 128,-1,20
 169 45 169 45 168 68 c 2,21,-1
 125 1607 l 2,0,1
EndSplineSet
EndChar

StartChar: l
Encoding: 108 108 13
Width: 586
Flags: W
LayerCount: 2
Fore
SplineSet
131 1651 m 2,0,1
 131 1672 131 1672 135.5 1686.5 c 128,-1,2
 140 1701 140 1701 157 1709 c 128,-1,3
 174 1717 174 1717 206.5 1720.5 c 128,-1,4
 239 1724 239 1724 293 1724 c 256,5,6
 347 1724 347 1724 379.5 1720.5 c 128,-1,7
 412 1717 412 1717 429 1709 c 128,-1,8
 446 1701 446 1701 450.5 1686.5 c 128,-1,9
 455 1672 455 1672 455 1651 c 2,10,-1
 424 57 l 2,11,12
 424 38 424 38 419 27 c 128,-1,13
 414 16 414 16 400 10 c 128,-1,14
 386 4 386 4 360.5 2 c 128,-1,15
 335 0 335 0 293 0 c 256,16,17
 251 0 251 0 225.5 2 c 128,-1,18
 200 4 200 4 186.5 10 c 128,-1,19
 173 16 173 16 168 27 c 128,-1,20
 163 38 163 38 163 57 c 2,21,-1
 131 1651 l 2,0,1
EndSplineSet
EndChar

StartChar: dotlessi
Encoding: 305 305 14
Width: 566
Flags: W
LayerCount: 2
Fore
SplineSet
121 1129 m 2,0,1
 121 1150 121 1150 125.5 1164.5 c 128,-1,2
 130 1179 130 1179 147 1187 c 128,-1,3
 164 1195 164 1195 196.5 1198.5 c 128,-1,4
 229 1202 229 1202 283 1202 c 256,5,6
 337 1202 337 1202 369.5 1198.5 c 128,-1,7
 402 1195 402 1195 419 1187 c 128,-1,8
 436 1179 436 1179 440.5 1164.5 c 128,-1,9
 445 1150 445 1150 445 1129 c 2,10,-1
 414 57 l 2,11,12
 414 38 414 38 409 27 c 128,-1,13
 404 16 404 16 390 10 c 128,-1,14
 376 4 376 4 350.5 2 c 128,-1,15
 325 0 325 0 283 0 c 256,16,17
 241 0 241 0 215.5 2 c 128,-1,18
 190 4 190 4 176.5 10 c 128,-1,19
 163 16 163 16 158 27 c 128,-1,20
 153 38 153 38 153 57 c 2,21,-1
 121 1129 l 2,0,1
EndSplineSet
EndChar

StartChar: D
Encoding: 68 68 15
Width: 1222
Flags: W
LayerCount: 2
Fore
SplineSet
125 1607 m 2,0,1
 124 1633 124 1633 130 1649 c 128,-1,2
 136 1665 136 1665 155.5 1674 c 128,-1,3
 175 1683 175 1683 211 1686.5 c 128,-1,4
 247 1690 247 1690 307 1690 c 2,5,-1
 329 1690 l 1,6,-1
 599 1690 l 2,7,8
 733 1690 733 1690 829 1667 c 128,-1,9
 925 1644 925 1644 985.5 1599 c 128,-1,10
 1046 1554 1046 1554 1073.5 1487.5 c 128,-1,11
 1101 1421 1101 1421 1098 1334 c 2,12,-1
 1069 324 l 2,13,14
 1067 249 1067 249 1038.5 189 c 128,-1,15
 1010 129 1010 129 953 87 c 128,-1,16
 896 45 896 45 809 22.5 c 128,-1,17
 722 0 722 0 602 0 c 2,18,-1
 281 0 l 2,19,20
 244 0 244 0 222 3 c 128,-1,21
 200 6 200 6 188 13 c 128,-1,22
 176 20 176 20 172.5 33.5 c 128,-1,23
 169 47 169 47 168 68 c 2,24,-1
 125 1607 l 2,0,1
612 163 m 2,25,26
 659 163 659 163 691 170.5 c 128,-1,27
 723 178 723 178 742.5 195 c 128,-1,28
 762 212 762 212 769.5 240.5 c 128,-1,29
 777 269 777 269 776 311 c 2,30,-1
 747 1382 l 2,31,32
 746 1425 746 1425 737.5 1452 c 128,-1,33
 729 1479 729 1479 713 1493 c 128,-1,34
 697 1507 697 1507 673 1512 c 128,-1,35
 649 1517 649 1517 617 1517 c 2,36,-1
 486 1517 l 1,37,-1
 447 163 l 1,38,-1
 612 163 l 2,25,26
EndSplineSet
EndChar

StartChar: S
Encoding: 83 83 16
Width: 1158
Flags: W
LayerCount: 2
Fore
SplineSet
144 415 m 2,0,1
 143 445 143 445 148 463.5 c 128,-1,2
 153 482 153 482 168.5 491.5 c 128,-1,3
 184 501 184 501 212 504 c 128,-1,4
 240 507 240 507 286 507 c 256,5,6
 332 507 332 507 363 504 c 128,-1,7
 394 501 394 501 412.5 491.5 c 128,-1,8
 431 482 431 482 438.5 463.5 c 128,-1,9
 446 445 446 445 445 415 c 2,10,-1
 441 296 l 2,11,12
 439 254 439 254 447.5 226 c 128,-1,13
 456 198 456 198 475.5 181.5 c 128,-1,14
 495 165 495 165 526 158 c 128,-1,15
 557 151 557 151 601 151 c 0,16,17
 646 151 646 151 677.5 158 c 128,-1,18
 709 165 709 165 728 181.5 c 128,-1,19
 747 198 747 198 755 226 c 128,-1,20
 763 254 763 254 763 296 c 2,21,-1
 762 361 l 2,22,23
 762 396 762 396 759 424.5 c 128,-1,24
 756 453 756 453 746.5 476 c 128,-1,25
 737 499 737 499 718.5 517 c 128,-1,26
 700 535 700 535 667 549 c 2,27,-1
 320 697 l 2,28,29
 263 722 263 722 225 753 c 128,-1,30
 187 784 187 784 164.5 824 c 128,-1,31
 142 864 142 864 132 914 c 128,-1,32
 122 964 122 964 120 1026 c 2,33,-1
 110 1365 l 2,34,35
 108 1440 108 1440 134.5 1502 c 128,-1,36
 161 1564 161 1564 220 1608 c 128,-1,37
 279 1652 279 1652 371.5 1676.5 c 128,-1,38
 464 1701 464 1701 594 1701 c 256,39,40
 724 1701 724 1701 816.5 1676.5 c 128,-1,41
 909 1652 909 1652 967.5 1608 c 128,-1,42
 1026 1564 1026 1564 1053 1502 c 128,-1,43
 1080 1440 1080 1440 1078 1365 c 2,44,-1
 1068 965 l 2,45,46
 1067 935 1067 935 1059 916.5 c 128,-1,47
 1051 898 1051 898 1032 888.5 c 128,-1,48
 1013 879 1013 879 981.5 876 c 128,-1,49
 950 873 950 873 904 873 c 0,50,51
 857 873 857 873 825.5 876 c 128,-1,52
 794 879 794 879 775 888.5 c 128,-1,53
 756 898 756 898 748 916.5 c 128,-1,54
 740 935 740 935 739 965 c 2,55,-1
 727 1396 l 2,56,57
 726 1440 726 1440 717 1466 c 128,-1,58
 708 1492 708 1492 691.5 1506 c 128,-1,59
 675 1520 675 1520 650.5 1524.5 c 128,-1,60
 626 1529 626 1529 594 1529 c 256,61,62
 562 1529 562 1529 537.5 1524.5 c 128,-1,63
 513 1520 513 1520 496.5 1506 c 128,-1,64
 480 1492 480 1492 471 1466 c 128,-1,65
 462 1440 462 1440 461 1396 c 2,66,-1
 450 997 l 2,67,68
 449 959 449 959 453.5 930.5 c 128,-1,69
 458 902 458 902 470.5 880 c 128,-1,70
 483 858 483 858 504 841 c 128,-1,71
 525 824 525 824 558 810 c 2,72,-1
 882 674 l 2,73,74
 935 652 935 652 970.5 626.5 c 128,-1,75
 1006 601 1006 601 1027 565 c 128,-1,76
 1048 529 1048 529 1055.5 479 c 128,-1,77
 1063 429 1063 429 1059 357 c 1,78,-1
 1057 301 l 2,79,80
 1055 236 1055 236 1029 179 c 128,-1,81
 1003 122 1003 122 948 79.5 c 128,-1,82
 893 37 893 37 807.5 12.5 c 128,-1,83
 722 -12 722 -12 601 -12 c 256,84,85
 480 -12 480 -12 394.5 13 c 128,-1,86
 309 38 309 38 254.5 81 c 128,-1,87
 200 124 200 124 174 182 c 128,-1,88
 148 240 148 240 147 305 c 2,89,-1
 144 415 l 2,0,1
EndSplineSet
EndChar

StartChar: E
Encoding: 69 69 17
Width: 901
Flags: W
LayerCount: 2
Fore
SplineSet
125 1607 m 2,0,1
 124 1633 124 1633 130 1649 c 128,-1,2
 136 1665 136 1665 155.5 1674 c 128,-1,3
 175 1683 175 1683 211 1686.5 c 128,-1,4
 247 1690 247 1690 307 1690 c 0,5,6
 324 1690 324 1690 339.5 1690 c 128,-1,7
 355 1690 355 1690 369 1689 c 1,8,-1
 770 1689 l 2,9,10
 796 1689 796 1689 810.5 1685 c 128,-1,11
 825 1681 825 1681 831.5 1670 c 128,-1,12
 838 1659 838 1659 839.5 1640 c 128,-1,13
 841 1621 841 1621 841 1591 c 256,14,15
 841 1561 841 1561 839.5 1541.5 c 128,-1,16
 838 1522 838 1522 831.5 1511.5 c 128,-1,17
 825 1501 825 1501 810.5 1497 c 128,-1,18
 796 1493 796 1493 770 1493 c 2,19,-1
 486 1493 l 1,20,-1
 468 879 l 1,21,-1
 709 879 l 2,22,23
 735 879 735 879 749.5 875 c 128,-1,24
 764 871 764 871 770.5 860.5 c 128,-1,25
 777 850 777 850 778.5 831.5 c 128,-1,26
 780 813 780 813 780 784 c 256,27,28
 780 755 780 755 778.5 736.5 c 128,-1,29
 777 718 777 718 770.5 707.5 c 128,-1,30
 764 697 764 697 749.5 693 c 128,-1,31
 735 689 735 689 709 689 c 2,32,-1
 463 689 l 1,33,-1
 448 186 l 1,34,-1
 733 186 l 2,35,36
 759 186 759 186 773.5 181.5 c 128,-1,37
 788 177 788 177 794.5 166.5 c 128,-1,38
 801 156 801 156 802.5 138 c 128,-1,39
 804 120 804 120 804 93 c 256,40,41
 804 66 804 66 802.5 48 c 128,-1,42
 801 30 801 30 794.5 19.5 c 128,-1,43
 788 9 788 9 773.5 4.5 c 128,-1,44
 759 0 759 0 733 0 c 2,45,-1
 333 0 l 1,46,-1
 307 0 l 2,47,48
 261 0 261 0 233.5 2 c 128,-1,49
 206 4 206 4 192 11 c 128,-1,50
 178 18 178 18 173.5 31.5 c 128,-1,51
 169 45 169 45 168 68 c 2,52,-1
 125 1607 l 2,0,1
EndSplineSet
EndChar

StartChar: N
Encoding: 78 78 18
Width: 1234
Flags: W
LayerCount: 2
Fore
SplineSet
125 1607 m 2,0,1
 124 1633 124 1633 129 1649 c 128,-1,2
 134 1665 134 1665 150.5 1674 c 128,-1,3
 167 1683 167 1683 198.5 1686.5 c 128,-1,4
 230 1690 230 1690 283 1690 c 0,5,6
 322 1690 322 1690 349.5 1688 c 128,-1,7
 377 1686 377 1686 394 1680.5 c 128,-1,8
 411 1675 411 1675 420.5 1666 c 128,-1,9
 430 1657 430 1657 433 1642 c 1,10,-1
 806 627 l 1,11,-1
 814 627 l 1,12,-1
 767 1607 l 2,13,14
 766 1633 766 1633 771.5 1649 c 128,-1,15
 777 1665 777 1665 794.5 1674 c 128,-1,16
 812 1683 812 1683 844.5 1686.5 c 128,-1,17
 877 1690 877 1690 930 1690 c 0,18,19
 989 1690 989 1690 1025 1686.5 c 128,-1,20
 1061 1683 1061 1683 1079.5 1674 c 128,-1,21
 1098 1665 1098 1665 1104 1649 c 128,-1,22
 1110 1633 1110 1633 1109 1607 c 2,23,-1
 1065 98 l 2,24,25
 1064 75 1064 75 1060 57 c 128,-1,26
 1056 39 1056 39 1044 26 c 128,-1,27
 1032 13 1032 13 1008.5 6.5 c 128,-1,28
 985 0 985 0 946 0 c 0,29,30
 908 0 908 0 884 5 c 128,-1,31
 860 10 860 10 849 30 c 1,32,-1
 847 28 l 1,33,-1
 442 1063 l 1,34,-1
 431 1063 l 1,35,-1
 423 68 l 2,36,37
 422 45 422 45 418 31.5 c 128,-1,38
 414 18 414 18 402 11 c 128,-1,39
 390 4 390 4 366.5 2 c 128,-1,40
 343 0 343 0 304 0 c 0,41,42
 259 0 259 0 232.5 2 c 128,-1,43
 206 4 206 4 192 11 c 128,-1,44
 178 18 178 18 173.5 31.5 c 128,-1,45
 169 45 169 45 168 68 c 2,46,-1
 125 1607 l 2,0,1
EndSplineSet
EndChar

StartChar: period
Encoding: 46 46 19
Width: 600
Flags: W
LayerCount: 2
Fore
SplineSet
138 252 m 2,0,1
 136 273 136 273 141 287.5 c 128,-1,2
 146 302 146 302 163 310 c 128,-1,3
 180 318 180 318 213 321.5 c 128,-1,4
 246 325 246 325 300 325 c 256,5,6
 354 325 354 325 386.5 321.5 c 128,-1,7
 419 318 419 318 436.5 310 c 128,-1,8
 454 302 454 302 458.5 287.5 c 128,-1,9
 463 273 463 273 462 252 c 2,10,-1
 451 57 l 2,11,12
 450 38 450 38 444.5 27 c 128,-1,13
 439 16 439 16 423 10 c 128,-1,14
 407 4 407 4 378 2 c 128,-1,15
 349 0 349 0 300 0 c 256,16,17
 251 0 251 0 222 2 c 128,-1,18
 193 4 193 4 177.5 10 c 128,-1,19
 162 16 162 16 156.5 27 c 128,-1,20
 151 38 151 38 150 57 c 2,21,-1
 138 252 l 2,0,1
EndSplineSet
EndChar

StartChar: exclam
Encoding: 33 33 20
Width: 620
Flags: W
LayerCount: 2
Fore
SplineSet
310 600 m 0,0,1
 263 600 263 600 236 602 c 128,-1,2
 209 604 209 604 194.5 611 c 128,-1,3
 180 618 180 618 175.5 632 c 128,-1,4
 171 646 171 646 170 669 c 2,5,-1
 126 1640 l 2,6,7
 125 1666 125 1666 131.5 1682.5 c 128,-1,8
 138 1699 138 1699 157.5 1708 c 128,-1,9
 177 1717 177 1717 213.5 1720.5 c 128,-1,10
 250 1724 250 1724 310 1724 c 256,11,12
 370 1724 370 1724 406.5 1720.5 c 128,-1,13
 443 1717 443 1717 462.5 1708 c 128,-1,14
 482 1699 482 1699 488.5 1682.5 c 128,-1,15
 495 1666 495 1666 494 1640 c 2,16,-1
 450 669 l 2,17,18
 449 646 449 646 444.5 632 c 128,-1,19
 440 618 440 618 425.5 611 c 128,-1,20
 411 604 411 604 383.5 602 c 128,-1,21
 356 600 356 600 310 600 c 0,0,1
148 252 m 2,22,23
 146 273 146 273 151 287.5 c 128,-1,24
 156 302 156 302 173 310 c 128,-1,25
 190 318 190 318 223 321.5 c 128,-1,26
 256 325 256 325 310 325 c 256,27,28
 364 325 364 325 396.5 321.5 c 128,-1,29
 429 318 429 318 446.5 310 c 128,-1,30
 464 302 464 302 468.5 287.5 c 128,-1,31
 473 273 473 273 472 252 c 2,32,-1
 461 57 l 2,33,34
 460 38 460 38 454.5 27 c 128,-1,35
 449 16 449 16 433 10 c 128,-1,36
 417 4 417 4 388 2 c 128,-1,37
 359 0 359 0 310 0 c 256,38,39
 261 0 261 0 232 2 c 128,-1,40
 203 4 203 4 187.5 10 c 128,-1,41
 172 16 172 16 166.5 27 c 128,-1,42
 161 38 161 38 160 57 c 2,43,-1
 148 252 l 2,22,23
EndSplineSet
EndChar

StartChar: q
Encoding: 113 113 21
Width: 1078
Flags: W
LayerCount: 2
Fore
SplineSet
111 883 m 2,0,1
 109 955 109 955 130 1016 c 128,-1,2
 151 1077 151 1077 191.5 1121 c 128,-1,3
 232 1165 232 1165 289 1189.5 c 128,-1,4
 346 1214 346 1214 416 1214 c 0,5,6
 459 1214 459 1214 496.5 1202.5 c 128,-1,7
 534 1191 534 1191 564 1173.5 c 128,-1,8
 594 1156 594 1156 617.5 1135.5 c 128,-1,9
 641 1115 641 1115 658 1096 c 1,10,-1
 658 1129 l 1,11,12
 657 1150 657 1150 661.5 1164.5 c 128,-1,13
 666 1179 666 1179 682 1187 c 128,-1,14
 698 1195 698 1195 728.5 1198.5 c 128,-1,15
 759 1202 759 1202 810 1202 c 256,16,17
 861 1202 861 1202 891.5 1198.5 c 128,-1,18
 922 1195 922 1195 938 1187 c 128,-1,19
 954 1179 954 1179 958.5 1164.5 c 128,-1,20
 963 1150 963 1150 962 1129 c 2,21,-1
 930 -363 l 2,22,23
 930 -382 930 -382 925 -393 c 128,-1,24
 920 -404 920 -404 906 -410 c 128,-1,25
 892 -416 892 -416 867 -418 c 128,-1,26
 842 -420 842 -420 800 -420 c 256,27,28
 758 -420 758 -420 732.5 -418 c 128,-1,29
 707 -416 707 -416 693.5 -410 c 128,-1,30
 680 -404 680 -404 675.5 -393 c 128,-1,31
 671 -382 671 -382 671 -363 c 2,32,-1
 661 74 l 1,33,34
 618 41 618 41 557 14.5 c 128,-1,35
 496 -12 496 -12 415 -12 c 0,36,37
 350 -12 350 -12 298.5 6 c 128,-1,38
 247 24 247 24 210.5 63.5 c 128,-1,39
 174 103 174 103 153 166.5 c 128,-1,40
 132 230 132 230 129 320 c 2,41,-1
 111 883 l 2,0,1
405 320 m 2,42,43
 403 246 403 246 439.5 206.5 c 128,-1,44
 476 167 476 167 540 167 c 0,45,46
 575 167 575 167 605 178.5 c 128,-1,47
 635 190 635 190 658 207 c 1,48,-1
 641 968 l 1,49,50
 618 985 618 985 590 996 c 128,-1,51
 562 1007 562 1007 533 1007 c 0,52,53
 511 1007 511 1007 491 1000.5 c 128,-1,54
 471 994 471 994 455.5 979.5 c 128,-1,55
 440 965 440 965 430.5 941 c 128,-1,56
 421 917 421 917 420 883 c 2,57,-1
 405 320 l 2,42,43
EndSplineSet
EndChar

StartChar: r
Encoding: 114 114 22
Width: 952
Flags: W
LayerCount: 2
Fore
SplineSet
121 1129 m 2,0,1
 121 1150 121 1150 125.5 1164.5 c 128,-1,2
 130 1179 130 1179 145.5 1187 c 128,-1,3
 161 1195 161 1195 191.5 1198.5 c 128,-1,4
 222 1202 222 1202 273 1202 c 256,5,6
 324 1202 324 1202 354 1198.5 c 128,-1,7
 384 1195 384 1195 400 1187 c 128,-1,8
 416 1179 416 1179 420.5 1164.5 c 128,-1,9
 425 1150 425 1150 425 1129 c 2,10,-1
 425 1070 l 1,11,12
 453 1101 453 1101 482.5 1127.5 c 128,-1,13
 512 1154 512 1154 544.5 1173 c 128,-1,14
 577 1192 577 1192 613.5 1203 c 128,-1,15
 650 1214 650 1214 692 1214 c 0,16,17
 740 1214 740 1214 781.5 1200 c 128,-1,18
 823 1186 823 1186 852.5 1155 c 128,-1,19
 882 1124 882 1124 898 1074.5 c 128,-1,20
 914 1025 914 1025 912 954 c 2,21,-1
 905 724 l 2,22,23
 905 705 905 705 899.5 694 c 128,-1,24
 894 683 894 683 879 677 c 128,-1,25
 864 671 864 671 836.5 669 c 128,-1,26
 809 667 809 667 764 667 c 256,27,28
 719 667 719 667 692 669 c 128,-1,29
 665 671 665 671 650.5 677 c 128,-1,30
 636 683 636 683 631.5 694 c 128,-1,31
 627 705 627 705 626 724 c 2,32,-1
 622 861 l 2,33,34
 621 900 621 900 615 926 c 128,-1,35
 609 952 609 952 598.5 967 c 128,-1,36
 588 982 588 982 574 988 c 128,-1,37
 560 994 560 994 542 994 c 0,38,39
 513 994 513 994 486.5 972 c 128,-1,40
 460 950 460 950 439 923 c 1,41,-1
 414 57 l 2,42,43
 414 38 414 38 409 27 c 128,-1,44
 404 16 404 16 390 10 c 128,-1,45
 376 4 376 4 350.5 2 c 128,-1,46
 325 0 325 0 283 0 c 256,47,48
 241 0 241 0 215.5 2 c 128,-1,49
 190 4 190 4 176.5 10 c 128,-1,50
 163 16 163 16 158 27 c 128,-1,51
 153 38 153 38 153 57 c 2,52,-1
 121 1129 l 2,0,1
EndSplineSet
EndChar

StartChar: F
Encoding: 70 70 23
Width: 901
Flags: W
LayerCount: 2
Fore
SplineSet
125 1607 m 2,0,1
 124 1633 124 1633 130 1649 c 128,-1,2
 136 1665 136 1665 155.5 1674 c 128,-1,3
 175 1683 175 1683 211 1686.5 c 128,-1,4
 247 1690 247 1690 307 1690 c 0,5,6
 324 1690 324 1690 339.5 1690 c 128,-1,7
 355 1690 355 1690 369 1689 c 1,8,-1
 770 1689 l 2,9,10
 796 1689 796 1689 810.5 1685 c 128,-1,11
 825 1681 825 1681 831.5 1670 c 128,-1,12
 838 1659 838 1659 839.5 1640 c 128,-1,13
 841 1621 841 1621 841 1591 c 256,14,15
 841 1561 841 1561 839.5 1541.5 c 128,-1,16
 838 1522 838 1522 831.5 1511.5 c 128,-1,17
 825 1501 825 1501 810.5 1497 c 128,-1,18
 796 1493 796 1493 770 1493 c 2,19,-1
 486 1493 l 1,20,-1
 468 879 l 1,21,-1
 709 879 l 2,22,23
 735 879 735 879 749.5 875 c 128,-1,24
 764 871 764 871 770.5 860.5 c 128,-1,25
 777 850 777 850 778.5 831.5 c 128,-1,26
 780 813 780 813 780 784 c 256,27,28
 780 755 780 755 778.5 736.5 c 128,-1,29
 777 718 777 718 770.5 707.5 c 128,-1,30
 764 697 764 697 749.5 693 c 128,-1,31
 735 689 735 689 709 689 c 2,32,-1
 463 689 l 1,33,-1
 445 63 l 2,34,35
 445 43 445 43 440.5 31 c 128,-1,36
 436 19 436 19 421.5 12 c 128,-1,37
 407 5 407 5 380 2.5 c 128,-1,38
 353 0 353 0 307 0 c 256,39,40
 261 0 261 0 233.5 2 c 128,-1,41
 206 4 206 4 192 11 c 128,-1,42
 178 18 178 18 173.5 31.5 c 128,-1,43
 169 45 169 45 168 68 c 2,44,-1
 125 1607 l 2,0,1
EndSplineSet
EndChar

StartChar: L
Encoding: 76 76 24
Width: 820
Flags: W
LayerCount: 2
Fore
SplineSet
125 1607 m 2,0,1
 124 1633 124 1633 130 1649 c 128,-1,2
 136 1665 136 1665 155.5 1674 c 128,-1,3
 175 1683 175 1683 211 1686.5 c 128,-1,4
 247 1690 247 1690 307 1690 c 0,5,6
 366 1690 366 1690 402 1686.5 c 128,-1,7
 438 1683 438 1683 457.5 1674 c 128,-1,8
 477 1665 477 1665 483.5 1649 c 128,-1,9
 490 1633 490 1633 489 1607 c 2,10,-1
 448 186 l 1,11,-1
 709 186 l 2,12,13
 735 186 735 186 749.5 181.5 c 128,-1,14
 764 177 764 177 770.5 166.5 c 128,-1,15
 777 156 777 156 778.5 138 c 128,-1,16
 780 120 780 120 780 93 c 256,17,18
 780 66 780 66 778.5 48 c 128,-1,19
 777 30 777 30 770.5 19.5 c 128,-1,20
 764 9 764 9 749.5 4.5 c 128,-1,21
 735 0 735 0 709 0 c 2,22,-1
 307 0 l 2,23,24
 261 0 261 0 233.5 2 c 128,-1,25
 206 4 206 4 192 11 c 128,-1,26
 178 18 178 18 173.5 31.5 c 128,-1,27
 169 45 169 45 168 68 c 2,28,-1
 125 1607 l 2,0,1
EndSplineSet
EndChar

StartChar: b
Encoding: 98 98 25
Width: 1100
Flags: W
LayerCount: 2
Fore
SplineSet
131 1651 m 2,0,1
 131 1672 131 1672 135.5 1686.5 c 128,-1,2
 140 1701 140 1701 157 1709 c 128,-1,3
 174 1717 174 1717 206.5 1720.5 c 128,-1,4
 239 1724 239 1724 293 1724 c 256,5,6
 347 1724 347 1724 379.5 1720.5 c 128,-1,7
 412 1717 412 1717 429 1709 c 128,-1,8
 446 1701 446 1701 450.5 1686.5 c 128,-1,9
 455 1672 455 1672 455 1651 c 2,10,-1
 444 1100 l 1,11,12
 461 1118 461 1118 484.5 1138.5 c 128,-1,13
 508 1159 508 1159 538 1175.5 c 128,-1,14
 568 1192 568 1192 604.5 1203 c 128,-1,15
 641 1214 641 1214 684 1214 c 0,16,17
 754 1214 754 1214 811 1189.5 c 128,-1,18
 868 1165 868 1165 908.5 1121 c 128,-1,19
 949 1077 949 1077 970 1016 c 128,-1,20
 991 955 991 955 989 883 c 2,21,-1
 971 320 l 2,22,23
 968 230 968 230 947 166.5 c 128,-1,24
 926 103 926 103 889.5 63.5 c 128,-1,25
 853 24 853 24 801 6 c 128,-1,26
 749 -12 749 -12 685 -12 c 0,27,28
 638 -12 638 -12 598 -2.5 c 128,-1,29
 558 7 558 7 524 22.5 c 128,-1,30
 490 38 490 38 462.5 57 c 128,-1,31
 435 76 435 76 414 95 c 1,32,-1
 414 57 l 2,33,34
 414 38 414 38 409.5 27 c 128,-1,35
 405 16 405 16 392 10 c 128,-1,36
 379 4 379 4 355.5 2 c 128,-1,37
 332 0 332 0 293 0 c 0,38,39
 251 0 251 0 225.5 2 c 128,-1,40
 200 4 200 4 186.5 10 c 128,-1,41
 173 16 173 16 168 27 c 128,-1,42
 163 38 163 38 163 57 c 2,43,-1
 131 1651 l 2,0,1
428 218 m 1,44,45
 451 198 451 198 484.5 182.5 c 128,-1,46
 518 167 518 167 560 167 c 0,47,48
 624 167 624 167 660.5 206.5 c 128,-1,49
 697 246 697 246 695 320 c 2,50,-1
 680 883 l 2,51,52
 679 917 679 917 669.5 941 c 128,-1,53
 660 965 660 965 644.5 979.5 c 128,-1,54
 629 994 629 994 609 1000.5 c 128,-1,55
 589 1007 589 1007 567 1007 c 0,56,57
 532 1007 532 1007 498.5 991 c 128,-1,58
 465 975 465 975 442 955 c 1,59,-1
 428 218 l 1,44,45
EndSplineSet
EndChar

StartChar: m
Encoding: 109 109 26
Width: 1619
Flags: W
LayerCount: 2
Fore
SplineSet
121 1129 m 2,0,1
 121 1150 121 1150 125.5 1164.5 c 128,-1,2
 130 1179 130 1179 145.5 1187 c 128,-1,3
 161 1195 161 1195 191.5 1198.5 c 128,-1,4
 222 1202 222 1202 273 1202 c 256,5,6
 324 1202 324 1202 354.5 1198.5 c 128,-1,7
 385 1195 385 1195 400.5 1187 c 128,-1,8
 416 1179 416 1179 420.5 1164.5 c 128,-1,9
 425 1150 425 1150 425 1129 c 2,10,-1
 423 1068 l 1,11,12
 451 1100 451 1100 480.5 1126.5 c 128,-1,13
 510 1153 510 1153 543.5 1172.5 c 128,-1,14
 577 1192 577 1192 615 1203 c 128,-1,15
 653 1214 653 1214 698 1214 c 0,16,17
 783 1214 783 1214 849 1172 c 128,-1,18
 915 1130 915 1130 949 1052 c 1,19,20
 979 1087 979 1087 1009.5 1116.5 c 128,-1,21
 1040 1146 1040 1146 1075 1168 c 128,-1,22
 1110 1190 1110 1190 1150 1202 c 128,-1,23
 1190 1214 1190 1214 1238 1214 c 0,24,25
 1299 1214 1299 1214 1351.5 1192 c 128,-1,26
 1404 1170 1404 1170 1441.5 1128 c 128,-1,27
 1479 1086 1479 1086 1499.5 1026 c 128,-1,28
 1520 966 1520 966 1518 890 c 2,29,-1
 1494 57 l 2,30,31
 1494 38 1494 38 1489 27 c 128,-1,32
 1484 16 1484 16 1470 10 c 128,-1,33
 1456 4 1456 4 1430.5 2 c 128,-1,34
 1405 0 1405 0 1363 0 c 256,35,36
 1321 0 1321 0 1295.5 2 c 128,-1,37
 1270 4 1270 4 1256.5 10 c 128,-1,38
 1243 16 1243 16 1238 27 c 128,-1,39
 1233 38 1233 38 1233 57 c 2,40,-1
 1210 861 l 2,41,42
 1209 900 1209 900 1200 926 c 128,-1,43
 1191 952 1191 952 1176 967 c 128,-1,44
 1161 982 1161 982 1140.5 988 c 128,-1,45
 1120 994 1120 994 1096 994 c 0,46,47
 1058 994 1058 994 1028.5 972.5 c 128,-1,48
 999 951 999 951 978 921 c 1,49,-1
 978 890 l 1,50,-1
 954 57 l 2,51,52
 954 38 954 38 949 27 c 128,-1,53
 944 16 944 16 930 10 c 128,-1,54
 916 4 916 4 890.5 2 c 128,-1,55
 865 0 865 0 823 0 c 256,56,57
 781 0 781 0 755.5 2 c 128,-1,58
 730 4 730 4 716.5 10 c 128,-1,59
 703 16 703 16 698 27 c 128,-1,60
 693 38 693 38 693 57 c 2,61,-1
 670 861 l 2,62,63
 669 900 669 900 660 926 c 128,-1,64
 651 952 651 952 636 967 c 128,-1,65
 621 982 621 982 600.5 988 c 128,-1,66
 580 994 580 994 556 994 c 0,67,68
 518 994 518 994 489 973 c 128,-1,69
 460 952 460 952 439 923 c 1,70,-1
 414 57 l 2,71,72
 414 38 414 38 409 27 c 128,-1,73
 404 16 404 16 390 10 c 128,-1,74
 376 4 376 4 350.5 2 c 128,-1,75
 325 0 325 0 283 0 c 256,76,77
 241 0 241 0 215.5 2 c 128,-1,78
 190 4 190 4 176.5 10 c 128,-1,79
 163 16 163 16 158 27 c 128,-1,80
 153 38 153 38 153 57 c 2,81,-1
 121 1129 l 2,0,1
EndSplineSet
EndChar

StartChar: c
Encoding: 99 99 28
Width: 1062
Flags: W
LayerCount: 2
Fore
SplineSet
111 910 m 2,0,1
 108 990 108 990 143.5 1047.5 c 128,-1,2
 179 1105 179 1105 239.5 1142 c 128,-1,3
 300 1179 300 1179 379 1196.5 c 128,-1,4
 458 1214 458 1214 541 1214 c 0,5,6
 626 1214 626 1214 705 1196.5 c 128,-1,7
 784 1179 784 1179 844 1142 c 128,-1,8
 904 1105 904 1105 939 1047.5 c 128,-1,9
 974 990 974 990 971 910 c 2,10,-1
 961 599 l 2,11,12
 960 580 960 580 954 569 c 128,-1,13
 948 558 948 558 932 552 c 128,-1,14
 916 546 916 546 887 544 c 128,-1,15
 858 542 858 542 812 542 c 0,16,17
 765 542 765 542 736 544 c 128,-1,18
 707 546 707 546 691 552 c 128,-1,19
 675 558 675 558 669.5 569 c 128,-1,20
 664 580 664 580 663 599 c 2,21,-1
 654 927 l 2,22,23
 653 969 653 969 644.5 995 c 128,-1,24
 636 1021 636 1021 621 1035 c 128,-1,25
 606 1049 606 1049 586 1053.5 c 128,-1,26
 566 1058 566 1058 541 1058 c 256,27,28
 516 1058 516 1058 496 1053.5 c 128,-1,29
 476 1049 476 1049 461 1035 c 128,-1,30
 446 1021 446 1021 437.5 995 c 128,-1,31
 429 969 429 969 428 927 c 2,32,-1
 408 268 l 2,33,34
 407 230 407 230 414.5 204 c 128,-1,35
 422 178 422 178 438.5 162 c 128,-1,36
 455 146 455 146 480.5 139 c 128,-1,37
 506 132 506 132 541 132 c 0,38,39
 611 132 611 132 642.5 160 c 128,-1,40
 674 188 674 188 674 259 c 2,41,-1
 674 290 l 2,42,43
 674 309 674 309 679 321.5 c 128,-1,44
 684 334 684 334 698.5 341.5 c 128,-1,45
 713 349 713 349 740 352 c 128,-1,46
 767 355 767 355 812 355 c 0,47,48
 856 355 856 355 883 352 c 128,-1,49
 910 349 910 349 924.5 341.5 c 128,-1,50
 939 334 939 334 944 322 c 128,-1,51
 949 310 949 310 949 291 c 2,52,-1
 949 267 l 2,53,54
 949 188 949 188 914 134.5 c 128,-1,55
 879 81 879 81 822 48.5 c 128,-1,56
 765 16 765 16 692 2 c 128,-1,57
 619 -12 619 -12 542 -12 c 0,58,59
 464 -12 464 -12 392 2.5 c 128,-1,60
 320 17 320 17 263.5 50.5 c 128,-1,61
 207 84 207 84 172 139 c 128,-1,62
 137 194 137 194 134 276 c 2,63,-1
 111 910 l 2,0,1
EndSplineSet
EndChar

StartChar: dotlessj
Encoding: 567 567 29
Width: 571
Flags: W
LayerCount: 2
Fore
SplineSet
123 1129 m 2,0,1
 122 1150 122 1150 127 1164.5 c 128,-1,2
 132 1179 132 1179 149 1187 c 128,-1,3
 166 1195 166 1195 198.5 1198.5 c 128,-1,4
 231 1202 231 1202 285 1202 c 256,5,6
 339 1202 339 1202 371.5 1198.5 c 128,-1,7
 404 1195 404 1195 421 1187 c 128,-1,8
 438 1179 438 1179 443 1164.5 c 128,-1,9
 448 1150 448 1150 447 1129 c 2,10,-1
 415 -363 l 2,11,12
 415 -382 415 -382 410 -393 c 128,-1,13
 405 -404 405 -404 391 -410 c 128,-1,14
 377 -416 377 -416 352 -418 c 128,-1,15
 327 -420 327 -420 285 -420 c 256,16,17
 243 -420 243 -420 217.5 -418 c 128,-1,18
 192 -416 192 -416 178.5 -410 c 128,-1,19
 165 -404 165 -404 160.5 -393 c 128,-1,20
 156 -382 156 -382 156 -363 c 2,21,-1
 123 1129 l 2,0,1
EndSplineSet
EndChar

StartChar: T
Encoding: 84 84 30
Width: 954
Flags: W
LayerCount: 2
Fore
SplineSet
298 1494 m 1,0,-1
 111 1494 l 2,1,2
 85 1494 85 1494 70.5 1498 c 128,-1,3
 56 1502 56 1502 49.5 1512.5 c 128,-1,4
 43 1523 43 1523 41.5 1542.5 c 128,-1,5
 40 1562 40 1562 40 1592 c 256,6,7
 40 1622 40 1622 41.5 1641 c 128,-1,8
 43 1660 43 1660 49.5 1671 c 128,-1,9
 56 1682 56 1682 70.5 1686 c 128,-1,10
 85 1690 85 1690 111 1690 c 2,11,-1
 454 1690 l 1,12,-1
 477 1690 l 1,13,-1
 843 1690 l 2,14,15
 869 1690 869 1690 883.5 1686 c 128,-1,16
 898 1682 898 1682 905 1671 c 128,-1,17
 912 1660 912 1660 913.5 1641 c 128,-1,18
 915 1622 915 1622 915 1592 c 256,19,20
 915 1562 915 1562 913.5 1542.5 c 128,-1,21
 912 1523 912 1523 905 1512.5 c 128,-1,22
 898 1502 898 1502 883.5 1498 c 128,-1,23
 869 1494 869 1494 843 1494 c 2,24,-1
 656 1494 l 1,25,-1
 616 63 l 2,26,27
 615 43 615 43 610.5 31 c 128,-1,28
 606 19 606 19 592 12 c 128,-1,29
 578 5 578 5 550.5 2.5 c 128,-1,30
 523 0 523 0 477 0 c 256,31,32
 431 0 431 0 404 2 c 128,-1,33
 377 4 377 4 362.5 11 c 128,-1,34
 348 18 348 18 344 31.5 c 128,-1,35
 340 45 340 45 339 68 c 2,36,-1
 298 1494 l 1,0,-1
EndSplineSet
EndChar

StartChar: p
Encoding: 112 112 31
Width: 1087
Flags: W
LayerCount: 2
Fore
SplineSet
121 1129 m 2,0,1
 120 1150 120 1150 124.5 1164.5 c 128,-1,2
 129 1179 129 1179 145 1187 c 128,-1,3
 161 1195 161 1195 191.5 1198.5 c 128,-1,4
 222 1202 222 1202 273 1202 c 256,5,6
 324 1202 324 1202 354.5 1198.5 c 128,-1,7
 385 1195 385 1195 401 1187 c 128,-1,8
 417 1179 417 1179 421.5 1164.5 c 128,-1,9
 426 1150 426 1150 425 1129 c 2,10,-1
 424 1094 l 1,11,12
 448 1118 448 1118 475 1139.5 c 128,-1,13
 502 1161 502 1161 533 1177.5 c 128,-1,14
 564 1194 564 1194 598 1204 c 128,-1,15
 632 1214 632 1214 671 1214 c 0,16,17
 741 1214 741 1214 798 1189.5 c 128,-1,18
 855 1165 855 1165 895.5 1121 c 128,-1,19
 936 1077 936 1077 957 1016 c 128,-1,20
 978 955 978 955 976 883 c 2,21,-1
 958 320 l 2,22,23
 955 230 955 230 934 166.5 c 128,-1,24
 913 103 913 103 876.5 63.5 c 128,-1,25
 840 24 840 24 788 6 c 128,-1,26
 736 -12 736 -12 672 -12 c 0,27,28
 589 -12 589 -12 527 15.5 c 128,-1,29
 465 43 465 43 422 77 c 1,30,-1
 413 -363 l 2,31,32
 413 -382 413 -382 408 -393 c 128,-1,33
 403 -404 403 -404 389 -410 c 128,-1,34
 375 -416 375 -416 350 -418 c 128,-1,35
 325 -420 325 -420 283 -420 c 256,36,37
 241 -420 241 -420 215.5 -418 c 128,-1,38
 190 -416 190 -416 176.5 -410 c 128,-1,39
 163 -404 163 -404 158.5 -393 c 128,-1,40
 154 -382 154 -382 154 -363 c 2,41,-1
 121 1129 l 2,0,1
425 209 m 1,42,43
 448 192 448 192 478.5 179.5 c 128,-1,44
 509 167 509 167 547 167 c 0,45,46
 611 167 611 167 647.5 206.5 c 128,-1,47
 684 246 684 246 682 320 c 2,48,-1
 667 883 l 2,49,50
 666 917 666 917 656.5 941 c 128,-1,51
 647 965 647 965 631.5 979.5 c 128,-1,52
 616 994 616 994 596 1000.5 c 128,-1,53
 576 1007 576 1007 554 1007 c 0,54,55
 524 1007 524 1007 494.5 995 c 128,-1,56
 465 983 465 983 442 966 c 1,57,-1
 425 209 l 1,42,43
EndSplineSet
EndChar

StartChar: g
Encoding: 103 103 32
Width: 1068
Flags: W
LayerCount: 2
Fore
SplineSet
101 883 m 2,0,1
 99 955 99 955 120 1016 c 128,-1,2
 141 1077 141 1077 181.5 1121 c 128,-1,3
 222 1165 222 1165 279 1189.5 c 128,-1,4
 336 1214 336 1214 406 1214 c 0,5,6
 448 1214 448 1214 483.5 1203 c 128,-1,7
 519 1192 519 1192 549 1175.5 c 128,-1,8
 579 1159 579 1159 602.5 1139.5 c 128,-1,9
 626 1120 626 1120 643 1102 c 1,10,-1
 643 1129 l 2,11,12
 643 1150 643 1150 647.5 1164.5 c 128,-1,13
 652 1179 652 1179 668.5 1187 c 128,-1,14
 685 1195 685 1195 715.5 1198.5 c 128,-1,15
 746 1202 746 1202 797 1202 c 256,16,17
 848 1202 848 1202 878.5 1198.5 c 128,-1,18
 909 1195 909 1195 924.5 1187 c 128,-1,19
 940 1179 940 1179 944.5 1164.5 c 128,-1,20
 949 1150 949 1150 949 1129 c 2,21,-1
 923 -131 l 2,22,23
 921 -213 921 -213 891.5 -268.5 c 128,-1,24
 862 -324 862 -324 808.5 -357.5 c 128,-1,25
 755 -391 755 -391 679 -405.5 c 128,-1,26
 603 -420 603 -420 508 -420 c 0,27,28
 438 -420 438 -420 397 -416.5 c 128,-1,29
 356 -413 356 -413 330 -408 c 0,30,31
 318 -406 318 -406 310.5 -401.5 c 128,-1,32
 303 -397 303 -397 299.5 -388 c 128,-1,33
 296 -379 296 -379 294.5 -363.5 c 128,-1,34
 293 -348 293 -348 293 -324 c 0,35,36
 293 -273 293 -273 300 -252.5 c 128,-1,37
 307 -232 307 -232 330 -234 c 0,38,39
 354 -236 354 -236 391.5 -240.5 c 128,-1,40
 429 -245 429 -245 495 -245 c 0,41,42
 538 -245 538 -245 569 -238 c 128,-1,43
 600 -231 600 -231 619 -215 c 128,-1,44
 638 -199 638 -199 646 -172.5 c 128,-1,45
 654 -146 654 -146 653 -108 c 2,46,-1
 648 73 l 1,47,48
 606 40 606 40 545.5 14 c 128,-1,49
 485 -12 485 -12 405 -12 c 0,50,51
 340 -12 340 -12 288.5 6 c 128,-1,52
 237 24 237 24 200.5 63.5 c 128,-1,53
 164 103 164 103 143 166.5 c 128,-1,54
 122 230 122 230 119 320 c 2,55,-1
 101 883 l 2,0,1
395 320 m 2,56,57
 393 246 393 246 429.5 206.5 c 128,-1,58
 466 167 466 167 530 167 c 0,59,60
 565 167 565 167 594 178 c 128,-1,61
 623 189 623 189 645 205 c 1,62,-1
 627 971 l 1,63,64
 604 986 604 986 577 996.5 c 128,-1,65
 550 1007 550 1007 523 1007 c 0,66,67
 501 1007 501 1007 481 1000.5 c 128,-1,68
 461 994 461 994 445.5 979.5 c 128,-1,69
 430 965 430 965 420.5 941 c 128,-1,70
 411 917 411 917 410 883 c 2,71,-1
 395 320 l 2,56,57
EndSplineSet
EndChar

StartChar: C
Encoding: 67 67 33
Width: 1198
Flags: W
LayerCount: 2
Fore
SplineSet
120 1365 m 2,0,1
 118 1440 118 1440 145 1502 c 128,-1,2
 172 1564 172 1564 230.5 1608 c 128,-1,3
 289 1652 289 1652 381.5 1676.5 c 128,-1,4
 474 1701 474 1701 604 1701 c 0,5,6
 733 1701 733 1701 825.5 1676.5 c 128,-1,7
 918 1652 918 1652 977 1608 c 128,-1,8
 1036 1564 1036 1564 1063 1502 c 128,-1,9
 1090 1440 1090 1440 1088 1365 c 2,10,-1
 1076 879 l 2,11,12
 1075 849 1075 849 1067 830.5 c 128,-1,13
 1059 812 1059 812 1040 802.5 c 128,-1,14
 1021 793 1021 793 989.5 790 c 128,-1,15
 958 787 958 787 912 787 c 0,16,17
 865 787 865 787 834 790 c 128,-1,18
 803 793 803 793 784.5 802.5 c 128,-1,19
 766 812 766 812 758 830.5 c 128,-1,20
 750 849 750 849 749 879 c 2,21,-1
 736 1396 l 2,22,23
 735 1440 735 1440 726 1466 c 128,-1,24
 717 1492 717 1492 700.5 1506 c 128,-1,25
 684 1520 684 1520 660 1524.5 c 128,-1,26
 636 1529 636 1529 604 1529 c 256,27,28
 572 1529 572 1529 548 1524.5 c 128,-1,29
 524 1520 524 1520 507.5 1506 c 128,-1,30
 491 1492 491 1492 482 1466 c 128,-1,31
 473 1440 473 1440 472 1396 c 2,32,-1
 443 296 l 2,33,34
 442 254 442 254 450.5 226 c 128,-1,35
 459 198 459 198 478.5 181.5 c 128,-1,36
 498 165 498 165 529 158 c 128,-1,37
 560 151 560 151 604 151 c 256,38,39
 648 151 648 151 679.5 158 c 128,-1,40
 711 165 711 165 730.5 181.5 c 128,-1,41
 750 198 750 198 758 226 c 128,-1,42
 766 254 766 254 765 296 c 2,43,-1
 761 415 l 2,44,45
 760 445 760 445 767.5 463.5 c 128,-1,46
 775 482 775 482 793.5 491.5 c 128,-1,47
 812 501 812 501 843 504 c 128,-1,48
 874 507 874 507 920 507 c 0,49,50
 965 507 965 507 993.5 504 c 128,-1,51
 1022 501 1022 501 1037.5 491.5 c 128,-1,52
 1053 482 1053 482 1058 463.5 c 128,-1,53
 1063 445 1063 445 1062 415 c 2,54,-1
 1059 303 l 2,55,56
 1057 238 1057 238 1031 180.5 c 128,-1,57
 1005 123 1005 123 950.5 80 c 128,-1,58
 896 37 896 37 810.5 12.5 c 128,-1,59
 725 -12 725 -12 604 -12 c 256,60,61
 483 -12 483 -12 397 13 c 128,-1,62
 311 38 311 38 256.5 81 c 128,-1,63
 202 124 202 124 176 182 c 128,-1,64
 150 240 150 240 148 305 c 2,65,-1
 120 1365 l 2,0,1
EndSplineSet
EndChar

StartChar: u
Encoding: 117 117 34
Width: 1086
Flags: W
LayerCount: 2
Fore
SplineSet
101 1129 m 2,0,1
 101 1150 101 1150 105.5 1164.5 c 128,-1,2
 110 1179 110 1179 127 1187 c 128,-1,3
 144 1195 144 1195 176.5 1198.5 c 128,-1,4
 209 1202 209 1202 263 1202 c 256,5,6
 317 1202 317 1202 349.5 1198.5 c 128,-1,7
 382 1195 382 1195 399 1187 c 128,-1,8
 416 1179 416 1179 420.5 1164.5 c 128,-1,9
 425 1150 425 1150 425 1129 c 2,10,-1
 402 313 l 2,11,12
 401 269 401 269 412 241 c 128,-1,13
 423 213 423 213 441.5 196.5 c 128,-1,14
 460 180 460 180 483 173.5 c 128,-1,15
 506 167 506 167 530 167 c 0,16,17
 573 167 573 167 607 185.5 c 128,-1,18
 641 204 641 204 667 227 c 1,19,-1
 641 1129 l 2,20,21
 641 1150 641 1150 645.5 1164.5 c 128,-1,22
 650 1179 650 1179 667 1187 c 128,-1,23
 684 1195 684 1195 716.5 1198.5 c 128,-1,24
 749 1202 749 1202 803 1202 c 256,25,26
 857 1202 857 1202 889.5 1198.5 c 128,-1,27
 922 1195 922 1195 939 1187 c 128,-1,28
 956 1179 956 1179 960.5 1164.5 c 128,-1,29
 965 1150 965 1150 965 1129 c 2,30,-1
 934 57 l 2,31,32
 934 38 934 38 929 27 c 128,-1,33
 924 16 924 16 910 10 c 128,-1,34
 896 4 896 4 870.5 2 c 128,-1,35
 845 0 845 0 803 0 c 0,36,37
 764 0 764 0 740.5 2 c 128,-1,38
 717 4 717 4 704.5 10 c 128,-1,39
 692 16 692 16 687.5 27 c 128,-1,40
 683 38 683 38 683 57 c 2,41,-1
 681 104 l 1,42,43
 659 84 659 84 631 63 c 128,-1,44
 603 42 603 42 567.5 25.5 c 128,-1,45
 532 9 532 9 489.5 -1.5 c 128,-1,46
 447 -12 447 -12 396 -12 c 0,47,48
 272 -12 272 -12 201 59 c 128,-1,49
 130 130 130 130 126 268 c 2,50,-1
 101 1129 l 2,0,1
EndSplineSet
EndChar

StartChar: t
Encoding: 116 116 35
Width: 638
Flags: W
LayerCount: 2
Fore
SplineSet
168 926 m 1,0,-1
 112 926 l 2,1,2
 86 926 86 926 71.5 930 c 128,-1,3
 57 934 57 934 50 945 c 128,-1,4
 43 956 43 956 41.5 975.5 c 128,-1,5
 40 995 40 995 40 1026 c 0,6,7
 40 1054 40 1054 41.5 1071.5 c 128,-1,8
 43 1089 43 1089 50 1099 c 128,-1,9
 57 1109 57 1109 71.5 1112.5 c 128,-1,10
 86 1116 86 1116 112 1116 c 2,11,-1
 163 1116 l 1,12,-1
 157 1395 l 2,13,14
 157 1416 157 1416 161.5 1430.5 c 128,-1,15
 166 1445 166 1445 183 1453 c 128,-1,16
 200 1461 200 1461 232.5 1464.5 c 128,-1,17
 265 1468 265 1468 319 1468 c 256,18,19
 373 1468 373 1468 405.5 1464.5 c 128,-1,20
 438 1461 438 1461 455 1453 c 128,-1,21
 472 1445 472 1445 476.5 1430.5 c 128,-1,22
 481 1416 481 1416 481 1395 c 2,23,-1
 474 1116 l 1,24,-1
 526 1116 l 2,25,26
 552 1116 552 1116 566.5 1112.5 c 128,-1,27
 581 1109 581 1109 588 1099 c 128,-1,28
 595 1089 595 1089 596.5 1071.5 c 128,-1,29
 598 1054 598 1054 598 1026 c 0,30,31
 598 995 598 995 596.5 975.5 c 128,-1,32
 595 956 595 956 588 945 c 128,-1,33
 581 934 581 934 566.5 930 c 128,-1,34
 552 926 552 926 526 926 c 2,35,-1
 470 926 l 1,36,-1
 450 57 l 2,37,38
 450 38 450 38 445 27 c 128,-1,39
 440 16 440 16 426 10 c 128,-1,40
 412 4 412 4 386.5 2 c 128,-1,41
 361 0 361 0 319 0 c 256,42,43
 277 0 277 0 251.5 2 c 128,-1,44
 226 4 226 4 212.5 10 c 128,-1,45
 199 16 199 16 194 27 c 128,-1,46
 189 38 189 38 189 57 c 2,47,-1
 168 926 l 1,0,-1
EndSplineSet
EndChar

StartChar: U
Encoding: 85 85 36
Width: 1201
Flags: W
LayerCount: 2
Fore
SplineSet
110 1607 m 2,0,1
 109 1633 109 1633 115 1649 c 128,-1,2
 121 1665 121 1665 140.5 1674 c 128,-1,3
 160 1683 160 1683 196.5 1686.5 c 128,-1,4
 233 1690 233 1690 292 1690 c 256,5,6
 351 1690 351 1690 387 1686.5 c 128,-1,7
 423 1683 423 1683 442.5 1674 c 128,-1,8
 462 1665 462 1665 468.5 1649 c 128,-1,9
 475 1633 475 1633 474 1607 c 2,10,-1
 440 296 l 2,11,12
 439 254 439 254 447.5 226 c 128,-1,13
 456 198 456 198 475.5 181.5 c 128,-1,14
 495 165 495 165 526 158 c 128,-1,15
 557 151 557 151 601 151 c 256,16,17
 645 151 645 151 676 158 c 128,-1,18
 707 165 707 165 726.5 181.5 c 128,-1,19
 746 198 746 198 754.5 226 c 128,-1,20
 763 254 763 254 762 296 c 2,21,-1
 727 1607 l 2,22,23
 726 1633 726 1633 732 1649 c 128,-1,24
 738 1665 738 1665 757.5 1674 c 128,-1,25
 777 1683 777 1683 813 1686.5 c 128,-1,26
 849 1690 849 1690 909 1690 c 0,27,28
 968 1690 968 1690 1004 1686.5 c 128,-1,29
 1040 1683 1040 1683 1059.5 1674 c 128,-1,30
 1079 1665 1079 1665 1085.5 1649 c 128,-1,31
 1092 1633 1092 1633 1091 1607 c 2,32,-1
 1056 305 l 2,33,34
 1054 240 1054 240 1028 182 c 128,-1,35
 1002 124 1002 124 947.5 81 c 128,-1,36
 893 38 893 38 807.5 13 c 128,-1,37
 722 -12 722 -12 601 -12 c 256,38,39
 480 -12 480 -12 394 13 c 128,-1,40
 308 38 308 38 253.5 81 c 128,-1,41
 199 124 199 124 173 182 c 128,-1,42
 147 240 147 240 146 305 c 2,43,-1
 110 1607 l 2,0,1
EndSplineSet
EndChar

StartChar: k
Encoding: 107 107 37
Width: 1005
Flags: W
LayerCount: 2
Fore
SplineSet
131 1651 m 2,0,1
 131 1672 131 1672 135.5 1686.5 c 128,-1,2
 140 1701 140 1701 157 1709 c 128,-1,3
 174 1717 174 1717 206.5 1720.5 c 128,-1,4
 239 1724 239 1724 293 1724 c 256,5,6
 347 1724 347 1724 379.5 1720.5 c 128,-1,7
 412 1717 412 1717 429 1709 c 128,-1,8
 446 1701 446 1701 450.5 1686.5 c 128,-1,9
 455 1672 455 1672 455 1651 c 2,10,-1
 424 57 l 2,11,12
 424 38 424 38 419 27 c 128,-1,13
 414 16 414 16 400 10 c 128,-1,14
 386 4 386 4 360.5 2 c 128,-1,15
 335 0 335 0 293 0 c 256,16,17
 251 0 251 0 225.5 2 c 128,-1,18
 200 4 200 4 186.5 10 c 128,-1,19
 173 16 173 16 168 27 c 128,-1,20
 163 38 163 38 163 57 c 2,21,-1
 131 1651 l 2,0,1
499 542 m 1,22,-1
 649 1137 l 2,23,24
 654 1158 654 1158 663 1170.5 c 128,-1,25
 672 1183 672 1183 690.5 1190 c 128,-1,26
 709 1197 709 1197 741.5 1199.5 c 128,-1,27
 774 1202 774 1202 825 1202 c 0,28,29
 871 1202 871 1202 899 1200.5 c 128,-1,30
 927 1199 927 1199 941.5 1194 c 128,-1,31
 956 1189 956 1189 960.5 1179 c 128,-1,32
 965 1169 965 1169 965 1153 c 0,33,34
 965 1142 965 1142 961 1127.5 c 128,-1,35
 957 1113 957 1113 951 1094 c 2,36,-1
 767 542 l 1,37,-1
 935 87 l 2,38,39
 952 41 952 41 952 32 c 0,40,41
 952 22 952 22 947.5 15.5 c 128,-1,42
 943 9 943 9 930.5 5.5 c 128,-1,43
 918 2 918 2 894 1 c 128,-1,44
 870 0 870 0 831 0 c 256,45,46
 792 0 792 0 768.5 2 c 128,-1,47
 745 4 745 4 731 10 c 128,-1,48
 717 16 717 16 709.5 27 c 128,-1,49
 702 38 702 38 695 57 c 2,50,-1
 499 542 l 1,22,-1
EndSplineSet
EndChar

StartChar: x
Encoding: 120 120 38
Width: 978
Flags: W
LayerCount: 2
Fore
SplineSet
81 32 m 0,0,1
 81 41 81 41 98 87 c 2,2,-1
 278 590 l 1,3,-1
 58 1094 l 2,4,5
 50 1112 50 1112 45 1127 c 128,-1,6
 40 1142 40 1142 40 1153 c 0,7,8
 40 1169 40 1169 46 1179 c 128,-1,9
 52 1189 52 1189 68.5 1194 c 128,-1,10
 85 1199 85 1199 112.5 1200.5 c 128,-1,11
 140 1202 140 1202 184 1202 c 0,12,13
 238 1202 238 1202 270 1200 c 128,-1,14
 302 1198 302 1198 320 1191.5 c 128,-1,15
 338 1185 338 1185 346 1173 c 128,-1,16
 354 1161 354 1161 360 1141 c 2,17,-1
 483 719 l 1,18,-1
 497 719 l 1,19,-1
 618 1141 l 2,20,21
 624 1161 624 1161 632 1173 c 128,-1,22
 640 1185 640 1185 658 1191.5 c 128,-1,23
 676 1198 676 1198 708 1200 c 128,-1,24
 740 1202 740 1202 794 1202 c 0,25,26
 837 1202 837 1202 865 1200.5 c 128,-1,27
 893 1199 893 1199 909.5 1194 c 128,-1,28
 926 1189 926 1189 932 1179 c 128,-1,29
 938 1169 938 1169 938 1153 c 0,30,31
 938 1142 938 1142 933 1127 c 128,-1,32
 928 1112 928 1112 920 1094 c 2,33,-1
 700 590 l 1,34,-1
 880 87 l 1,35,36
 897 44 897 44 897 32 c 0,37,38
 897 22 897 22 892.5 15.5 c 128,-1,39
 888 9 888 9 875.5 5.5 c 128,-1,40
 863 2 863 2 839 1 c 128,-1,41
 815 0 815 0 776 0 c 256,42,43
 737 0 737 0 713.5 2 c 128,-1,44
 690 4 690 4 676 10 c 128,-1,45
 662 16 662 16 654.5 27 c 128,-1,46
 647 38 647 38 640 57 c 2,47,-1
 497 454 l 1,48,-1
 483 454 l 1,49,-1
 338 57 l 2,50,51
 331 38 331 38 323.5 27 c 128,-1,52
 316 16 316 16 302 10 c 128,-1,53
 288 4 288 4 264.5 2 c 128,-1,54
 241 0 241 0 202 0 c 256,55,56
 163 0 163 0 139 1 c 128,-1,57
 115 2 115 2 102.5 5.5 c 128,-1,58
 90 9 90 9 85.5 15.5 c 128,-1,59
 81 22 81 22 81 32 c 0,0,1
EndSplineSet
EndChar

StartChar: y
Encoding: 121 121 39
Width: 958
Flags: W
LayerCount: 2
Fore
SplineSet
24 1129 m 2,0,1
 18 1150 18 1150 22.5 1164 c 128,-1,2
 27 1178 27 1178 45 1186.5 c 128,-1,3
 63 1195 63 1195 97.5 1198.5 c 128,-1,4
 132 1202 132 1202 186 1202 c 256,5,6
 240 1202 240 1202 271 1198.5 c 128,-1,7
 302 1195 302 1195 318 1187 c 128,-1,8
 334 1179 334 1179 339.5 1164.5 c 128,-1,9
 345 1150 345 1150 348 1129 c 2,10,-1
 481 240 l 1,11,-1
 505 240 l 1,12,-1
 610 1129 l 2,13,14
 613 1150 613 1150 618.5 1164.5 c 128,-1,15
 624 1179 624 1179 640 1187 c 128,-1,16
 656 1195 656 1195 687 1198.5 c 128,-1,17
 718 1202 718 1202 772 1202 c 256,18,19
 826 1202 826 1202 860.5 1198.5 c 128,-1,20
 895 1195 895 1195 913 1186.5 c 128,-1,21
 931 1178 931 1178 935.5 1164 c 128,-1,22
 940 1150 940 1150 934 1129 c 1,23,-1
 706 119 l 1,24,-1
 692 57 l 1,25,-1
 602 -346 l 2,26,27
 597 -367 597 -367 590 -381.5 c 128,-1,28
 583 -396 583 -396 569.5 -404 c 128,-1,29
 556 -412 556 -412 532.5 -415.5 c 128,-1,30
 509 -419 509 -419 471 -419 c 0,31,32
 403 -419 403 -419 382.5 -403 c 128,-1,33
 362 -387 362 -387 369 -346 c 1,34,-1
 439 0 l 1,35,-1
 396 0 l 2,36,37
 366 0 366 0 346.5 2 c 128,-1,38
 327 4 327 4 314 10.5 c 128,-1,39
 301 17 301 17 294 28 c 128,-1,40
 287 39 287 39 282 57 c 2,41,-1
 24 1129 l 2,0,1
EndSplineSet
EndChar

StartChar: z
Encoding: 122 122 40
Width: 823
Flags: W
LayerCount: 2
Fore
SplineSet
419 992 m 1,0,-1
 102 992 l 2,1,2
 76 992 76 992 61.5 996 c 128,-1,3
 47 1000 47 1000 40 1011 c 128,-1,4
 33 1022 33 1022 31.5 1041.5 c 128,-1,5
 30 1061 30 1061 30 1092 c 0,6,7
 30 1126 30 1126 31.5 1147.5 c 128,-1,8
 33 1169 33 1169 40 1181 c 128,-1,9
 47 1193 47 1193 61.5 1197.5 c 128,-1,10
 76 1202 76 1202 102 1202 c 2,11,-1
 716 1202 l 2,12,13
 746 1202 746 1202 763 1192 c 128,-1,14
 780 1182 780 1182 787 1165 c 128,-1,15
 794 1148 794 1148 792 1126.5 c 128,-1,16
 790 1105 790 1105 781 1081 c 1,17,-1
 372 180 l 1,18,-1
 690 180 l 2,19,20
 716 180 716 180 730.5 176.5 c 128,-1,21
 745 173 745 173 752 163 c 128,-1,22
 759 153 759 153 760.5 135.5 c 128,-1,23
 762 118 762 118 762 90 c 256,24,25
 762 62 762 62 760.5 44.5 c 128,-1,26
 759 27 759 27 752 17 c 128,-1,27
 745 7 745 7 730.5 3.5 c 128,-1,28
 716 0 716 0 690 0 c 2,29,-1
 168 0 l 2,30,31
 126 0 126 0 102 9.5 c 128,-1,32
 78 19 78 19 68.5 34.5 c 128,-1,33
 59 50 59 50 61 71 c 128,-1,34
 63 92 63 92 72 116 c 2,35,-1
 419 992 l 1,0,-1
EndSplineSet
EndChar

StartChar: f
Encoding: 102 102 41
Width: 635
Flags: W
LayerCount: 2
Fore
SplineSet
144 926 m 1,0,-1
 110 926 l 2,1,2
 84 926 84 926 69.5 930 c 128,-1,3
 55 934 55 934 48 945 c 128,-1,4
 41 956 41 956 39.5 975.5 c 128,-1,5
 38 995 38 995 38 1026 c 0,6,7
 38 1054 38 1054 39.5 1071.5 c 128,-1,8
 41 1089 41 1089 48 1099 c 128,-1,9
 55 1109 55 1109 69.5 1112.5 c 128,-1,10
 84 1116 84 1116 110 1116 c 2,11,-1
 140 1116 l 1,12,-1
 135 1384 l 2,13,14
 134 1449 134 1449 152 1510 c 128,-1,15
 170 1571 170 1571 207.5 1618.5 c 128,-1,16
 245 1666 245 1666 303 1695 c 128,-1,17
 361 1724 361 1724 440 1724 c 2,18,-1
 572 1724 l 2,19,20
 598 1724 598 1724 612.5 1720.5 c 128,-1,21
 627 1717 627 1717 634 1707 c 128,-1,22
 641 1697 641 1697 642.5 1679.5 c 128,-1,23
 644 1662 644 1662 644 1634 c 0,24,25
 644 1609 644 1609 643 1591.5 c 128,-1,26
 642 1574 642 1574 636.5 1563.5 c 128,-1,27
 631 1553 631 1553 620 1548.5 c 128,-1,28
 609 1544 609 1544 590 1544 c 2,29,-1
 550 1544 l 2,30,31
 535 1544 535 1544 518 1538.5 c 128,-1,32
 501 1533 501 1533 486 1518.5 c 128,-1,33
 471 1504 471 1504 461 1478.5 c 128,-1,34
 451 1453 451 1453 450 1413 c 2,35,-1
 444 1116 l 1,36,-1
 524 1116 l 2,37,38
 550 1116 550 1116 564.5 1112.5 c 128,-1,39
 579 1109 579 1109 586 1099 c 128,-1,40
 593 1089 593 1089 594.5 1071.5 c 128,-1,41
 596 1054 596 1054 596 1026 c 0,42,43
 596 995 596 995 594.5 975.5 c 128,-1,44
 593 956 593 956 586 945 c 128,-1,45
 579 934 579 934 564.5 930 c 128,-1,46
 550 926 550 926 524 926 c 2,47,-1
 440 926 l 1,48,-1
 423 57 l 2,49,50
 423 38 423 38 418 27 c 128,-1,51
 413 16 413 16 399 10 c 128,-1,52
 385 4 385 4 359.5 2 c 128,-1,53
 334 0 334 0 292 0 c 256,54,55
 250 0 250 0 224.5 2 c 128,-1,56
 199 4 199 4 185.5 10 c 128,-1,57
 172 16 172 16 167 27 c 128,-1,58
 162 38 162 38 162 57 c 2,59,-1
 144 926 l 1,0,-1
EndSplineSet
EndChar

StartChar: kgreenlandic
Encoding: 312 312 42
Width: 1005
Flags: W
LayerCount: 2
Fore
SplineSet
659 1137 m 2,0,1
 664 1157 664 1157 672.5 1170 c 128,-1,2
 681 1183 681 1183 699 1190 c 128,-1,3
 717 1197 717 1197 747 1199.5 c 128,-1,4
 777 1202 777 1202 825 1202 c 0,5,6
 871 1202 871 1202 899 1200.5 c 128,-1,7
 927 1199 927 1199 941.5 1194 c 128,-1,8
 956 1189 956 1189 960.5 1179 c 128,-1,9
 965 1169 965 1169 965 1153 c 0,10,11
 965 1142 965 1142 961 1127.5 c 128,-1,12
 957 1113 957 1113 951 1094 c 2,13,-1
 745 460 l 1,14,-1
 929 101 l 2,15,16
 942 76 942 76 949 59.5 c 128,-1,17
 956 43 956 43 956 32 c 0,18,19
 956 23 956 23 951.5 17 c 128,-1,20
 947 11 947 11 934.5 7 c 128,-1,21
 922 3 922 3 898 1.5 c 128,-1,22
 874 0 874 0 835 0 c 256,23,24
 796 0 796 0 773 2.5 c 128,-1,25
 750 5 750 5 735.5 11 c 128,-1,26
 721 17 721 17 712.5 28 c 128,-1,27
 704 39 704 39 695 57 c 2,28,-1
 481 460 l 1,29,-1
 659 1137 l 2,0,1
121 1129 m 2,30,31
 121 1150 121 1150 125.5 1164.5 c 128,-1,32
 130 1179 130 1179 147 1187 c 128,-1,33
 164 1195 164 1195 196.5 1198.5 c 128,-1,34
 229 1202 229 1202 283 1202 c 256,35,36
 337 1202 337 1202 369.5 1198.5 c 128,-1,37
 402 1195 402 1195 419 1187 c 128,-1,38
 436 1179 436 1179 440.5 1164.5 c 128,-1,39
 445 1150 445 1150 445 1129 c 2,40,-1
 414 57 l 2,41,42
 414 38 414 38 409 27 c 128,-1,43
 404 16 404 16 390 10 c 128,-1,44
 376 4 376 4 350.5 2 c 128,-1,45
 325 0 325 0 283 0 c 256,46,47
 241 0 241 0 215.5 2 c 128,-1,48
 190 4 190 4 176.5 10 c 128,-1,49
 163 16 163 16 158 27 c 128,-1,50
 153 38 153 38 153 57 c 2,51,-1
 121 1129 l 2,30,31
EndSplineSet
EndChar

StartChar: thorn
Encoding: 254 254 43
Width: 1087
Flags: W
LayerCount: 2
Fore
SplineSet
120 1651 m 2,0,1
 120 1672 120 1672 124.5 1686.5 c 128,-1,2
 129 1701 129 1701 146 1709 c 128,-1,3
 163 1717 163 1717 195.5 1720.5 c 128,-1,4
 228 1724 228 1724 282 1724 c 0,5,6
 337 1724 337 1724 369 1721 c 128,-1,7
 401 1718 401 1718 418 1709.5 c 128,-1,8
 435 1701 435 1701 439.5 1687 c 128,-1,9
 444 1673 444 1673 444 1652 c 2,10,-1
 435 1105 l 1,11,12
 458 1127 458 1127 484.5 1147 c 128,-1,13
 511 1167 511 1167 540 1182 c 128,-1,14
 569 1197 569 1197 602 1205.5 c 128,-1,15
 635 1214 635 1214 671 1214 c 0,16,17
 741 1214 741 1214 798 1189.5 c 128,-1,18
 855 1165 855 1165 895.5 1121 c 128,-1,19
 936 1077 936 1077 957 1016 c 128,-1,20
 978 955 978 955 976 883 c 2,21,-1
 958 320 l 2,22,23
 955 230 955 230 934 166.5 c 128,-1,24
 913 103 913 103 876.5 63.5 c 128,-1,25
 840 24 840 24 788 6 c 128,-1,26
 736 -12 736 -12 672 -12 c 0,27,28
 630 -12 630 -12 593 -4.5 c 128,-1,29
 556 3 556 3 524.5 16 c 128,-1,30
 493 29 493 29 467 45.5 c 128,-1,31
 441 62 441 62 420 79 c 1,32,-1
 413 -362 l 2,33,34
 413 -381 413 -381 408 -392 c 128,-1,35
 403 -403 403 -403 389.5 -409 c 128,-1,36
 376 -415 376 -415 350.5 -417 c 128,-1,37
 325 -419 325 -419 283 -419 c 256,38,39
 241 -419 241 -419 215.5 -417.5 c 128,-1,40
 190 -416 190 -416 176 -410 c 128,-1,41
 162 -404 162 -404 157.5 -393 c 128,-1,42
 153 -382 153 -382 153 -363 c 2,43,-1
 120 1651 l 2,0,1
422 212 m 1,44,45
 445 194 445 194 476.5 180.5 c 128,-1,46
 508 167 508 167 547 167 c 0,47,48
 611 167 611 167 647.5 206.5 c 128,-1,49
 684 246 684 246 682 320 c 2,50,-1
 667 883 l 2,51,52
 666 917 666 917 656.5 941 c 128,-1,53
 647 965 647 965 631.5 979.5 c 128,-1,54
 616 994 616 994 596 1000.5 c 128,-1,55
 576 1007 576 1007 554 1007 c 0,56,57
 521 1007 521 1007 489 992.5 c 128,-1,58
 457 978 457 978 433 959 c 1,59,-1
 422 212 l 1,44,45
EndSplineSet
EndChar

StartChar: G
Encoding: 71 71 44
Width: 1145
Flags: W
LayerCount: 2
Fore
SplineSet
125 1357 m 2,0,1
 123 1430 123 1430 149.5 1491 c 128,-1,2
 176 1552 176 1552 236 1596 c 128,-1,3
 296 1640 296 1640 392 1665 c 128,-1,4
 488 1690 488 1690 625 1690 c 2,5,-1
 923 1690 l 2,6,7
 957 1690 957 1690 975 1686.5 c 128,-1,8
 993 1683 993 1683 1001.5 1671 c 128,-1,9
 1010 1659 1010 1659 1011 1637 c 128,-1,10
 1012 1615 1012 1615 1012 1578 c 0,11,12
 1012 1548 1012 1548 1009 1530 c 128,-1,13
 1006 1512 1006 1512 999.5 1502 c 128,-1,14
 993 1492 993 1492 981.5 1489 c 128,-1,15
 970 1486 970 1486 952 1486 c 2,16,-1
 624 1486 l 1,17,18
 587 1487 587 1487 559.5 1483.5 c 128,-1,19
 532 1480 532 1480 514 1466 c 128,-1,20
 496 1452 496 1452 487 1425.5 c 128,-1,21
 478 1399 478 1399 477 1355 c 2,22,-1
 447 296 l 2,23,24
 446 254 446 254 453.5 226 c 128,-1,25
 461 198 461 198 478 181.5 c 128,-1,26
 495 165 495 165 522.5 158 c 128,-1,27
 550 151 550 151 589 151 c 256,28,29
 628 151 628 151 655.5 158 c 128,-1,30
 683 165 683 165 700.5 181.5 c 128,-1,31
 718 198 718 198 725 226 c 128,-1,32
 732 254 732 254 731 296 c 2,33,-1
 713 938 l 2,34,35
 712 968 712 968 719 986.5 c 128,-1,36
 726 1005 726 1005 745.5 1014.5 c 128,-1,37
 765 1024 765 1024 799 1027 c 128,-1,38
 833 1030 833 1030 885 1030 c 256,39,40
 937 1030 937 1030 969 1027 c 128,-1,41
 1001 1024 1001 1024 1017.5 1014.5 c 128,-1,42
 1034 1005 1034 1005 1039 986.5 c 128,-1,43
 1044 968 1044 968 1043 938 c 2,44,-1
 1025 303 l 2,45,46
 1023 238 1023 238 998 180.5 c 128,-1,47
 973 123 973 123 921 80 c 128,-1,48
 869 37 869 37 787 12.5 c 128,-1,49
 705 -12 705 -12 589 -12 c 256,50,51
 473 -12 473 -12 391 13 c 128,-1,52
 309 38 309 38 257 81 c 128,-1,53
 205 124 205 124 180 182 c 128,-1,54
 155 240 155 240 153 305 c 2,55,-1
 125 1357 l 2,0,1
EndSplineSet
EndChar

StartChar: J
Encoding: 74 74 45
Width: 1015
Flags: W
LayerCount: 2
Fore
SplineSet
50 696 m 2,0,1
 50 726 50 726 56.5 744.5 c 128,-1,2
 63 763 63 763 80.5 772.5 c 128,-1,3
 98 782 98 782 128 785 c 128,-1,4
 158 788 158 788 204 788 c 0,5,6
 256 788 256 788 288.5 785 c 128,-1,7
 321 782 321 782 338.5 772.5 c 128,-1,8
 356 763 356 763 362 744.5 c 128,-1,9
 368 726 368 726 367 696 c 2,10,-1
 358 296 l 2,11,12
 357 254 357 254 362 226 c 128,-1,13
 367 198 367 198 379.5 181.5 c 128,-1,14
 392 165 392 165 411.5 158 c 128,-1,15
 431 151 431 151 460 151 c 256,16,17
 489 151 489 151 509 158 c 128,-1,18
 529 165 529 165 541 181.5 c 128,-1,19
 553 198 553 198 558 226 c 128,-1,20
 563 254 563 254 562 296 c 2,21,-1
 526 1607 l 2,22,23
 525 1633 525 1633 531 1649 c 128,-1,24
 537 1665 537 1665 556.5 1674 c 128,-1,25
 576 1683 576 1683 612 1686.5 c 128,-1,26
 648 1690 648 1690 708 1690 c 0,27,28
 767 1690 767 1690 803 1686.5 c 128,-1,29
 839 1683 839 1683 858.5 1674 c 128,-1,30
 878 1665 878 1665 884.5 1649 c 128,-1,31
 891 1633 891 1633 890 1607 c 2,32,-1
 854 305 l 2,33,34
 852 240 852 240 830 182 c 128,-1,35
 808 124 808 124 761 81 c 128,-1,36
 714 38 714 38 640 13 c 128,-1,37
 566 -12 566 -12 460 -12 c 0,38,39
 355 -12 355 -12 280 12.5 c 128,-1,40
 205 37 205 37 157 80 c 128,-1,41
 109 123 109 123 86 180.5 c 128,-1,42
 63 238 63 238 61 303 c 2,43,-1
 50 696 l 2,0,1
EndSplineSet
EndChar

StartChar: M
Encoding: 77 77 46
Width: 1545
Flags: W
LayerCount: 2
Fore
SplineSet
125 1607 m 2,0,1
 124 1633 124 1633 132 1649 c 128,-1,2
 140 1665 140 1665 160.5 1674 c 128,-1,3
 181 1683 181 1683 216.5 1686.5 c 128,-1,4
 252 1690 252 1690 307 1690 c 0,5,6
 357 1690 357 1690 391 1687.5 c 128,-1,7
 425 1685 425 1685 446.5 1679 c 128,-1,8
 468 1673 468 1673 479.5 1662 c 128,-1,9
 491 1651 491 1651 496 1635 c 2,10,-1
 774 785 l 1,11,-1
 785 785 l 1,12,-1
 1059 1635 l 1,13,14
 1063 1651 1063 1651 1074 1662 c 128,-1,15
 1085 1673 1085 1673 1106 1679 c 128,-1,16
 1127 1685 1127 1685 1159 1687.5 c 128,-1,17
 1191 1690 1191 1690 1238 1690 c 0,18,19
 1297 1690 1297 1690 1333 1686.5 c 128,-1,20
 1369 1683 1369 1683 1389 1674 c 128,-1,21
 1409 1665 1409 1665 1415.5 1649 c 128,-1,22
 1422 1633 1422 1633 1421 1607 c 2,23,-1
 1377 68 l 2,24,25
 1376 45 1376 45 1372 31.5 c 128,-1,26
 1368 18 1368 18 1354.5 11 c 128,-1,27
 1341 4 1341 4 1316 2 c 128,-1,28
 1291 0 1291 0 1248 0 c 0,29,30
 1206 0 1206 0 1180.5 2 c 128,-1,31
 1155 4 1155 4 1142 11 c 128,-1,32
 1129 18 1129 18 1124.5 31.5 c 128,-1,33
 1120 45 1120 45 1120 68 c 2,34,-1
 1127 1145 l 1,35,-1
 1114 1145 l 1,36,-1
 884 346 l 2,37,38
 878 327 878 327 871.5 315 c 128,-1,39
 865 303 865 303 853 296.5 c 128,-1,40
 841 290 841 290 820.5 288 c 128,-1,41
 800 286 800 286 766 286 c 0,42,43
 736 286 736 286 718 288.5 c 128,-1,44
 700 291 700 291 689.5 297.5 c 128,-1,45
 679 304 679 304 673 315.5 c 128,-1,46
 667 327 667 327 661 346 c 2,47,-1
 434 1145 l 1,48,-1
 421 1145 l 1,49,-1
 426 68 l 2,50,51
 426 45 426 45 421.5 31.5 c 128,-1,52
 417 18 417 18 403.5 11 c 128,-1,53
 390 4 390 4 365 2 c 128,-1,54
 340 0 340 0 297 0 c 256,55,56
 254 0 254 0 229 2 c 128,-1,57
 204 4 204 4 190.5 11 c 128,-1,58
 177 18 177 18 173 31.5 c 128,-1,59
 169 45 169 45 168 68 c 2,60,-1
 125 1607 l 2,0,1
EndSplineSet
EndChar

StartChar: K
Encoding: 75 75 47
Width: 1100
Flags: W
LayerCount: 2
Fore
SplineSet
528 719 m 1,0,-1
 711 1600 l 2,1,2
 718 1629 718 1629 727.5 1646.5 c 128,-1,3
 737 1664 737 1664 756.5 1674 c 128,-1,4
 776 1684 776 1684 808.5 1687 c 128,-1,5
 841 1690 841 1690 894 1690 c 0,6,7
 981 1690 981 1690 1023.5 1679.5 c 128,-1,8
 1066 1669 1066 1669 1066 1632 c 0,9,10
 1066 1619 1066 1619 1065 1609 c 128,-1,11
 1064 1599 1064 1599 1061.5 1589 c 128,-1,12
 1059 1579 1059 1579 1056 1568.5 c 128,-1,13
 1053 1558 1053 1558 1049 1545 c 2,14,-1
 804 719 l 1,15,-1
 1031 142 l 2,16,17
 1045 106 1045 106 1052.5 83.5 c 128,-1,18
 1060 61 1060 61 1060 45 c 0,19,20
 1060 33 1060 33 1056 24.5 c 128,-1,21
 1052 16 1052 16 1038.5 10.5 c 128,-1,22
 1025 5 1025 5 1000 2.5 c 128,-1,23
 975 0 975 0 934 0 c 0,24,25
 899 0 899 0 877.5 3.5 c 128,-1,26
 856 7 856 7 842.5 16 c 128,-1,27
 829 25 829 25 819.5 40.5 c 128,-1,28
 810 56 810 56 800 80 c 2,29,-1
 528 719 l 1,0,-1
125 1607 m 2,30,31
 124 1633 124 1633 130 1649 c 128,-1,32
 136 1665 136 1665 155.5 1674 c 128,-1,33
 175 1683 175 1683 211 1686.5 c 128,-1,34
 247 1690 247 1690 307 1690 c 0,35,36
 366 1690 366 1690 402 1686.5 c 128,-1,37
 438 1683 438 1683 457.5 1674 c 128,-1,38
 477 1665 477 1665 483.5 1649 c 128,-1,39
 490 1633 490 1633 489 1607 c 2,40,-1
 445 68 l 2,41,42
 445 45 445 45 440.5 31.5 c 128,-1,43
 436 18 436 18 421.5 11 c 128,-1,44
 407 4 407 4 380 2 c 128,-1,45
 353 0 353 0 307 0 c 256,46,47
 261 0 261 0 233.5 2 c 128,-1,48
 206 4 206 4 192 11 c 128,-1,49
 178 18 178 18 173.5 31.5 c 128,-1,50
 169 45 169 45 168 68 c 2,51,-1
 125 1607 l 2,30,31
EndSplineSet
EndChar

StartChar: R
Encoding: 82 82 48
Width: 1140
Flags: W
LayerCount: 2
Fore
SplineSet
125 1607 m 2,0,1
 124 1633 124 1633 130 1649 c 128,-1,2
 136 1665 136 1665 155.5 1674 c 128,-1,3
 175 1683 175 1683 211 1686.5 c 128,-1,4
 247 1690 247 1690 307 1690 c 2,5,-1
 332 1690 l 1,6,-1
 560 1690 l 2,7,8
 663 1690 663 1690 751.5 1671.5 c 128,-1,9
 840 1653 840 1653 905 1613.5 c 128,-1,10
 970 1574 970 1574 1006.5 1512.5 c 128,-1,11
 1043 1451 1043 1451 1040 1364 c 2,12,-1
 1027 889 l 2,13,14
 1026 851 1026 851 1015.5 812 c 128,-1,15
 1005 773 1005 773 983 737.5 c 128,-1,16
 961 702 961 702 926.5 671 c 128,-1,17
 892 640 892 640 842 617 c 1,18,-1
 1029 142 l 2,19,20
 1043 106 1043 106 1050.5 83.5 c 128,-1,21
 1058 61 1058 61 1058 45 c 0,22,23
 1058 33 1058 33 1054 24.5 c 128,-1,24
 1050 16 1050 16 1036.5 10.5 c 128,-1,25
 1023 5 1023 5 998 2.5 c 128,-1,26
 973 0 973 0 932 0 c 0,27,28
 892 0 892 0 867.5 3.5 c 128,-1,29
 843 7 843 7 827 16 c 128,-1,30
 811 25 811 25 800.5 40.5 c 128,-1,31
 790 56 790 56 778 80 c 1,32,-1
 569 570 l 1,33,-1
 459 570 l 1,34,-1
 445 68 l 2,35,36
 445 45 445 45 440.5 31.5 c 128,-1,37
 436 18 436 18 421.5 11 c 128,-1,38
 407 4 407 4 380 2 c 128,-1,39
 353 0 353 0 307 0 c 256,40,41
 261 0 261 0 233.5 2 c 128,-1,42
 206 4 206 4 192 11 c 128,-1,43
 178 18 178 18 173.5 31.5 c 128,-1,44
 169 45 169 45 168 68 c 2,45,-1
 125 1607 l 2,0,1
539 733 m 2,46,47
 587 733 587 733 619 740.5 c 128,-1,48
 651 748 651 748 669.5 765 c 128,-1,49
 688 782 688 782 695.5 810.5 c 128,-1,50
 703 839 703 839 702 881 c 2,51,-1
 688 1396 l 2,52,53
 687 1435 687 1435 680 1458.5 c 128,-1,54
 673 1482 673 1482 655 1495 c 128,-1,55
 637 1508 637 1508 606.5 1512.5 c 128,-1,56
 576 1517 576 1517 528 1517 c 2,57,-1
 486 1517 l 1,58,-1
 464 733 l 1,59,-1
 539 733 l 2,46,47
EndSplineSet
EndChar

StartChar: B
Encoding: 66 66 49
Width: 1140
Flags: W
LayerCount: 2
Fore
SplineSet
125 1607 m 2,0,1
 124 1633 124 1633 130 1649 c 128,-1,2
 136 1665 136 1665 155.5 1674 c 128,-1,3
 175 1683 175 1683 211 1686.5 c 128,-1,4
 247 1690 247 1690 307 1690 c 2,5,-1
 332 1690 l 1,6,-1
 560 1690 l 2,7,8
 663 1690 663 1690 751.5 1671.5 c 128,-1,9
 840 1653 840 1653 905 1613.5 c 128,-1,10
 970 1574 970 1574 1006 1512.5 c 128,-1,11
 1042 1451 1042 1451 1040 1364 c 2,12,-1
 1034 1087 l 2,13,14
 1033 1045 1033 1045 1020.5 1000.5 c 128,-1,15
 1008 956 1008 956 981.5 915.5 c 128,-1,16
 955 875 955 875 912.5 841 c 128,-1,17
 870 807 870 807 809 784 c 1,18,19
 907 745 907 745 964.5 672.5 c 128,-1,20
 1022 600 1022 600 1018 494 c 2,21,-1
 1012 317 l 2,22,23
 1010 260 1010 260 987.5 203.5 c 128,-1,24
 965 147 965 147 913.5 101.5 c 128,-1,25
 862 56 862 56 777.5 28 c 128,-1,26
 693 0 693 0 568 0 c 2,27,-1
 325 0 l 1,28,-1
 307 0 l 2,29,30
 261 0 261 0 233.5 2 c 128,-1,31
 206 4 206 4 192 11 c 128,-1,32
 178 18 178 18 173.5 31.5 c 128,-1,33
 169 45 169 45 168 68 c 2,34,-1
 125 1607 l 2,0,1
539 872 m 2,35,36
 587 872 587 872 619 879 c 128,-1,37
 651 886 651 886 669.5 903.5 c 128,-1,38
 688 921 688 921 695.5 949 c 128,-1,39
 703 977 703 977 702 1019 c 2,40,-1
 688 1396 l 2,41,42
 687 1435 687 1435 680 1458.5 c 128,-1,43
 673 1482 673 1482 655 1495 c 128,-1,44
 637 1508 637 1508 606.5 1512.5 c 128,-1,45
 576 1517 576 1517 528 1517 c 2,46,-1
 486 1517 l 1,47,-1
 468 872 l 1,48,-1
 539 872 l 2,35,36
554 163 m 2,49,50
 602 163 602 163 634.5 170.5 c 128,-1,51
 667 178 667 178 686 195 c 128,-1,52
 705 212 705 212 712.5 240.5 c 128,-1,53
 720 269 720 269 718 311 c 1,54,-1
 712 571 l 1,55,56
 710 610 710 610 701.5 634.5 c 128,-1,57
 693 659 693 659 674 673 c 128,-1,58
 655 687 655 687 623.5 692 c 128,-1,59
 592 697 592 697 544 697 c 2,60,-1
 463 697 l 1,61,-1
 447 163 l 1,62,-1
 554 163 l 2,49,50
EndSplineSet
EndChar

StartChar: Q
Encoding: 81 81 50
Width: 1208
Flags: W
LayerCount: 2
Fore
SplineSet
120 1365 m 2,0,1
 118 1440 118 1440 145 1502 c 128,-1,2
 172 1564 172 1564 230.5 1608 c 128,-1,3
 289 1652 289 1652 381.5 1676.5 c 128,-1,4
 474 1701 474 1701 604 1701 c 0,5,6
 733 1701 733 1701 825.5 1676.5 c 128,-1,7
 918 1652 918 1652 977 1608 c 128,-1,8
 1036 1564 1036 1564 1063 1502 c 128,-1,9
 1090 1440 1090 1440 1088 1365 c 2,10,-1
 1059 305 l 2,11,12
 1057 222 1057 222 1015 152.5 c 128,-1,13
 973 83 973 83 883 40 c 1,14,-1
 1006 -144 l 2,15,16
 1030 -179 1030 -179 1045 -202.5 c 128,-1,17
 1060 -226 1060 -226 1060 -241 c 0,18,19
 1060 -253 1060 -253 1056.5 -261.5 c 128,-1,20
 1053 -270 1053 -270 1040.5 -275.5 c 128,-1,21
 1028 -281 1028 -281 1004 -283.5 c 128,-1,22
 980 -286 980 -286 939 -286 c 0,23,24
 900 -286 900 -286 877.5 -283.5 c 128,-1,25
 855 -281 855 -281 840 -273 c 128,-1,26
 825 -265 825 -265 813 -250.5 c 128,-1,27
 801 -236 801 -236 783 -212 c 2,28,-1
 636 -11 l 1,29,30
 628 -12 628 -12 620 -12 c 128,-1,31
 612 -12 612 -12 604 -12 c 0,32,33
 483 -12 483 -12 397 13 c 128,-1,34
 311 38 311 38 256.5 81 c 128,-1,35
 202 124 202 124 176 182 c 128,-1,36
 150 240 150 240 148 305 c 2,37,-1
 120 1365 l 2,0,1
443 296 m 2,38,39
 442 254 442 254 450.5 226 c 128,-1,40
 459 198 459 198 478.5 181.5 c 128,-1,41
 498 165 498 165 529 158 c 128,-1,42
 560 151 560 151 604 151 c 256,43,44
 648 151 648 151 679 158 c 128,-1,45
 710 165 710 165 729.5 181.5 c 128,-1,46
 749 198 749 198 757.5 226 c 128,-1,47
 766 254 766 254 765 296 c 2,48,-1
 736 1396 l 2,49,50
 735 1440 735 1440 726 1466 c 128,-1,51
 717 1492 717 1492 700.5 1506 c 128,-1,52
 684 1520 684 1520 660 1524.5 c 128,-1,53
 636 1529 636 1529 604 1529 c 256,54,55
 572 1529 572 1529 548 1524.5 c 128,-1,56
 524 1520 524 1520 507.5 1506 c 128,-1,57
 491 1492 491 1492 482 1466 c 128,-1,58
 473 1440 473 1440 472 1396 c 2,59,-1
 443 296 l 2,38,39
EndSplineSet
EndChar

StartChar: V
Encoding: 86 86 51
Width: 1121
Flags: W
LayerCount: 2
Fore
SplineSet
34 1607 m 2,0,1
 28 1632 28 1632 33.5 1648 c 128,-1,2
 39 1664 39 1664 58.5 1673.5 c 128,-1,3
 78 1683 78 1683 114 1686.5 c 128,-1,4
 150 1690 150 1690 206 1690 c 0,5,6
 269 1690 269 1690 305.5 1686.5 c 128,-1,7
 342 1683 342 1683 361.5 1674 c 128,-1,8
 381 1665 381 1665 388 1648.5 c 128,-1,9
 395 1632 395 1632 398 1607 c 2,10,-1
 552 399 l 1,11,-1
 584 399 l 1,12,-1
 734 1607 l 2,13,14
 737 1632 737 1632 743.5 1648.5 c 128,-1,15
 750 1665 750 1665 768.5 1674 c 128,-1,16
 787 1683 787 1683 821.5 1686.5 c 128,-1,17
 856 1690 856 1690 916 1690 c 0,18,19
 972 1690 972 1690 1008 1686.5 c 128,-1,20
 1044 1683 1044 1683 1063.5 1673.5 c 128,-1,21
 1083 1664 1083 1664 1088 1648 c 128,-1,22
 1093 1632 1093 1632 1088 1607 c 2,23,-1
 755 68 l 1,24,25
 749 46 749 46 739.5 32.5 c 128,-1,26
 730 19 730 19 710 12 c 128,-1,27
 690 5 690 5 656.5 2.5 c 128,-1,28
 623 0 623 0 570 0 c 0,29,30
 514 0 514 0 479 2.5 c 128,-1,31
 444 5 444 5 423 12 c 128,-1,32
 402 19 402 19 391.5 32.5 c 128,-1,33
 381 46 381 46 375 68 c 1,34,-1
 34 1607 l 2,0,1
EndSplineSet
EndChar

StartChar: W
Encoding: 87 87 52
Width: 1764
Flags: W
LayerCount: 2
Fore
SplineSet
53 1607 m 1,0,1
 47 1632 47 1632 53 1648 c 128,-1,2
 59 1664 59 1664 80.5 1673.5 c 128,-1,3
 102 1683 102 1683 142.5 1686.5 c 128,-1,4
 183 1690 183 1690 246 1690 c 256,5,6
 309 1690 309 1690 346 1686.5 c 128,-1,7
 383 1683 383 1683 403.5 1674 c 128,-1,8
 424 1665 424 1665 430.5 1649 c 128,-1,9
 437 1633 437 1633 438 1607 c 2,10,-1
 501 287 l 1,11,-1
 531 287 l 1,12,-1
 726 1607 l 2,13,14
 729 1632 729 1632 735 1648.5 c 128,-1,15
 741 1665 741 1665 757.5 1674 c 128,-1,16
 774 1683 774 1683 804.5 1686.5 c 128,-1,17
 835 1690 835 1690 888 1690 c 0,18,19
 944 1690 944 1690 976.5 1686.5 c 128,-1,20
 1009 1683 1009 1683 1026 1674 c 128,-1,21
 1043 1665 1043 1665 1049.5 1648.5 c 128,-1,22
 1056 1632 1056 1632 1060 1607 c 2,23,-1
 1256 287 l 1,24,-1
 1286 287 l 1,25,-1
 1348 1607 l 2,26,27
 1349 1632 1349 1632 1355.5 1648.5 c 128,-1,28
 1362 1665 1362 1665 1381 1674 c 128,-1,29
 1400 1683 1400 1683 1435.5 1686.5 c 128,-1,30
 1471 1690 1471 1690 1531 1690 c 0,31,32
 1590 1690 1590 1690 1627.5 1686.5 c 128,-1,33
 1665 1683 1665 1683 1685 1674 c 128,-1,34
 1705 1665 1705 1665 1711 1648.5 c 128,-1,35
 1717 1632 1717 1632 1713 1607 c 2,36,-1
 1448 68 l 1,37,38
 1443 46 1443 46 1435 32.5 c 128,-1,39
 1427 19 1427 19 1410 12 c 128,-1,40
 1393 5 1393 5 1365 2.5 c 128,-1,41
 1337 0 1337 0 1293 0 c 0,42,43
 1234 0 1234 0 1197 2 c 128,-1,44
 1160 4 1160 4 1137.5 11.5 c 128,-1,45
 1115 19 1115 19 1104.5 32 c 128,-1,46
 1094 45 1094 45 1088 68 c 1,47,-1
 898 1192 l 1,48,-1
 877 1192 l 1,49,-1
 688 68 l 1,50,51
 683 45 683 45 673 32 c 128,-1,52
 663 19 663 19 641.5 11.5 c 128,-1,53
 620 4 620 4 584.5 2 c 128,-1,54
 549 0 549 0 493 0 c 0,55,56
 443 0 443 0 411.5 2.5 c 128,-1,57
 380 5 380 5 361 12 c 128,-1,58
 342 19 342 19 333 32.5 c 128,-1,59
 324 46 324 46 318 68 c 1,60,-1
 53 1607 l 1,0,1
EndSplineSet
EndChar

StartChar: X
Encoding: 88 88 53
Width: 1124
Flags: W
LayerCount: 2
Fore
SplineSet
92 53 m 0,0,1
 92 68 92 68 97.5 87 c 128,-1,2
 103 106 103 106 114 142 c 2,3,-1
 321 790 l 1,4,-1
 51 1545 l 2,5,6
 42 1573 42 1573 36 1592.5 c 128,-1,7
 30 1612 30 1612 30 1632 c 0,8,9
 30 1651 30 1651 38 1662.5 c 128,-1,10
 46 1674 46 1674 67 1680 c 128,-1,11
 88 1686 88 1686 124 1688 c 128,-1,12
 160 1690 160 1690 215 1690 c 256,13,14
 270 1690 270 1690 303 1688 c 128,-1,15
 336 1686 336 1686 355.5 1677.5 c 128,-1,16
 375 1669 375 1669 384 1651.5 c 128,-1,17
 393 1634 393 1634 400 1602 c 2,18,-1
 552 916 l 1,19,-1
 572 916 l 1,20,-1
 723 1602 l 2,21,22
 730 1634 730 1634 739 1651.5 c 128,-1,23
 748 1669 748 1669 767 1677.5 c 128,-1,24
 786 1686 786 1686 819 1688 c 128,-1,25
 852 1690 852 1690 908 1690 c 0,26,27
 963 1690 963 1690 999 1688 c 128,-1,28
 1035 1686 1035 1686 1056 1680 c 128,-1,29
 1077 1674 1077 1674 1085.5 1662.5 c 128,-1,30
 1094 1651 1094 1651 1094 1632 c 0,31,32
 1094 1612 1094 1612 1087.5 1593 c 128,-1,33
 1081 1574 1081 1574 1071 1545 c 2,34,-1
 806 790 l 1,35,-1
 1013 142 l 2,36,37
 1024 105 1024 105 1029.5 86.5 c 128,-1,38
 1035 68 1035 68 1035 53 c 0,39,40
 1035 41 1035 41 1031 31 c 128,-1,41
 1027 21 1027 21 1014.5 14.5 c 128,-1,42
 1002 8 1002 8 979 4 c 128,-1,43
 956 0 956 0 918 0 c 0,44,45
 878 0 878 0 852 3 c 128,-1,46
 826 6 826 6 809.5 15 c 128,-1,47
 793 24 793 24 783 39.5 c 128,-1,48
 773 55 773 55 764 80 c 2,49,-1
 573 632 l 1,50,-1
 553 632 l 1,51,-1
 362 80 l 2,52,53
 353 55 353 55 343 39.5 c 128,-1,54
 333 24 333 24 316.5 15 c 128,-1,55
 300 6 300 6 274.5 3 c 128,-1,56
 249 0 249 0 209 0 c 0,57,58
 171 0 171 0 148 4 c 128,-1,59
 125 8 125 8 112.5 14.5 c 128,-1,60
 100 21 100 21 96 31 c 128,-1,61
 92 41 92 41 92 53 c 0,0,1
EndSplineSet
EndChar

StartChar: Y
Encoding: 89 89 54
Width: 1124
Flags: W
LayerCount: 2
Fore
SplineSet
411 527 m 1,0,-1
 51 1541 l 2,1,2
 42 1568 42 1568 36 1590 c 128,-1,3
 30 1612 30 1612 30 1632 c 0,4,5
 30 1651 30 1651 38 1662.5 c 128,-1,6
 46 1674 46 1674 67 1680 c 128,-1,7
 88 1686 88 1686 124 1688 c 128,-1,8
 160 1690 160 1690 215 1690 c 256,9,10
 270 1690 270 1690 303.5 1688 c 128,-1,11
 337 1686 337 1686 356.5 1677.5 c 128,-1,12
 376 1669 376 1669 385 1651.5 c 128,-1,13
 394 1634 394 1634 400 1602 c 2,14,-1
 551 820 l 1,15,-1
 573 820 l 1,16,-1
 723 1602 l 2,17,18
 729 1634 729 1634 738 1652 c 128,-1,19
 747 1670 747 1670 766 1678.5 c 128,-1,20
 785 1687 785 1687 818.5 1688.5 c 128,-1,21
 852 1690 852 1690 908 1690 c 0,22,23
 963 1690 963 1690 999 1688 c 128,-1,24
 1035 1686 1035 1686 1056 1680 c 128,-1,25
 1077 1674 1077 1674 1085.5 1662.5 c 128,-1,26
 1094 1651 1094 1651 1094 1632 c 0,27,28
 1094 1612 1094 1612 1087 1590.5 c 128,-1,29
 1080 1569 1080 1569 1071 1541 c 2,30,-1
 714 520 l 1,31,-1
 701 68 l 2,32,33
 700 45 700 45 695.5 31.5 c 128,-1,34
 691 18 691 18 677 11 c 128,-1,35
 663 4 663 4 635.5 2 c 128,-1,36
 608 0 608 0 562 0 c 256,37,38
 516 0 516 0 489 2 c 128,-1,39
 462 4 462 4 448 11 c 128,-1,40
 434 18 434 18 429.5 31.5 c 128,-1,41
 425 45 425 45 424 68 c 2,42,-1
 411 527 l 1,0,-1
EndSplineSet
EndChar

StartChar: Z
Encoding: 90 90 55
Width: 994
Flags: W
LayerCount: 2
Fore
SplineSet
102 98 m 0,0,1
 102 126 102 126 103 144 c 128,-1,2
 104 162 104 162 109 173 c 1,3,-1
 550 1494 l 1,4,-1
 131 1494 l 2,5,6
 105 1494 105 1494 90.5 1498 c 128,-1,7
 76 1502 76 1502 69 1512.5 c 128,-1,8
 62 1523 62 1523 60.5 1542.5 c 128,-1,9
 59 1562 59 1562 59 1592 c 256,10,11
 59 1622 59 1622 60.5 1641 c 128,-1,12
 62 1660 62 1660 69 1671 c 128,-1,13
 76 1682 76 1682 90.5 1686 c 128,-1,14
 105 1690 105 1690 131 1690 c 2,15,-1
 730 1690 l 1,16,-1
 750 1690 l 1,17,-1
 863 1690 l 2,18,19
 889 1690 889 1690 903.5 1686 c 128,-1,20
 918 1682 918 1682 925 1671 c 128,-1,21
 932 1660 932 1660 933.5 1641 c 128,-1,22
 935 1622 935 1622 935 1592 c 0,23,24
 935 1563 935 1563 934 1544.5 c 128,-1,25
 933 1526 933 1526 927 1515 c 1,26,-1
 418 196 l 1,27,-1
 820 196 l 2,28,29
 846 196 846 196 860.5 192 c 128,-1,30
 875 188 875 188 881.5 177 c 128,-1,31
 888 166 888 166 889.5 147 c 128,-1,32
 891 128 891 128 891 98 c 256,33,34
 891 68 891 68 889.5 49 c 128,-1,35
 888 30 888 30 881.5 19 c 128,-1,36
 875 8 875 8 860.5 4 c 128,-1,37
 846 0 846 0 820 0 c 2,38,-1
 263 0 l 1,39,-1
 247 0 l 1,40,-1
 173 0 l 2,41,42
 147 0 147 0 132.5 4 c 128,-1,43
 118 8 118 8 111.5 19 c 128,-1,44
 105 30 105 30 103.5 49 c 128,-1,45
 102 68 102 68 102 98 c 0,0,1
EndSplineSet
EndChar

StartChar: v
Encoding: 118 118 56
Width: 958
Flags: W
LayerCount: 2
Fore
SplineSet
24 1129 m 2,0,1
 18 1150 18 1150 22.5 1164 c 128,-1,2
 27 1178 27 1178 45 1186.5 c 128,-1,3
 63 1195 63 1195 97.5 1198.5 c 128,-1,4
 132 1202 132 1202 186 1202 c 256,5,6
 240 1202 240 1202 271 1198.5 c 128,-1,7
 302 1195 302 1195 318 1187 c 128,-1,8
 334 1179 334 1179 339.5 1164.5 c 128,-1,9
 345 1150 345 1150 348 1129 c 2,10,-1
 467 240 l 1,11,-1
 491 240 l 1,12,-1
 610 1129 l 2,13,14
 613 1150 613 1150 618.5 1164.5 c 128,-1,15
 624 1179 624 1179 640 1187 c 128,-1,16
 656 1195 656 1195 687 1198.5 c 128,-1,17
 718 1202 718 1202 772 1202 c 256,18,19
 826 1202 826 1202 860.5 1198.5 c 128,-1,20
 895 1195 895 1195 913 1186.5 c 128,-1,21
 931 1178 931 1178 935.5 1164 c 128,-1,22
 940 1150 940 1150 934 1129 c 2,23,-1
 662 57 l 2,24,25
 657 39 657 39 651 28 c 128,-1,26
 645 17 645 17 631.5 10.5 c 128,-1,27
 618 4 618 4 594.5 2 c 128,-1,28
 571 0 571 0 532 0 c 2,29,-1
 426 0 l 2,30,31
 387 0 387 0 363.5 2 c 128,-1,32
 340 4 340 4 326.5 10.5 c 128,-1,33
 313 17 313 17 307 28 c 128,-1,34
 301 39 301 39 296 57 c 2,35,-1
 24 1129 l 2,0,1
EndSplineSet
EndChar

StartChar: w
Encoding: 119 119 57
Width: 1509
Flags: W
LayerCount: 2
Fore
SplineSet
34 1129 m 1,0,1
 29 1150 29 1150 33 1164 c 128,-1,2
 37 1178 37 1178 54 1186.5 c 128,-1,3
 71 1195 71 1195 103 1198.5 c 128,-1,4
 135 1202 135 1202 186 1202 c 0,5,6
 240 1202 240 1202 271.5 1198.5 c 128,-1,7
 303 1195 303 1195 319.5 1187 c 128,-1,8
 336 1179 336 1179 341 1165 c 128,-1,9
 346 1151 346 1151 348 1129 c 2,10,-1
 413 240 l 1,11,-1
 437 240 l 1,12,-1
 588 1129 l 2,13,14
 592 1150 592 1150 599.5 1164.5 c 128,-1,15
 607 1179 607 1179 624 1187 c 128,-1,16
 641 1195 641 1195 672 1198.5 c 128,-1,17
 703 1202 703 1202 754 1202 c 0,18,19
 808 1202 808 1202 840 1198.5 c 128,-1,20
 872 1195 872 1195 889.5 1187 c 128,-1,21
 907 1179 907 1179 914 1164.5 c 128,-1,22
 921 1150 921 1150 926 1129 c 1,23,-1
 1077 240 l 1,24,-1
 1101 240 l 1,25,-1
 1166 1129 l 2,26,27
 1167 1150 1167 1150 1173 1164.5 c 128,-1,28
 1179 1179 1179 1179 1195.5 1187 c 128,-1,29
 1212 1195 1212 1195 1242.5 1198.5 c 128,-1,30
 1273 1202 1273 1202 1324 1202 c 256,31,32
 1375 1202 1375 1202 1407 1198.5 c 128,-1,33
 1439 1195 1439 1195 1455.5 1186.5 c 128,-1,34
 1472 1178 1472 1178 1476 1164 c 128,-1,35
 1480 1150 1480 1150 1476 1129 c 2,36,-1
 1290 57 l 2,37,38
 1286 39 1286 39 1280 27.5 c 128,-1,39
 1274 16 1274 16 1260.5 10 c 128,-1,40
 1247 4 1247 4 1223 2 c 128,-1,41
 1199 0 1199 0 1160 0 c 2,42,-1
 1056 0 l 2,43,44
 1017 0 1017 0 993.5 2 c 128,-1,45
 970 4 970 4 956.5 10 c 128,-1,46
 943 16 943 16 936.5 27.5 c 128,-1,47
 930 39 930 39 926 57 c 2,48,-1
 758 868 l 1,49,-1
 749 868 l 1,50,-1
 582 57 l 1,51,52
 577 39 577 39 571 28 c 128,-1,53
 565 17 565 17 551.5 10.5 c 128,-1,54
 538 4 538 4 514.5 2 c 128,-1,55
 491 0 491 0 452 0 c 2,56,-1
 350 0 l 2,57,58
 311 0 311 0 287.5 2 c 128,-1,59
 264 4 264 4 250.5 10.5 c 128,-1,60
 237 17 237 17 231 28 c 128,-1,61
 225 39 225 39 220 57 c 1,62,-1
 34 1129 l 1,0,1
EndSplineSet
EndChar

StartChar: comma
Encoding: 44 44 58
Width: 619
Flags: W
LayerCount: 2
Fore
SplineSet
136 252 m 1,0,1
 134 273 134 273 139.5 287.5 c 128,-1,2
 145 302 145 302 164.5 310 c 128,-1,3
 184 318 184 318 220.5 321.5 c 128,-1,4
 257 325 257 325 318 325 c 0,5,6
 376 325 376 325 410 321.5 c 128,-1,7
 444 318 444 318 462 310 c 128,-1,8
 480 302 480 302 485.5 287.5 c 128,-1,9
 491 273 491 273 490 252 c 2,10,-1
 482 89 l 2,11,12
 481 73 481 73 480 61.5 c 128,-1,13
 479 50 479 50 477 40.5 c 128,-1,14
 475 31 475 31 471.5 21.5 c 128,-1,15
 468 12 468 12 464 0 c 2,16,-1
 377 -237 l 2,17,18
 367 -263 367 -263 359 -278 c 128,-1,19
 351 -293 351 -293 340.5 -300.5 c 128,-1,20
 330 -308 330 -308 315 -310.5 c 128,-1,21
 300 -313 300 -313 276 -313 c 0,22,23
 237 -313 237 -313 216.5 -307 c 128,-1,24
 196 -301 196 -301 196 -278 c 0,25,26
 196 -261 196 -261 202 -234.5 c 128,-1,27
 208 -208 208 -208 219 -166 c 2,28,-1
 261 8 l 1,29,-1
 203 8 l 2,30,31
 167 8 167 8 156.5 24 c 128,-1,32
 146 40 146 40 144 65 c 2,33,-1
 136 252 l 1,0,1
EndSplineSet
EndChar

StartChar: zero
Encoding: 48 48 59
Width: 1171
Flags: W
LayerCount: 2
Fore
SplineSet
121 1389 m 2,0,1
 119 1464 119 1464 150.5 1522 c 128,-1,2
 182 1580 182 1580 242 1620 c 128,-1,3
 302 1660 302 1660 389 1680.5 c 128,-1,4
 476 1701 476 1701 585 1701 c 256,5,6
 694 1701 694 1701 781 1680.5 c 128,-1,7
 868 1660 868 1660 928.5 1620 c 128,-1,8
 989 1580 989 1580 1020.5 1522 c 128,-1,9
 1052 1464 1052 1464 1050 1389 c 2,10,-1
 1021 273 l 2,11,12
 1019 208 1019 208 988.5 155.5 c 128,-1,13
 958 103 958 103 901.5 65.5 c 128,-1,14
 845 28 845 28 765 8 c 128,-1,15
 685 -12 685 -12 585 -12 c 0,16,17
 484 -12 484 -12 404.5 8 c 128,-1,18
 325 28 325 28 269 65.5 c 128,-1,19
 213 103 213 103 182.5 155.5 c 128,-1,20
 152 208 152 208 150 273 c 2,21,-1
 121 1389 l 2,0,1
423 312 m 2,22,23
 421 228 421 228 459 193.5 c 128,-1,24
 497 159 497 159 585 159 c 256,25,26
 673 159 673 159 711.5 193.5 c 128,-1,27
 750 228 750 228 748 312 c 2,28,-1
 718 1389 l 2,29,30
 717 1432 717 1432 708 1458.5 c 128,-1,31
 699 1485 699 1485 682.5 1498.5 c 128,-1,32
 666 1512 666 1512 641.5 1516.5 c 128,-1,33
 617 1521 617 1521 585 1521 c 256,34,35
 553 1521 553 1521 528.5 1516.5 c 128,-1,36
 504 1512 504 1512 487.5 1498.5 c 128,-1,37
 471 1485 471 1485 462.5 1458.5 c 128,-1,38
 454 1432 454 1432 453 1389 c 2,39,-1
 423 312 l 2,22,23
EndSplineSet
EndChar

StartChar: one
Encoding: 49 49 60
Width: 684
Flags: W
LayerCount: 2
Fore
SplineSet
244 1278 m 1,0,-1
 236 1278 l 1,1,-1
 98 1143 l 2,2,3
 82 1127 82 1127 66 1118.5 c 128,-1,4
 50 1110 50 1110 39 1110 c 0,5,6
 33 1110 33 1110 26 1112 c 128,-1,7
 19 1114 19 1114 13.5 1120.5 c 128,-1,8
 8 1127 8 1127 4.5 1139 c 128,-1,9
 1 1151 1 1151 1 1172 c 2,10,-1
 1 1344 l 2,11,12
 1 1367 1 1367 3 1384 c 128,-1,13
 5 1401 5 1401 10.5 1414.5 c 128,-1,14
 16 1428 16 1428 24.5 1439.5 c 128,-1,15
 33 1451 33 1451 46 1464 c 2,16,-1
 234 1661 l 1,17,-1
 235 1662 l 1,18,-1
 238 1665 l 2,19,20
 254 1680 254 1680 289.5 1685 c 128,-1,21
 325 1690 325 1690 391 1690 c 0,22,23
 444 1690 444 1690 480.5 1686.5 c 128,-1,24
 517 1683 517 1683 539.5 1674 c 128,-1,25
 562 1665 562 1665 571.5 1649 c 128,-1,26
 581 1633 581 1633 580 1607 c 2,27,-1
 536 68 l 2,28,29
 535 45 535 45 527.5 31.5 c 128,-1,30
 520 18 520 18 502.5 11 c 128,-1,31
 485 4 485 4 458 2 c 128,-1,32
 431 0 431 0 391 0 c 256,33,34
 351 0 351 0 327 2 c 128,-1,35
 303 4 303 4 289.5 11 c 128,-1,36
 276 18 276 18 271 31.5 c 128,-1,37
 266 45 266 45 266 68 c 2,38,-1
 244 1278 l 1,0,-1
EndSplineSet
EndChar

StartChar: two
Encoding: 50 50 61
Width: 1170
Flags: W
LayerCount: 2
Fore
SplineSet
156 97 m 2,0,1
 156 132 156 132 163.5 153.5 c 128,-1,2
 171 175 171 175 188 194 c 1,3,-1
 648 813 l 1,4,5
 670 840 670 840 686 862 c 128,-1,6
 702 884 702 884 711.5 908 c 128,-1,7
 721 932 721 932 725 960 c 128,-1,8
 729 988 729 988 728 1027 c 2,9,-1
 717 1389 l 2,10,11
 716 1432 716 1432 707 1458.5 c 128,-1,12
 698 1485 698 1485 681.5 1498.5 c 128,-1,13
 665 1512 665 1512 640.5 1516.5 c 128,-1,14
 616 1521 616 1521 584 1521 c 256,15,16
 552 1521 552 1521 527.5 1516.5 c 128,-1,17
 503 1512 503 1512 486.5 1498.5 c 128,-1,18
 470 1485 470 1485 461.5 1458.5 c 128,-1,19
 453 1432 453 1432 452 1389 c 2,20,-1
 440 965 l 2,21,22
 439 935 439 935 431 916.5 c 128,-1,23
 423 898 423 898 405 888.5 c 128,-1,24
 387 879 387 879 357 876 c 128,-1,25
 327 873 327 873 283 873 c 256,26,27
 239 873 239 873 210 876 c 128,-1,28
 181 879 181 879 164 888.5 c 128,-1,29
 147 898 147 898 139.5 916.5 c 128,-1,30
 132 935 132 935 131 965 c 1,31,-1
 101 1381 l 1,32,33
 99 1456 99 1456 130.5 1515.5 c 128,-1,34
 162 1575 162 1575 224 1616 c 128,-1,35
 286 1657 286 1657 376.5 1679 c 128,-1,36
 467 1701 467 1701 584 1701 c 0,37,38
 698 1701 698 1701 787 1679 c 128,-1,39
 876 1657 876 1657 937 1616 c 128,-1,40
 998 1575 998 1575 1029.5 1515.5 c 128,-1,41
 1061 1456 1061 1456 1059 1381 c 1,42,-1
 1037 955 l 2,43,44
 1036 921 1036 921 1029.5 891.5 c 128,-1,45
 1023 862 1023 862 1009.5 834 c 128,-1,46
 996 806 996 806 975 778 c 128,-1,47
 954 750 954 750 925 720 c 1,48,-1
 468 194 l 1,49,-1
 468 186 l 1,50,-1
 949 186 l 2,51,52
 975 186 975 186 989.5 180 c 128,-1,53
 1004 174 1004 174 1011 162.5 c 128,-1,54
 1018 151 1018 151 1019.5 135.5 c 128,-1,55
 1021 120 1021 120 1021 101 c 0,56,57
 1021 73 1021 73 1019.5 54 c 128,-1,58
 1018 35 1018 35 1011 23 c 128,-1,59
 1004 11 1004 11 989.5 5.5 c 128,-1,60
 975 0 975 0 949 0 c 2,61,-1
 228 0 l 2,62,63
 206 0 206 0 192 2.5 c 128,-1,64
 178 5 178 5 170 12.5 c 128,-1,65
 162 20 162 20 159 33 c 128,-1,66
 156 46 156 46 156 67 c 2,67,-1
 156 97 l 2,0,1
EndSplineSet
EndChar

StartChar: seven
Encoding: 55 55 62
Width: 1029
Flags: W
LayerCount: 2
Fore
SplineSet
637 1485 m 1,0,-1
 329 1484 l 1,1,-1
 303 1271 l 1,2,3
 303 1252 303 1252 298.5 1241 c 128,-1,4
 294 1230 294 1230 281 1224 c 128,-1,5
 268 1218 268 1218 244.5 1216 c 128,-1,6
 221 1214 221 1214 182 1214 c 0,7,8
 137 1214 137 1214 109.5 1216 c 128,-1,9
 82 1218 82 1218 67 1224 c 128,-1,10
 52 1230 52 1230 47 1241 c 128,-1,11
 42 1252 42 1252 42 1271 c 2,12,-1
 30 1617 l 2,13,14
 30 1638 30 1638 34.5 1651.5 c 128,-1,15
 39 1665 39 1665 54.5 1673.5 c 128,-1,16
 70 1682 70 1682 100.5 1686 c 128,-1,17
 131 1690 131 1690 182 1690 c 2,18,-1
 936 1690 l 2,19,20
 962 1690 962 1690 976.5 1686 c 128,-1,21
 991 1682 991 1682 997.5 1671 c 128,-1,22
 1004 1660 1004 1660 1005.5 1641 c 128,-1,23
 1007 1622 1007 1622 1008 1592 c 0,24,25
 1009 1560 1009 1560 1007 1542 c 128,-1,26
 1005 1524 1005 1524 1003 1516 c 2,27,-1
 487 68 l 1,28,29
 479 49 479 49 471.5 36 c 128,-1,30
 464 23 464 23 451 15 c 128,-1,31
 438 7 438 7 417 3.5 c 128,-1,32
 396 0 396 0 362 0 c 0,33,34
 322 0 322 0 296 2 c 128,-1,35
 270 4 270 4 255 11.5 c 128,-1,36
 240 19 240 19 236 32 c 128,-1,37
 232 45 232 45 237 68 c 1,38,-1
 637 1485 l 1,0,-1
EndSplineSet
EndChar

StartChar: eight
Encoding: 56 56 63
Width: 1176
Flags: W
LayerCount: 2
Fore
SplineSet
145 482 m 2,0,1
 143 535 143 535 155.5 573 c 128,-1,2
 168 611 168 611 193 640.5 c 128,-1,3
 218 670 218 670 256 695 c 128,-1,4
 294 720 294 720 344 749 c 1,5,-1
 344 757 l 1,6,7
 278 785 278 785 237 816.5 c 128,-1,8
 196 848 196 848 173 883 c 128,-1,9
 150 918 150 918 141.5 956.5 c 128,-1,10
 133 995 133 995 132 1036 c 1,11,-1
 111 1407 l 1,12,13
 110 1462 110 1462 130 1505.5 c 128,-1,14
 150 1549 150 1549 185.5 1581.5 c 128,-1,15
 221 1614 221 1614 268 1637 c 128,-1,16
 315 1660 315 1660 368.5 1674 c 128,-1,17
 422 1688 422 1688 478 1694.5 c 128,-1,18
 534 1701 534 1701 587 1701 c 256,19,20
 640 1701 640 1701 696.5 1694.5 c 128,-1,21
 753 1688 753 1688 806.5 1674 c 128,-1,22
 860 1660 860 1660 907.5 1637 c 128,-1,23
 955 1614 955 1614 990.5 1581.5 c 128,-1,24
 1026 1549 1026 1549 1046 1505.5 c 128,-1,25
 1066 1462 1066 1462 1065 1407 c 1,26,-1
 1044 1036 l 1,27,28
 1043 995 1043 995 1034.5 956.5 c 128,-1,29
 1026 918 1026 918 1003 883 c 128,-1,30
 980 848 980 848 939 816.5 c 128,-1,31
 898 785 898 785 832 757 c 1,32,-1
 832 749 l 1,33,34
 882 720 882 720 920 695 c 128,-1,35
 958 670 958 670 983 640.5 c 128,-1,36
 1008 611 1008 611 1020 573 c 128,-1,37
 1032 535 1032 535 1031 482 c 2,38,-1
 1024 278 l 2,39,40
 1022 219 1022 219 1000.5 166.5 c 128,-1,41
 979 114 979 114 928.5 74.5 c 128,-1,42
 878 35 878 35 794.5 11.5 c 128,-1,43
 711 -12 711 -12 587 -12 c 0,44,45
 464 -12 464 -12 381.5 11.5 c 128,-1,46
 299 35 299 35 248.5 74.5 c 128,-1,47
 198 114 198 114 175.5 166.5 c 128,-1,48
 153 219 153 219 152 278 c 1,49,-1
 145 482 l 2,0,1
589 837 m 0,50,51
 666 837 666 837 701 868.5 c 128,-1,52
 736 900 736 900 733 984 c 2,53,-1
 719 1389 l 2,54,55
 717 1428 717 1428 709.5 1453.5 c 128,-1,56
 702 1479 702 1479 686.5 1494.5 c 128,-1,57
 671 1510 671 1510 646.5 1516 c 128,-1,58
 622 1522 622 1522 587 1522 c 0,59,60
 553 1522 553 1522 529 1516 c 128,-1,61
 505 1510 505 1510 489.5 1494.5 c 128,-1,62
 474 1479 474 1479 466 1453.5 c 128,-1,63
 458 1428 458 1428 457 1389 c 2,64,-1
 443 984 l 2,65,66
 441 942 441 942 449 914 c 128,-1,67
 457 886 457 886 475 868.5 c 128,-1,68
 493 851 493 851 521.5 844 c 128,-1,69
 550 837 550 837 589 837 c 0,50,51
423 307 m 2,70,71
 421 227 421 227 461 194 c 128,-1,72
 501 161 501 161 587 161 c 2,73,-1
 589 161 l 2,74,75
 674 161 674 161 714.5 194 c 128,-1,76
 755 227 755 227 753 307 c 2,77,-1
 747 536 l 2,78,79
 746 575 746 575 736 599.5 c 128,-1,80
 726 624 726 624 706.5 637.5 c 128,-1,81
 687 651 687 651 657 656 c 128,-1,82
 627 661 627 661 587 661 c 256,83,84
 547 661 547 661 517.5 656 c 128,-1,85
 488 651 488 651 468.5 637.5 c 128,-1,86
 449 624 449 624 439.5 599.5 c 128,-1,87
 430 575 430 575 429 536 c 2,88,-1
 423 307 l 2,70,71
EndSplineSet
EndChar

StartChar: three
Encoding: 51 51 64
Width: 1176
Flags: W
LayerCount: 2
Fore
SplineSet
148 415 m 2,0,1
 147 445 147 445 152.5 463.5 c 128,-1,2
 158 482 158 482 174 491.5 c 128,-1,3
 190 501 190 501 217 504 c 128,-1,4
 244 507 244 507 287 507 c 0,5,6
 327 507 327 507 354.5 504 c 128,-1,7
 382 501 382 501 398 491.5 c 128,-1,8
 414 482 414 482 420.5 463.5 c 128,-1,9
 427 445 427 445 426 415 c 2,10,-1
 423 307 l 2,11,12
 421 227 421 227 461 194 c 128,-1,13
 501 161 501 161 587 161 c 2,14,-1
 589 161 l 2,15,16
 674 161 674 161 714.5 194 c 128,-1,17
 755 227 755 227 753 307 c 2,18,-1
 747 536 l 2,19,20
 746 575 746 575 736 599.5 c 128,-1,21
 726 624 726 624 706.5 637.5 c 128,-1,22
 687 651 687 651 657 656 c 128,-1,23
 627 661 627 661 587 661 c 2,24,-1
 531 661 l 2,25,26
 505 661 505 661 490.5 666 c 128,-1,27
 476 671 476 671 469 681.5 c 128,-1,28
 462 692 462 692 460.5 709 c 128,-1,29
 459 726 459 726 459 750 c 256,30,31
 459 774 459 774 460.5 791 c 128,-1,32
 462 808 462 808 469 818.5 c 128,-1,33
 476 829 476 829 490.5 833.5 c 128,-1,34
 505 838 505 838 532 838 c 2,35,-1
 589 838 l 2,36,37
 628 838 628 838 655.5 845 c 128,-1,38
 683 852 683 852 701 869 c 128,-1,39
 719 886 719 886 726.5 914 c 128,-1,40
 734 942 734 942 733 984 c 2,41,-1
 719 1389 l 2,42,43
 717 1428 717 1428 709.5 1453.5 c 128,-1,44
 702 1479 702 1479 686.5 1494.5 c 128,-1,45
 671 1510 671 1510 646.5 1516 c 128,-1,46
 622 1522 622 1522 587 1522 c 0,47,48
 553 1522 553 1522 529 1516 c 128,-1,49
 505 1510 505 1510 489 1494.5 c 128,-1,50
 473 1479 473 1479 465.5 1453.5 c 128,-1,51
 458 1428 458 1428 457 1389 c 2,52,-1
 444 1044 l 2,53,54
 443 1013 443 1013 435 995 c 128,-1,55
 427 977 427 977 409 967.5 c 128,-1,56
 391 958 391 958 361 955 c 128,-1,57
 331 952 331 952 287 952 c 256,58,59
 243 952 243 952 214 955 c 128,-1,60
 185 958 185 958 168 967.5 c 128,-1,61
 151 977 151 977 143.5 995 c 128,-1,62
 136 1013 136 1013 135 1044 c 2,63,-1
 113 1407 l 1,64,65
 112 1462 112 1462 132 1505.5 c 128,-1,66
 152 1549 152 1549 187.5 1581.5 c 128,-1,67
 223 1614 223 1614 270.5 1637 c 128,-1,68
 318 1660 318 1660 371 1674 c 128,-1,69
 424 1688 424 1688 479.5 1694.5 c 128,-1,70
 535 1701 535 1701 587 1701 c 256,71,72
 639 1701 639 1701 694.5 1694.5 c 128,-1,73
 750 1688 750 1688 803 1674 c 128,-1,74
 856 1660 856 1660 903 1637 c 128,-1,75
 950 1614 950 1614 984.5 1581.5 c 128,-1,76
 1019 1549 1019 1549 1039 1505.5 c 128,-1,77
 1059 1462 1059 1462 1058 1407 c 1,78,-1
 1044 1036 l 2,79,80
 1042 995 1042 995 1033.5 956.5 c 128,-1,81
 1025 918 1025 918 1002 883 c 128,-1,82
 979 848 979 848 938.5 816.5 c 128,-1,83
 898 785 898 785 832 757 c 1,84,-1
 832 749 l 1,85,86
 882 720 882 720 920 695 c 128,-1,87
 958 670 958 670 983 640.5 c 128,-1,88
 1008 611 1008 611 1020 573 c 128,-1,89
 1032 535 1032 535 1031 482 c 2,90,-1
 1024 278 l 2,91,92
 1022 219 1022 219 1000.5 166.5 c 128,-1,93
 979 114 979 114 928.5 74.5 c 128,-1,94
 878 35 878 35 794.5 11.5 c 128,-1,95
 711 -12 711 -12 587 -12 c 0,96,97
 464 -12 464 -12 381.5 11.5 c 128,-1,98
 299 35 299 35 248.5 74.5 c 128,-1,99
 198 114 198 114 176 166.5 c 128,-1,100
 154 219 154 219 152 278 c 2,101,-1
 148 415 l 2,0,1
EndSplineSet
EndChar

StartChar: nine
Encoding: 57 57 65
Width: 1166
Flags: W
LayerCount: 2
Fore
SplineSet
211 94 m 0,0,1
 211 124 211 124 214 142 c 128,-1,2
 217 160 217 160 223.5 170 c 128,-1,3
 230 180 230 180 241.5 183 c 128,-1,4
 253 186 253 186 271 186 c 2,5,-1
 560 186 l 2,6,7
 608 186 608 186 641 195 c 128,-1,8
 674 204 674 204 694 224 c 128,-1,9
 714 244 714 244 723 276 c 128,-1,10
 732 308 732 308 732 353 c 2,11,-1
 732 582 l 1,12,13
 713 576 713 576 693 570.5 c 128,-1,14
 673 565 673 565 649 560.5 c 128,-1,15
 625 556 625 556 594.5 553.5 c 128,-1,16
 564 551 564 551 525 551 c 0,17,18
 488 551 488 551 444.5 556 c 128,-1,19
 401 561 401 561 357.5 572 c 128,-1,20
 314 583 314 583 273 602 c 128,-1,21
 232 621 232 621 199.5 649 c 128,-1,22
 167 677 167 677 147 715 c 128,-1,23
 127 753 127 753 126 803 c 1,24,-1
 101 1407 l 1,25,26
 100 1462 100 1462 120 1505.5 c 128,-1,27
 140 1549 140 1549 175.5 1581.5 c 128,-1,28
 211 1614 211 1614 258 1637 c 128,-1,29
 305 1660 305 1660 358.5 1674 c 128,-1,30
 412 1688 412 1688 468 1694.5 c 128,-1,31
 524 1701 524 1701 577 1701 c 256,32,33
 630 1701 630 1701 686.5 1694.5 c 128,-1,34
 743 1688 743 1688 797 1674 c 128,-1,35
 851 1660 851 1660 898.5 1637 c 128,-1,36
 946 1614 946 1614 981.5 1581.5 c 128,-1,37
 1017 1549 1017 1549 1037 1505.5 c 128,-1,38
 1057 1462 1057 1462 1055 1407 c 2,39,-1
 1004 290 l 2,40,41
 1002 231 1002 231 980.5 178.5 c 128,-1,42
 959 126 959 126 908 86.5 c 128,-1,43
 857 47 857 47 772 23.5 c 128,-1,44
 687 0 687 0 559 0 c 2,45,-1
 300 0 l 2,46,47
 269 0 269 0 251 1 c 128,-1,48
 233 2 233 2 224 10.5 c 128,-1,49
 215 19 215 19 213 38 c 128,-1,50
 211 57 211 57 211 94 c 0,0,1
579 727 m 0,51,52
 616 727 616 727 653.5 732 c 128,-1,53
 691 737 691 737 726 751 c 1,54,-1
 709 1389 l 2,55,56
 708 1428 708 1428 700 1453.5 c 128,-1,57
 692 1479 692 1479 676.5 1494.5 c 128,-1,58
 661 1510 661 1510 636.5 1516 c 128,-1,59
 612 1522 612 1522 577 1522 c 0,60,61
 543 1522 543 1522 519 1516 c 128,-1,62
 495 1510 495 1510 479.5 1494.5 c 128,-1,63
 464 1479 464 1479 456 1453.5 c 128,-1,64
 448 1428 448 1428 447 1389 c 2,65,-1
 433 874 l 2,66,67
 431 832 431 832 439 804 c 128,-1,68
 447 776 447 776 465 758.5 c 128,-1,69
 483 741 483 741 511.5 734 c 128,-1,70
 540 727 540 727 579 727 c 0,51,52
EndSplineSet
EndChar

StartChar: six
Encoding: 54 54 66
Width: 1159
Flags: W
LayerCount: 2
Fore
SplineSet
111 1378 m 2,0,1
 109 1453 109 1453 141 1511 c 128,-1,2
 173 1569 173 1569 234.5 1609 c 128,-1,3
 296 1649 296 1649 385 1669.5 c 128,-1,4
 474 1690 474 1690 586 1690 c 2,5,-1
 925 1690 l 2,6,7
 956 1690 956 1690 974 1686 c 128,-1,8
 992 1682 992 1682 1001 1670 c 128,-1,9
 1010 1658 1010 1658 1012 1636 c 128,-1,10
 1014 1614 1014 1614 1014 1577 c 0,11,12
 1014 1517 1014 1517 1001.5 1493 c 128,-1,13
 989 1469 989 1469 954 1469 c 2,14,-1
 585 1469 l 2,15,16
 553 1469 553 1469 528.5 1465 c 128,-1,17
 504 1461 504 1461 487.5 1447 c 128,-1,18
 471 1433 471 1433 462 1407 c 128,-1,19
 453 1381 453 1381 452 1337 c 2,20,-1
 446 1111 l 1,21,22
 487 1123 487 1123 537.5 1131 c 128,-1,23
 588 1139 588 1139 649 1139 c 0,24,25
 686 1139 686 1139 730 1134 c 128,-1,26
 774 1129 774 1129 819 1117 c 128,-1,27
 864 1105 864 1105 905.5 1085.5 c 128,-1,28
 947 1066 947 1066 979.5 1037.5 c 128,-1,29
 1012 1009 1012 1009 1030.5 970.5 c 128,-1,30
 1049 932 1049 932 1048 882 c 1,31,-1
 1021 273 l 2,32,33
 1019 208 1019 208 988.5 155.5 c 128,-1,34
 958 103 958 103 901.5 65.5 c 128,-1,35
 845 28 845 28 765 8 c 128,-1,36
 685 -12 685 -12 585 -12 c 0,37,38
 484 -12 484 -12 404.5 8 c 128,-1,39
 325 28 325 28 269 65.5 c 128,-1,40
 213 103 213 103 182.5 155.5 c 128,-1,41
 152 208 152 208 150 273 c 2,42,-1
 111 1378 l 2,0,1
423 312 m 2,43,44
 421 228 421 228 459 193.5 c 128,-1,45
 497 159 497 159 585 159 c 256,46,47
 673 159 673 159 711.5 193.5 c 128,-1,48
 750 228 750 228 748 312 c 2,49,-1
 734 810 l 2,50,51
 733 852 733 852 724.5 880 c 128,-1,52
 716 908 716 908 698 924.5 c 128,-1,53
 680 941 680 941 652 948 c 128,-1,54
 624 955 624 955 585 955 c 0,55,56
 548 955 548 955 512.5 950.5 c 128,-1,57
 477 946 477 946 442 932 c 1,58,-1
 423 312 l 2,43,44
EndSplineSet
EndChar

StartChar: five
Encoding: 53 53 67
Width: 1115
Flags: W
LayerCount: 2
Fore
SplineSet
122 417 m 2,0,1
 121 443 121 443 125.5 459 c 128,-1,2
 130 475 130 475 145 484 c 128,-1,3
 160 493 160 493 187.5 496.5 c 128,-1,4
 215 500 215 500 262 500 c 0,5,6
 312 500 312 500 342 496.5 c 128,-1,7
 372 493 372 493 387.5 484 c 128,-1,8
 403 475 403 475 408 459 c 128,-1,9
 413 443 413 443 412 417 c 2,10,-1
 409 312 l 2,11,12
 407 228 407 228 440.5 193.5 c 128,-1,13
 474 159 474 159 551 159 c 256,14,15
 628 159 628 159 662 193.5 c 128,-1,16
 696 228 696 228 694 312 c 2,17,-1
 680 818 l 2,18,19
 679 860 679 860 670.5 887.5 c 128,-1,20
 662 915 662 915 644 931.5 c 128,-1,21
 626 948 626 948 598 954.5 c 128,-1,22
 570 961 570 961 531 961 c 2,23,-1
 330 961 l 1,24,25
 319 960 319 960 305 960 c 128,-1,26
 291 960 291 960 275 960 c 0,27,28
 228 960 228 960 201 962 c 128,-1,29
 174 964 174 964 159.5 971 c 128,-1,30
 145 978 145 978 140.5 991.5 c 128,-1,31
 136 1005 136 1005 135 1028 c 2,32,-1
 111 1607 l 2,33,34
 110 1633 110 1633 117 1649 c 128,-1,35
 124 1665 124 1665 142.5 1674 c 128,-1,36
 161 1683 161 1683 193 1686.5 c 128,-1,37
 225 1690 225 1690 275 1690 c 2,38,-1
 276 1690 l 1,39,-1
 917 1690 l 2,40,41
 943 1690 943 1690 957.5 1685 c 128,-1,42
 972 1680 972 1680 979 1667.5 c 128,-1,43
 986 1655 986 1655 987.5 1633.5 c 128,-1,44
 989 1612 989 1612 989 1579 c 256,45,46
 989 1546 989 1546 987.5 1524.5 c 128,-1,47
 986 1503 986 1503 979 1490.5 c 128,-1,48
 972 1478 972 1478 957.5 1473 c 128,-1,49
 943 1468 943 1468 917 1468 c 2,50,-1
 433 1468 l 1,51,-1
 420 1147 l 1,52,-1
 735 1147 l 2,53,54
 772 1147 772 1147 821 1135 c 128,-1,55
 870 1123 870 1123 913.5 1093.5 c 128,-1,56
 957 1064 957 1064 986.5 1014.5 c 128,-1,57
 1016 965 1016 965 1014 890 c 1,58,-1
 977 273 l 1,59,60
 975 208 975 208 945 155.5 c 128,-1,61
 915 103 915 103 860.5 65.5 c 128,-1,62
 806 28 806 28 727.5 8 c 128,-1,63
 649 -12 649 -12 551 -12 c 256,64,65
 453 -12 453 -12 375 8 c 128,-1,66
 297 28 297 28 242 65.5 c 128,-1,67
 187 103 187 103 157.5 155.5 c 128,-1,68
 128 208 128 208 126 273 c 2,69,-1
 122 417 l 2,0,1
EndSplineSet
EndChar

StartChar: four
Encoding: 52 52 68
Width: 1009
Flags: W
LayerCount: 2
Fore
SplineSet
124 365 m 1,0,1
 109 365 109 365 89.5 368.5 c 128,-1,2
 70 372 70 372 52.5 379.5 c 128,-1,3
 35 387 35 387 23 399 c 128,-1,4
 11 411 11 411 11 427 c 2,5,-1
 11 460 l 2,6,7
 11 490 11 490 20.5 518 c 128,-1,8
 30 546 30 546 41 577 c 2,9,-1
 371 1596 l 2,10,11
 381 1627 381 1627 395 1645.5 c 128,-1,12
 409 1664 409 1664 431.5 1674 c 128,-1,13
 454 1684 454 1684 487 1687 c 128,-1,14
 520 1690 520 1690 570 1690 c 0,15,16
 688 1690 688 1690 728.5 1665 c 128,-1,17
 769 1640 769 1640 748 1589 c 2,18,-1
 334 561 l 1,19,-1
 630 561 l 1,20,-1
 620 917 l 2,21,22
 619 943 619 943 627.5 959 c 128,-1,23
 636 975 636 975 656.5 984 c 128,-1,24
 677 993 677 993 709.5 996.5 c 128,-1,25
 742 1000 742 1000 789 1000 c 0,26,27
 842 1000 842 1000 872.5 997 c 128,-1,28
 903 994 903 994 917.5 985.5 c 128,-1,29
 932 977 932 977 935.5 960.5 c 128,-1,30
 939 944 939 944 938 917 c 2,31,-1
 914 68 l 2,32,33
 913 45 913 45 905.5 31.5 c 128,-1,34
 898 18 898 18 880.5 11 c 128,-1,35
 863 4 863 4 836 2 c 128,-1,36
 809 0 809 0 769 0 c 256,37,38
 729 0 729 0 705 2 c 128,-1,39
 681 4 681 4 667.5 11 c 128,-1,40
 654 18 654 18 649 31.5 c 128,-1,41
 644 45 644 45 644 68 c 2,42,-1
 635 365 l 1,43,-1
 154 365 l 1,44,-1
 124 365 l 1,45,-1
 124 365 l 1,0,1
EndSplineSet
EndChar

StartChar: semicolon
Encoding: 59 59 69
Width: 596
Flags: W
LayerCount: 2
Fore
SplineSet
298 843 m 256,0,1
 246 843 246 843 213.5 845 c 128,-1,2
 181 847 181 847 163 853 c 128,-1,3
 145 859 145 859 138 870 c 128,-1,4
 131 881 131 881 130 900 c 2,5,-1
 121 1128 l 1,6,7
 119 1149 119 1149 125 1163.5 c 128,-1,8
 131 1178 131 1178 150 1186 c 128,-1,9
 169 1194 169 1194 204.5 1197.5 c 128,-1,10
 240 1201 240 1201 298 1201 c 256,11,12
 356 1201 356 1201 391 1197.5 c 128,-1,13
 426 1194 426 1194 445 1186 c 128,-1,14
 464 1178 464 1178 470 1163.5 c 128,-1,15
 476 1149 476 1149 475 1128 c 2,16,-1
 466 900 l 2,17,18
 465 881 465 881 458 870 c 128,-1,19
 451 859 451 859 433 853 c 128,-1,20
 415 847 415 847 382.5 845 c 128,-1,21
 350 843 350 843 298 843 c 256,0,1
136 252 m 1,22,23
 134 273 134 273 139.5 287.5 c 128,-1,24
 145 302 145 302 164.5 310 c 128,-1,25
 184 318 184 318 220.5 321.5 c 128,-1,26
 257 325 257 325 318 325 c 0,27,28
 376 325 376 325 410 321.5 c 128,-1,29
 444 318 444 318 462 310 c 128,-1,30
 480 302 480 302 485.5 287.5 c 128,-1,31
 491 273 491 273 490 252 c 2,32,-1
 482 89 l 2,33,34
 481 73 481 73 480 61.5 c 128,-1,35
 479 50 479 50 477 40.5 c 128,-1,36
 475 31 475 31 471.5 21.5 c 128,-1,37
 468 12 468 12 464 0 c 2,38,-1
 377 -237 l 2,39,40
 367 -263 367 -263 359 -278 c 128,-1,41
 351 -293 351 -293 340.5 -300.5 c 128,-1,42
 330 -308 330 -308 315 -310.5 c 128,-1,43
 300 -313 300 -313 276 -313 c 0,44,45
 237 -313 237 -313 216.5 -307 c 128,-1,46
 196 -301 196 -301 196 -278 c 0,47,48
 196 -261 196 -261 202 -234.5 c 128,-1,49
 208 -208 208 -208 219 -166 c 2,50,-1
 261 8 l 1,51,-1
 203 8 l 2,52,53
 167 8 167 8 156.5 24 c 128,-1,54
 146 40 146 40 144 65 c 2,55,-1
 136 252 l 1,22,23
EndSplineSet
EndChar

StartChar: parenleft
Encoding: 40 40 70
Width: 687
Flags: W
LayerCount: 2
Fore
SplineSet
101 1324 m 2,0,1
 98 1466 98 1466 135.5 1573.5 c 128,-1,2
 173 1681 173 1681 238 1753.5 c 128,-1,3
 303 1826 303 1826 388.5 1863 c 128,-1,4
 474 1900 474 1900 566 1900 c 2,5,-1
 607 1900 l 2,6,7
 628 1900 628 1900 640 1897.5 c 128,-1,8
 652 1895 652 1895 658 1886 c 128,-1,9
 664 1877 664 1877 665.5 1860.5 c 128,-1,10
 667 1844 667 1844 667 1817 c 0,11,12
 667 1787 667 1787 664.5 1769.5 c 128,-1,13
 662 1752 662 1752 655 1743 c 128,-1,14
 648 1734 648 1734 637 1731.5 c 128,-1,15
 626 1729 626 1729 608 1729 c 0,16,17
 541 1729 541 1729 494 1712.5 c 128,-1,18
 447 1696 447 1696 417 1659.5 c 128,-1,19
 387 1623 387 1623 372.5 1565 c 128,-1,20
 358 1507 358 1507 357 1426 c 2,21,-1
 344 150 l 1,22,23
 342 69 342 69 356.5 14 c 128,-1,24
 371 -41 371 -41 400.5 -75.5 c 128,-1,25
 430 -110 430 -110 474.5 -125 c 128,-1,26
 519 -140 519 -140 579 -140 c 0,27,28
 595 -140 595 -140 606.5 -142 c 128,-1,29
 618 -144 618 -144 625 -152 c 128,-1,30
 632 -160 632 -160 635 -175.5 c 128,-1,31
 638 -191 638 -191 638 -218 c 0,32,33
 638 -242 638 -242 636 -256.5 c 128,-1,34
 634 -271 634 -271 627.5 -278.5 c 128,-1,35
 621 -286 621 -286 609 -288.5 c 128,-1,36
 597 -291 597 -291 578 -291 c 2,37,-1
 529 -291 l 2,38,39
 338 -291 338 -291 231 -155.5 c 128,-1,40
 124 -20 124 -20 119 244 c 2,41,-1
 101 1324 l 2,0,1
EndSplineSet
EndChar

StartChar: braceleft
Encoding: 123 123 72
Width: 775
Flags: W
LayerCount: 2
Fore
SplineSet
259 497 m 2,0,1
 258 534 258 534 248 559 c 128,-1,2
 238 584 238 584 220 598 c 128,-1,3
 202 612 202 612 176.5 618 c 128,-1,4
 151 624 151 624 120 624 c 2,5,-1
 102 624 l 2,6,7
 79 624 79 624 66.5 629 c 128,-1,8
 54 634 54 634 48 644.5 c 128,-1,9
 42 655 42 655 41 672 c 128,-1,10
 40 689 40 689 40 714 c 256,11,12
 40 739 40 739 41 756.5 c 128,-1,13
 42 774 42 774 48 784.5 c 128,-1,14
 54 795 54 795 66.5 799.5 c 128,-1,15
 79 804 79 804 102 804 c 2,16,-1
 120 804 l 2,17,18
 182 804 182 804 215 838.5 c 128,-1,19
 248 873 248 873 246 954 c 2,20,-1
 231 1540 l 2,21,22
 229 1618 229 1618 242 1684.5 c 128,-1,23
 255 1751 255 1751 293.5 1799 c 128,-1,24
 332 1847 332 1847 400 1874.5 c 128,-1,25
 468 1902 468 1902 576 1902 c 2,26,-1
 695 1902 l 2,27,28
 716 1902 716 1902 728 1899 c 128,-1,29
 740 1896 740 1896 746 1887 c 128,-1,30
 752 1878 752 1878 753.5 1861.5 c 128,-1,31
 755 1845 755 1845 755 1818 c 0,32,33
 755 1788 755 1788 752.5 1769.5 c 128,-1,34
 750 1751 750 1751 743 1741 c 128,-1,35
 736 1731 736 1731 725 1728 c 128,-1,36
 714 1725 714 1725 696 1725 c 2,37,-1
 642 1725 l 2,38,39
 600 1725 600 1725 573.5 1716.5 c 128,-1,40
 547 1708 547 1708 531.5 1686.5 c 128,-1,41
 516 1665 516 1665 510 1629.5 c 128,-1,42
 504 1594 504 1594 503 1540 c 2,43,-1
 494 1039 l 2,44,45
 493 989 493 989 488.5 944.5 c 128,-1,46
 484 900 484 900 469 861 c 128,-1,47
 454 822 454 822 424 787.5 c 128,-1,48
 394 753 394 753 343 722 c 1,49,-1
 343 714 l 1,50,51
 393 682 393 682 421.5 653.5 c 128,-1,52
 450 625 450 625 464 592 c 128,-1,53
 478 559 478 559 481 519 c 128,-1,54
 484 479 484 479 483 425 c 2,55,-1
 474 46 l 2,56,57
 473 2 473 2 479.5 -31 c 128,-1,58
 486 -64 486 -64 504 -85.5 c 128,-1,59
 522 -107 522 -107 552 -117.5 c 128,-1,60
 582 -128 582 -128 627 -128 c 2,61,-1
 669 -128 l 2,62,63
 688 -128 688 -128 699 -131.5 c 128,-1,64
 710 -135 710 -135 715.5 -144 c 128,-1,65
 721 -153 721 -153 722.5 -170 c 128,-1,66
 724 -187 724 -187 724 -214 c 256,67,68
 724 -241 724 -241 721.5 -257 c 128,-1,69
 719 -273 719 -273 712 -281.5 c 128,-1,70
 705 -290 705 -290 693.5 -292 c 128,-1,71
 682 -294 682 -294 663 -294 c 2,72,-1
 610 -294 l 2,73,74
 514 -294 514 -294 450 -272 c 128,-1,75
 386 -250 386 -250 347 -207 c 128,-1,76
 308 -164 308 -164 290.5 -100.5 c 128,-1,77
 273 -37 273 -37 271 46 c 2,78,-1
 259 497 l 2,0,1
EndSplineSet
EndChar

StartChar: braceright
Encoding: 125 125 73
Width: 775
Flags: W
LayerCount: 2
Fore
SplineSet
148 -128 m 2,0,1
 193 -128 193 -128 223 -117.5 c 128,-1,2
 253 -107 253 -107 271 -85.5 c 128,-1,3
 289 -64 289 -64 295.5 -31 c 128,-1,4
 302 2 302 2 301 46 c 2,5,-1
 292 425 l 2,6,7
 291 479 291 479 294 519 c 128,-1,8
 297 559 297 559 311 592 c 128,-1,9
 325 625 325 625 353.5 653.5 c 128,-1,10
 382 682 382 682 432 714 c 1,11,-1
 432 722 l 1,12,13
 381 753 381 753 351 787.5 c 128,-1,14
 321 822 321 822 306 861 c 128,-1,15
 291 900 291 900 286.5 944.5 c 128,-1,16
 282 989 282 989 281 1039 c 2,17,-1
 272 1540 l 2,18,19
 271 1594 271 1594 265 1629.5 c 128,-1,20
 259 1665 259 1665 243.5 1686.5 c 128,-1,21
 228 1708 228 1708 201.5 1716.5 c 128,-1,22
 175 1725 175 1725 133 1725 c 2,23,-1
 79 1725 l 2,24,25
 61 1725 61 1725 50 1728 c 128,-1,26
 39 1731 39 1731 32 1741 c 128,-1,27
 25 1751 25 1751 22.5 1769.5 c 128,-1,28
 20 1788 20 1788 20 1818 c 0,29,30
 20 1845 20 1845 21.5 1861.5 c 128,-1,31
 23 1878 23 1878 29 1887 c 128,-1,32
 35 1896 35 1896 47 1899 c 128,-1,33
 59 1902 59 1902 80 1902 c 2,34,-1
 199 1902 l 2,35,36
 307 1902 307 1902 375 1874.5 c 128,-1,37
 443 1847 443 1847 481.5 1799 c 128,-1,38
 520 1751 520 1751 533 1684.5 c 128,-1,39
 546 1618 546 1618 544 1540 c 2,40,-1
 529 954 l 2,41,42
 527 873 527 873 560 838.5 c 128,-1,43
 593 804 593 804 655 804 c 2,44,-1
 673 804 l 2,45,46
 696 804 696 804 708.5 799.5 c 128,-1,47
 721 795 721 795 727 784.5 c 128,-1,48
 733 774 733 774 734 756.5 c 128,-1,49
 735 739 735 739 735 714 c 256,50,51
 735 689 735 689 733.5 672 c 128,-1,52
 732 655 732 655 726 644.5 c 128,-1,53
 720 634 720 634 707.5 629 c 128,-1,54
 695 624 695 624 673 624 c 2,55,-1
 655 624 l 2,56,57
 623 624 623 624 598 618 c 128,-1,58
 573 612 573 612 555 598 c 128,-1,59
 537 584 537 584 527 559 c 128,-1,60
 517 534 517 534 516 497 c 2,61,-1
 504 46 l 2,62,63
 502 -37 502 -37 484.5 -100.5 c 128,-1,64
 467 -164 467 -164 428 -207 c 128,-1,65
 389 -250 389 -250 325 -272 c 128,-1,66
 261 -294 261 -294 165 -294 c 2,67,-1
 112 -294 l 2,68,69
 93 -294 93 -294 81 -292 c 128,-1,70
 69 -290 69 -290 62.5 -281.5 c 128,-1,71
 56 -273 56 -273 53.5 -257 c 128,-1,72
 51 -241 51 -241 51 -214 c 256,73,74
 51 -187 51 -187 52.5 -170 c 128,-1,75
 54 -153 54 -153 59.5 -144 c 128,-1,76
 65 -135 65 -135 76 -131.5 c 128,-1,77
 87 -128 87 -128 106 -128 c 2,78,-1
 148 -128 l 2,0,1
EndSplineSet
EndChar

StartChar: bracketleft
Encoding: 91 91 74
Width: 666
Flags: W
LayerCount: 2
Fore
SplineSet
126 1758 m 2,0,1
 124 1807 124 1807 129.5 1835.5 c 128,-1,2
 135 1864 135 1864 152.5 1879 c 128,-1,3
 170 1894 170 1894 202 1898 c 128,-1,4
 234 1902 234 1902 285 1902 c 2,5,-1
 596 1902 l 2,6,7
 617 1902 617 1902 629 1899 c 128,-1,8
 641 1896 641 1896 647 1887 c 128,-1,9
 653 1878 653 1878 654.5 1861.5 c 128,-1,10
 656 1845 656 1845 656 1818 c 0,11,12
 656 1788 656 1788 653.5 1769.5 c 128,-1,13
 651 1751 651 1751 644 1741 c 128,-1,14
 637 1731 637 1731 626 1728 c 128,-1,15
 615 1725 615 1725 597 1725 c 2,16,-1
 408 1724 l 1,17,-1
 371 -128 l 1,18,-1
 570 -128 l 2,19,20
 589 -128 589 -128 600 -131.5 c 128,-1,21
 611 -135 611 -135 616.5 -144 c 128,-1,22
 622 -153 622 -153 623.5 -170 c 128,-1,23
 625 -187 625 -187 625 -214 c 256,24,25
 625 -241 625 -241 622.5 -257 c 128,-1,26
 620 -273 620 -273 613 -281.5 c 128,-1,27
 606 -290 606 -290 594.5 -292 c 128,-1,28
 583 -294 583 -294 564 -294 c 2,29,-1
 274 -294 l 2,30,31
 246 -294 246 -294 228 -291 c 128,-1,32
 210 -288 210 -288 199.5 -278 c 128,-1,33
 189 -268 189 -268 185 -249.5 c 128,-1,34
 181 -231 181 -231 180 -200 c 2,35,-1
 126 1758 l 2,0,1
EndSplineSet
EndChar

StartChar: bracketright
Encoding: 93 93 75
Width: 666
Flags: W
LayerCount: 2
Fore
SplineSet
295 -128 m 1,0,-1
 258 1724 l 1,1,-1
 69 1725 l 2,2,3
 51 1725 51 1725 40 1728 c 128,-1,4
 29 1731 29 1731 22 1741 c 128,-1,5
 15 1751 15 1751 12.5 1769.5 c 128,-1,6
 10 1788 10 1788 10 1818 c 0,7,8
 10 1845 10 1845 11.5 1861.5 c 128,-1,9
 13 1878 13 1878 19 1887 c 128,-1,10
 25 1896 25 1896 37 1899 c 128,-1,11
 49 1902 49 1902 70 1902 c 2,12,-1
 381 1902 l 2,13,14
 432 1902 432 1902 464 1898 c 128,-1,15
 496 1894 496 1894 513.5 1879 c 128,-1,16
 531 1864 531 1864 536 1835.5 c 128,-1,17
 541 1807 541 1807 540 1758 c 2,18,-1
 486 -200 l 2,19,20
 485 -231 485 -231 480.5 -249.5 c 128,-1,21
 476 -268 476 -268 465.5 -278 c 128,-1,22
 455 -288 455 -288 437.5 -291 c 128,-1,23
 420 -294 420 -294 392 -294 c 2,24,-1
 102 -294 l 2,25,26
 83 -294 83 -294 71 -292 c 128,-1,27
 59 -290 59 -290 52.5 -281.5 c 128,-1,28
 46 -273 46 -273 43.5 -257 c 128,-1,29
 41 -241 41 -241 41 -214 c 256,30,31
 41 -187 41 -187 42.5 -170 c 128,-1,32
 44 -153 44 -153 49.5 -144 c 128,-1,33
 55 -135 55 -135 66 -131.5 c 128,-1,34
 77 -128 77 -128 96 -128 c 2,35,-1
 295 -128 l 1,0,-1
EndSplineSet
EndChar

StartChar: colon
Encoding: 58 58 76
Width: 596
Flags: W
LayerCount: 2
Fore
SplineSet
298 843 m 256,0,1
 246 843 246 843 213.5 845 c 128,-1,2
 181 847 181 847 163 853 c 128,-1,3
 145 859 145 859 138 870 c 128,-1,4
 131 881 131 881 130 900 c 2,5,-1
 121 1128 l 1,6,7
 119 1149 119 1149 125 1163.5 c 128,-1,8
 131 1178 131 1178 150 1186 c 128,-1,9
 169 1194 169 1194 204.5 1197.5 c 128,-1,10
 240 1201 240 1201 298 1201 c 256,11,12
 356 1201 356 1201 391 1197.5 c 128,-1,13
 426 1194 426 1194 445 1186 c 128,-1,14
 464 1178 464 1178 470 1163.5 c 128,-1,15
 476 1149 476 1149 475 1128 c 2,16,-1
 466 900 l 2,17,18
 465 881 465 881 458 870 c 128,-1,19
 451 859 451 859 433 853 c 128,-1,20
 415 847 415 847 382.5 845 c 128,-1,21
 350 843 350 843 298 843 c 256,0,1
138 252 m 2,22,23
 136 273 136 273 141 287.5 c 128,-1,24
 146 302 146 302 163 310 c 128,-1,25
 180 318 180 318 213 321.5 c 128,-1,26
 246 325 246 325 300 325 c 256,27,28
 354 325 354 325 386.5 321.5 c 128,-1,29
 419 318 419 318 436.5 310 c 128,-1,30
 454 302 454 302 458.5 287.5 c 128,-1,31
 463 273 463 273 462 252 c 2,32,-1
 451 57 l 2,33,34
 450 38 450 38 444.5 27 c 128,-1,35
 439 16 439 16 423 10 c 128,-1,36
 407 4 407 4 378 2 c 128,-1,37
 349 0 349 0 300 0 c 256,38,39
 251 0 251 0 222 2 c 128,-1,40
 193 4 193 4 177.5 10 c 128,-1,41
 162 16 162 16 156.5 27 c 128,-1,42
 151 38 151 38 150 57 c 2,43,-1
 138 252 l 2,22,23
EndSplineSet
EndChar

StartChar: germandbls
Encoding: 223 223 77
Width: 1105
Flags: W
LayerCount: 2
Fore
SplineSet
140 1440 m 2,0,1
 139 1505 139 1505 170.5 1557.5 c 128,-1,2
 202 1610 202 1610 259 1647 c 128,-1,3
 316 1684 316 1684 396 1704 c 128,-1,4
 476 1724 476 1724 571 1724 c 0,5,6
 653 1724 653 1724 730 1706.5 c 128,-1,7
 807 1689 807 1689 867 1653 c 128,-1,8
 927 1617 927 1617 962.5 1562 c 128,-1,9
 998 1507 998 1507 998 1432 c 1,10,-1
 989 1156 l 1,11,12
 989 1112 989 1112 987 1078 c 128,-1,13
 985 1044 985 1044 977.5 1014 c 128,-1,14
 970 984 970 984 955 955 c 128,-1,15
 940 926 940 926 914 891 c 2,16,-1
 791 728 l 1,17,-1
 791 716 l 1,18,-1
 902 629 l 2,19,20
 964 581 964 581 997.5 530 c 128,-1,21
 1031 479 1031 479 1030 406 c 2,22,-1
 1027 277 l 2,23,24
 1026 230 1026 230 1011 181 c 128,-1,25
 996 132 996 132 961.5 91.5 c 128,-1,26
 927 51 927 51 870 25.5 c 128,-1,27
 813 0 813 0 728 0 c 2,28,-1
 621 0 l 2,29,30
 600 0 600 0 588 2.5 c 128,-1,31
 576 5 576 5 569.5 13.5 c 128,-1,32
 563 22 563 22 561 37 c 128,-1,33
 559 52 559 52 559 77 c 256,34,35
 559 102 559 102 561 117.5 c 128,-1,36
 563 133 563 133 569.5 142 c 128,-1,37
 576 151 576 151 588 154 c 128,-1,38
 600 157 600 157 621 157 c 2,39,-1
 636 157 l 2,40,41
 672 157 672 157 695.5 164 c 128,-1,42
 719 171 719 171 732.5 187 c 128,-1,43
 746 203 746 203 750.5 229.5 c 128,-1,44
 755 256 755 256 754 294 c 2,45,-1
 750 407 l 2,46,47
 749 440 749 440 745 463.5 c 128,-1,48
 741 487 741 487 734 505 c 128,-1,49
 727 523 727 523 715.5 537 c 128,-1,50
 704 551 704 551 688 565 c 2,51,-1
 626 618 l 2,52,53
 613 629 613 629 604.5 636.5 c 128,-1,54
 596 644 596 644 591 650.5 c 128,-1,55
 586 657 586 657 584 664 c 128,-1,56
 582 671 582 671 582 682 c 2,57,-1
 582 718 l 2,58,59
 582 734 582 734 584.5 742.5 c 128,-1,60
 587 751 587 751 599 768 c 2,61,-1
 657 857 l 2,62,63
 671 877 671 877 678.5 891.5 c 128,-1,64
 686 906 686 906 690 921 c 128,-1,65
 694 936 694 936 694.5 953.5 c 128,-1,66
 695 971 695 971 694 998 c 2,67,-1
 680 1438 l 2,68,69
 678 1475 678 1475 672.5 1500 c 128,-1,70
 667 1525 667 1525 655 1540.5 c 128,-1,71
 643 1556 643 1556 623 1563 c 128,-1,72
 603 1570 603 1570 573 1570 c 0,73,74
 548 1570 548 1570 527 1566 c 128,-1,75
 506 1562 506 1562 490 1549 c 128,-1,76
 474 1536 474 1536 465 1511.5 c 128,-1,77
 456 1487 456 1487 455 1447 c 2,78,-1
 424 -115 l 2,79,80
 424 -134 424 -134 419 -145 c 128,-1,81
 414 -156 414 -156 400 -162 c 128,-1,82
 386 -168 386 -168 360.5 -170 c 128,-1,83
 335 -172 335 -172 293 -172 c 256,84,85
 251 -172 251 -172 225.5 -170 c 128,-1,86
 200 -168 200 -168 186.5 -162 c 128,-1,87
 173 -156 173 -156 168 -145 c 128,-1,88
 163 -134 163 -134 163 -115 c 2,89,-1
 140 1440 l 2,0,1
EndSplineSet
EndChar

StartChar: AE
Encoding: 198 198 78
Width: 1440
Flags: W
LayerCount: 2
Fore
SplineSet
385 1598 m 2,0,1
 391 1626 391 1626 401 1644 c 128,-1,2
 411 1662 411 1662 435 1672 c 128,-1,3
 459 1682 459 1682 502 1686 c 128,-1,4
 545 1690 545 1690 617 1690 c 2,5,-1
 865 1690 l 1,6,-1
 897 1690 l 1,7,-1
 1328 1690 l 2,8,9
 1354 1690 1354 1690 1368.5 1686 c 128,-1,10
 1383 1682 1383 1682 1389.5 1671 c 128,-1,11
 1396 1660 1396 1660 1397.5 1641 c 128,-1,12
 1399 1622 1399 1622 1399 1592 c 256,13,14
 1399 1562 1399 1562 1397.5 1542.5 c 128,-1,15
 1396 1523 1396 1523 1389.5 1512.5 c 128,-1,16
 1383 1502 1383 1502 1368.5 1498 c 128,-1,17
 1354 1494 1354 1494 1328 1494 c 2,18,-1
 1043 1494 l 1,19,-1
 1026 880 l 1,20,-1
 1266 880 l 2,21,22
 1292 880 1292 880 1306.5 876 c 128,-1,23
 1321 872 1321 872 1327.5 861.5 c 128,-1,24
 1334 851 1334 851 1335.5 832.5 c 128,-1,25
 1337 814 1337 814 1337 785 c 256,26,27
 1337 756 1337 756 1335.5 737.5 c 128,-1,28
 1334 719 1334 719 1327.5 708.5 c 128,-1,29
 1321 698 1321 698 1306.5 694 c 128,-1,30
 1292 690 1292 690 1266 690 c 2,31,-1
 1020 690 l 1,32,-1
 1006 187 l 1,33,-1
 1290 187 l 2,34,35
 1316 187 1316 187 1330.5 182.5 c 128,-1,36
 1345 178 1345 178 1351.5 167.5 c 128,-1,37
 1358 157 1358 157 1359.5 139 c 128,-1,38
 1361 121 1361 121 1361 94 c 256,39,40
 1361 67 1361 67 1359.5 49 c 128,-1,41
 1358 31 1358 31 1351.5 20.5 c 128,-1,42
 1345 10 1345 10 1330.5 5.5 c 128,-1,43
 1316 1 1316 1 1290 1 c 2,44,-1
 890 1 l 1,45,-1
 864 1 l 2,46,47
 821 1 821 1 796 3 c 128,-1,48
 771 5 771 5 758 12 c 128,-1,49
 745 19 745 19 741 32.5 c 128,-1,50
 737 46 737 46 736 69 c 2,51,-1
 729 317 l 1,52,-1
 377 317 l 1,53,-1
 316 78 l 2,54,55
 309 52 309 52 301.5 36.5 c 128,-1,56
 294 21 294 21 279 13 c 128,-1,57
 264 5 264 5 239 2.5 c 128,-1,58
 214 0 214 0 172 0 c 0,59,60
 133 0 133 0 106 2 c 128,-1,61
 79 4 79 4 63.5 12 c 128,-1,62
 48 20 48 20 43 35.5 c 128,-1,63
 38 51 38 51 43 78 c 1,64,-1
 385 1598 l 2,0,1
723 507 m 1,65,-1
 695 1494 l 1,66,-1
 678 1494 l 1,67,-1
 425 507 l 1,68,-1
 723 507 l 1,65,-1
EndSplineSet
EndChar

StartChar: OE
Encoding: 338 338 79
Width: 1432
Flags: W
LayerCount: 2
Fore
SplineSet
120 1355 m 2,0,1
 118 1430 118 1430 145 1491.5 c 128,-1,2
 172 1553 172 1553 230.5 1597.5 c 128,-1,3
 289 1642 289 1642 381.5 1666 c 128,-1,4
 474 1690 474 1690 604 1690 c 2,5,-1
 1321 1690 l 2,6,7
 1347 1690 1347 1690 1361.5 1686 c 128,-1,8
 1376 1682 1376 1682 1382.5 1671 c 128,-1,9
 1389 1660 1389 1660 1390.5 1641 c 128,-1,10
 1392 1622 1392 1622 1392 1592 c 256,11,12
 1392 1562 1392 1562 1390.5 1542.5 c 128,-1,13
 1389 1523 1389 1523 1382.5 1512.5 c 128,-1,14
 1376 1502 1376 1502 1361.5 1498 c 128,-1,15
 1347 1494 1347 1494 1321 1494 c 2,16,-1
 1036 1494 l 1,17,-1
 1019 879 l 1,18,-1
 1259 879 l 2,19,20
 1285 879 1285 879 1299.5 875 c 128,-1,21
 1314 871 1314 871 1321 860.5 c 128,-1,22
 1328 850 1328 850 1329.5 831.5 c 128,-1,23
 1331 813 1331 813 1331 784 c 256,24,25
 1331 755 1331 755 1329.5 736.5 c 128,-1,26
 1328 718 1328 718 1321 707.5 c 128,-1,27
 1314 697 1314 697 1299.5 693 c 128,-1,28
 1285 689 1285 689 1259 689 c 2,29,-1
 1013 689 l 1,30,-1
 999 186 l 1,31,-1
 1283 186 l 2,32,33
 1309 186 1309 186 1323.5 181.5 c 128,-1,34
 1338 177 1338 177 1344.5 166.5 c 128,-1,35
 1351 156 1351 156 1352.5 138 c 128,-1,36
 1354 120 1354 120 1354 93 c 256,37,38
 1354 66 1354 66 1352.5 48 c 128,-1,39
 1351 30 1351 30 1344.5 19.5 c 128,-1,40
 1338 9 1338 9 1323.5 4.5 c 128,-1,41
 1309 0 1309 0 1283 0 c 2,42,-1
 883 0 l 1,43,-1
 879 0 l 1,44,-1
 879 -1 l 1,45,-1
 604 -1 l 2,46,47
 483 -1 483 -1 397 24 c 128,-1,48
 311 49 311 49 256.5 92 c 128,-1,49
 202 135 202 135 176 193 c 128,-1,50
 150 251 150 251 148 316 c 2,51,-1
 120 1355 l 2,0,1
443 307 m 2,52,53
 442 265 442 265 450.5 237 c 128,-1,54
 459 209 459 209 478.5 192.5 c 128,-1,55
 498 176 498 176 529 169 c 128,-1,56
 560 162 560 162 604 162 c 2,57,-1
 716 162 l 1,58,-1
 677 1519 l 1,59,-1
 604 1519 l 2,60,61
 572 1519 572 1519 548 1514.5 c 128,-1,62
 524 1510 524 1510 507.5 1496.5 c 128,-1,63
 491 1483 491 1483 482 1456.5 c 128,-1,64
 473 1430 473 1430 472 1387 c 2,65,-1
 443 307 l 2,52,53
EndSplineSet
EndChar

StartChar: sterling
Encoding: 163 163 80
Width: 1215
Flags: W
LayerCount: 2
Fore
SplineSet
114 95 m 0,0,1
 114 125 114 125 115.5 145.5 c 128,-1,2
 117 166 117 166 124 178 c 128,-1,3
 131 190 131 190 145.5 195.5 c 128,-1,4
 160 201 160 201 186 201 c 2,5,-1
 246 201 l 1,6,7
 254 227 254 227 258.5 260 c 128,-1,8
 263 293 263 293 262 339 c 2,9,-1
 257 480 l 1,10,-1
 176 480 l 2,11,12
 150 480 150 480 135.5 485 c 128,-1,13
 121 490 121 490 114 501 c 128,-1,14
 107 512 107 512 105.5 530.5 c 128,-1,15
 104 549 104 549 104 576 c 0,16,17
 104 606 104 606 105.5 626.5 c 128,-1,18
 107 647 107 647 114 659.5 c 128,-1,19
 121 672 121 672 135.5 677 c 128,-1,20
 150 682 150 682 176 682 c 2,21,-1
 249 682 l 1,22,-1
 224 1376 l 2,23,24
 221 1451 221 1451 250.5 1510.5 c 128,-1,25
 280 1570 280 1570 338 1611 c 128,-1,26
 396 1652 396 1652 482 1674 c 128,-1,27
 568 1696 568 1696 679 1696 c 0,28,29
 907 1696 907 1696 1021.5 1611 c 128,-1,30
 1136 1526 1136 1526 1132 1376 c 2,31,-1
 1122 960 l 2,32,33
 1121 930 1121 930 1113.5 911.5 c 128,-1,34
 1106 893 1106 893 1089 883.5 c 128,-1,35
 1072 874 1072 874 1043 871 c 128,-1,36
 1014 868 1014 868 970 868 c 256,37,38
 926 868 926 868 896 871 c 128,-1,39
 866 874 866 874 848 883.5 c 128,-1,40
 830 893 830 893 822 911.5 c 128,-1,41
 814 930 814 930 813 960 c 2,42,-1
 801 1384 l 2,43,44
 800 1427 800 1427 792 1453.5 c 128,-1,45
 784 1480 784 1480 768.5 1493.5 c 128,-1,46
 753 1507 753 1507 731 1511.5 c 128,-1,47
 709 1516 709 1516 679 1516 c 256,48,49
 649 1516 649 1516 626.5 1511.5 c 128,-1,50
 604 1507 604 1507 588.5 1493.5 c 128,-1,51
 573 1480 573 1480 565 1453.5 c 128,-1,52
 557 1427 557 1427 556 1384 c 2,53,-1
 530 682 l 1,54,-1
 776 682 l 2,55,56
 802 682 802 682 816.5 676.5 c 128,-1,57
 831 671 831 671 838 658.5 c 128,-1,58
 845 646 845 646 846.5 625.5 c 128,-1,59
 848 605 848 605 848 575 c 0,60,61
 848 548 848 548 846.5 530 c 128,-1,62
 845 512 845 512 838 500.5 c 128,-1,63
 831 489 831 489 816.5 484.5 c 128,-1,64
 802 480 802 480 776 480 c 2,65,-1
 522 480 l 1,66,-1
 520 406 l 1,67,68
 515 337 515 337 503 288 c 128,-1,69
 491 239 491 239 475 201 c 1,70,-1
 1024 201 l 2,71,72
 1050 201 1050 201 1064.5 195.5 c 128,-1,73
 1079 190 1079 190 1086 177.5 c 128,-1,74
 1093 165 1093 165 1094.5 144.5 c 128,-1,75
 1096 124 1096 124 1096 94 c 0,76,77
 1096 67 1096 67 1094.5 49 c 128,-1,78
 1093 31 1093 31 1086 19.5 c 128,-1,79
 1079 8 1079 8 1064.5 3.5 c 128,-1,80
 1050 -1 1050 -1 1024 -1 c 2,81,-1
 186 -1 l 2,82,83
 160 -1 160 -1 145.5 4 c 128,-1,84
 131 9 131 9 124 20 c 128,-1,85
 117 31 117 31 115.5 49.5 c 128,-1,86
 114 68 114 68 114 95 c 0,0,1
EndSplineSet
EndChar

StartChar: hyphen
Encoding: 45 45 81
Width: 849
Flags: W
LayerCount: 2
Fore
SplineSet
196 480 m 1,0,1
 170 480 170 480 155.5 485.5 c 128,-1,2
 141 491 141 491 134 503.5 c 128,-1,3
 127 516 127 516 125.5 536.5 c 128,-1,4
 124 557 124 557 124 588 c 0,5,6
 124 622 124 622 125.5 644.5 c 128,-1,7
 127 667 127 667 134 680.5 c 128,-1,8
 141 694 141 694 155.5 700 c 128,-1,9
 170 706 170 706 196 706 c 2,10,-1
 652 706 l 2,11,12
 678 706 678 706 692.5 700 c 128,-1,13
 707 694 707 694 714 680 c 128,-1,14
 721 666 721 666 722.5 643.5 c 128,-1,15
 724 621 724 621 724 587 c 0,16,17
 724 556 724 556 722.5 535.5 c 128,-1,18
 721 515 721 515 714 502.5 c 128,-1,19
 707 490 707 490 692.5 485 c 128,-1,20
 678 480 678 480 652 480 c 2,21,-1
 196 480 l 1,22,-1
 196 480 l 1,0,1
EndSplineSet
EndChar

StartChar: endash
Encoding: 8211 8211 82
Width: 1080
Flags: W
LayerCount: 2
Fore
SplineSet
182 480 m 1,0,1
 156 480 156 480 141.5 485.5 c 128,-1,2
 127 491 127 491 120 503.5 c 128,-1,3
 113 516 113 516 111.5 536.5 c 128,-1,4
 110 557 110 557 110 588 c 0,5,6
 110 622 110 622 111.5 644.5 c 128,-1,7
 113 667 113 667 120 680.5 c 128,-1,8
 127 694 127 694 141.5 700 c 128,-1,9
 156 706 156 706 182 706 c 2,10,-1
 898 706 l 2,11,12
 924 706 924 706 938.5 700 c 128,-1,13
 953 694 953 694 960 680 c 128,-1,14
 967 666 967 666 968.5 643.5 c 128,-1,15
 970 621 970 621 970 587 c 0,16,17
 970 556 970 556 968.5 535.5 c 128,-1,18
 967 515 967 515 960 502.5 c 128,-1,19
 953 490 953 490 938.5 485 c 128,-1,20
 924 480 924 480 898 480 c 2,21,-1
 182 480 l 1,22,-1
 182 480 l 1,0,1
EndSplineSet
EndChar

StartChar: emdash
Encoding: 8212 8212 83
Width: 1620
Flags: W
LayerCount: 2
Fore
SplineSet
182 480 m 1,0,1
 156 480 156 480 141.5 485.5 c 128,-1,2
 127 491 127 491 120 503.5 c 128,-1,3
 113 516 113 516 111.5 536.5 c 128,-1,4
 110 557 110 557 110 588 c 0,5,6
 110 622 110 622 111.5 644.5 c 128,-1,7
 113 667 113 667 120 680.5 c 128,-1,8
 127 694 127 694 141.5 700 c 128,-1,9
 156 706 156 706 182 706 c 2,10,-1
 1438 706 l 2,11,12
 1464 706 1464 706 1478.5 700 c 128,-1,13
 1493 694 1493 694 1500 680 c 128,-1,14
 1507 666 1507 666 1508.5 643.5 c 128,-1,15
 1510 621 1510 621 1510 587 c 0,16,17
 1510 556 1510 556 1508.5 535.5 c 128,-1,18
 1507 515 1507 515 1500 502.5 c 128,-1,19
 1493 490 1493 490 1478.5 485 c 128,-1,20
 1464 480 1464 480 1438 480 c 2,21,-1
 182 480 l 1,22,-1
 182 480 l 1,0,1
EndSplineSet
EndChar

StartChar: exclamdown
Encoding: 161 161 84
Width: 620
Flags: W
LayerCount: 2
Fore
SplineSet
310 1375 m 0,0,1
 257 1375 257 1375 223.5 1376 c 128,-1,2
 190 1377 190 1377 170 1382.5 c 128,-1,3
 150 1388 150 1388 141.5 1399.5 c 128,-1,4
 133 1411 133 1411 132 1432 c 2,5,-1
 126 1637 l 2,6,7
 125 1661 125 1661 130 1678 c 128,-1,8
 135 1695 135 1695 153.5 1705 c 128,-1,9
 172 1715 172 1715 209 1719.5 c 128,-1,10
 246 1724 246 1724 310 1724 c 256,11,12
 374 1724 374 1724 411 1719.5 c 128,-1,13
 448 1715 448 1715 466.5 1705 c 128,-1,14
 485 1695 485 1695 490 1678.5 c 128,-1,15
 495 1662 495 1662 494 1638 c 2,16,-1
 488 1432 l 2,17,18
 487 1413 487 1413 480 1402 c 128,-1,19
 473 1391 473 1391 453.5 1385 c 128,-1,20
 434 1379 434 1379 399.5 1377 c 128,-1,21
 365 1375 365 1375 310 1375 c 0,0,1
143 1040 m 2,22,23
 142 1066 142 1066 148 1082.5 c 128,-1,24
 154 1099 154 1099 172 1108 c 128,-1,25
 190 1117 190 1117 223.5 1120.5 c 128,-1,26
 257 1124 257 1124 310 1124 c 256,27,28
 363 1124 363 1124 396.5 1120.5 c 128,-1,29
 430 1117 430 1117 448 1108 c 128,-1,30
 466 1099 466 1099 472 1082.5 c 128,-1,31
 478 1066 478 1066 477 1040 c 2,32,-1
 447 69 l 2,33,34
 446 46 446 46 442 32 c 128,-1,35
 438 18 438 18 424 11 c 128,-1,36
 410 4 410 4 383 2 c 128,-1,37
 356 0 356 0 310 0 c 0,38,39
 263 0 263 0 235.5 2 c 128,-1,40
 208 4 208 4 193.5 11 c 128,-1,41
 179 18 179 18 174.5 32 c 128,-1,42
 170 46 170 46 169 69 c 2,43,-1
 143 1040 l 2,22,23
EndSplineSet
EndChar

StartChar: ellipsis
Encoding: 8230 8230 86
Width: 1800
Flags: W
LayerCount: 2
Fore
SplineSet
1338 252 m 2,0,1
 1336 273 1336 273 1341 287.5 c 128,-1,2
 1346 302 1346 302 1363 310 c 128,-1,3
 1380 318 1380 318 1413 321.5 c 128,-1,4
 1446 325 1446 325 1500 325 c 256,5,6
 1554 325 1554 325 1586.5 321.5 c 128,-1,7
 1619 318 1619 318 1636.5 310 c 128,-1,8
 1654 302 1654 302 1658.5 287.5 c 128,-1,9
 1663 273 1663 273 1662 252 c 2,10,-1
 1651 57 l 2,11,12
 1650 38 1650 38 1644.5 27 c 128,-1,13
 1639 16 1639 16 1623 10 c 128,-1,14
 1607 4 1607 4 1578 2 c 128,-1,15
 1549 0 1549 0 1500 0 c 256,16,17
 1451 0 1451 0 1422 2 c 128,-1,18
 1393 4 1393 4 1377.5 10 c 128,-1,19
 1362 16 1362 16 1356.5 27 c 128,-1,20
 1351 38 1351 38 1350 57 c 2,21,-1
 1338 252 l 2,0,1
738 252 m 2,22,23
 736 273 736 273 741 287.5 c 128,-1,24
 746 302 746 302 763 310 c 128,-1,25
 780 318 780 318 813 321.5 c 128,-1,26
 846 325 846 325 900 325 c 256,27,28
 954 325 954 325 986.5 321.5 c 128,-1,29
 1019 318 1019 318 1036.5 310 c 128,-1,30
 1054 302 1054 302 1058.5 287.5 c 128,-1,31
 1063 273 1063 273 1062 252 c 2,32,-1
 1051 57 l 2,33,34
 1050 38 1050 38 1044.5 27 c 128,-1,35
 1039 16 1039 16 1023 10 c 128,-1,36
 1007 4 1007 4 978 2 c 128,-1,37
 949 0 949 0 900 0 c 256,38,39
 851 0 851 0 822 2 c 128,-1,40
 793 4 793 4 777.5 10 c 128,-1,41
 762 16 762 16 756.5 27 c 128,-1,42
 751 38 751 38 750 57 c 2,43,-1
 738 252 l 2,22,23
138 252 m 2,44,45
 136 273 136 273 141 287.5 c 128,-1,46
 146 302 146 302 163 310 c 128,-1,47
 180 318 180 318 213 321.5 c 128,-1,48
 246 325 246 325 300 325 c 256,49,50
 354 325 354 325 386.5 321.5 c 128,-1,51
 419 318 419 318 436.5 310 c 128,-1,52
 454 302 454 302 458.5 287.5 c 128,-1,53
 463 273 463 273 462 252 c 2,54,-1
 451 57 l 2,55,56
 450 38 450 38 444.5 27 c 128,-1,57
 439 16 439 16 423 10 c 128,-1,58
 407 4 407 4 378 2 c 128,-1,59
 349 0 349 0 300 0 c 256,60,61
 251 0 251 0 222 2 c 128,-1,62
 193 4 193 4 177.5 10 c 128,-1,63
 162 16 162 16 156.5 27 c 128,-1,64
 151 38 151 38 150 57 c 2,65,-1
 138 252 l 2,44,45
EndSplineSet
EndChar

StartChar: quoteright
Encoding: 8217 8217 87
Width: 520
Flags: W
LayerCount: 2
Fore
SplineSet
174 1086 m 0,0,1
 124 1086 124 1086 102 1093.5 c 128,-1,2
 80 1101 80 1101 80 1126 c 0,3,4
 80 1140 80 1140 91.5 1163.5 c 128,-1,5
 103 1187 103 1187 123 1233 c 2,6,-1
 216 1450 l 1,7,-1
 159 1450 l 2,8,9
 138 1450 138 1450 125 1455.5 c 128,-1,10
 112 1461 112 1461 105 1470 c 128,-1,11
 98 1479 98 1479 95.5 1491 c 128,-1,12
 93 1503 93 1503 92 1515 c 2,13,-1
 82 1651 l 2,14,15
 80 1672 80 1672 85.5 1686.5 c 128,-1,16
 91 1701 91 1701 109.5 1709 c 128,-1,17
 128 1717 128 1717 162.5 1720.5 c 128,-1,18
 197 1724 197 1724 255 1724 c 0,19,20
 316 1724 316 1724 353 1720.5 c 128,-1,21
 390 1717 390 1717 409.5 1709 c 128,-1,22
 429 1701 429 1701 434.5 1686.5 c 128,-1,23
 440 1672 440 1672 439 1651 c 2,24,-1
 432 1510 l 2,25,26
 431 1488 431 1488 430 1470.5 c 128,-1,27
 429 1453 429 1453 426 1437 c 128,-1,28
 423 1421 423 1421 418.5 1405 c 128,-1,29
 414 1389 414 1389 405 1370 c 2,30,-1
 302 1154 l 2,31,32
 291 1132 291 1132 281.5 1119 c 128,-1,33
 272 1106 272 1106 258.5 1098.5 c 128,-1,34
 245 1091 245 1091 225 1088.5 c 128,-1,35
 205 1086 205 1086 174 1086 c 0,0,1
EndSplineSet
EndChar

StartChar: quoteleft
Encoding: 8216 8216 88
Width: 520
Flags: W
LayerCount: 2
Fore
SplineSet
255 1086 m 0,0,1
 197 1086 197 1086 164.5 1089.5 c 128,-1,2
 132 1093 132 1093 115.5 1101 c 128,-1,3
 99 1109 99 1109 94.5 1123.5 c 128,-1,4
 90 1138 90 1138 89 1159 c 2,5,-1
 81 1330 l 2,6,7
 79 1361 79 1361 83.5 1378.5 c 128,-1,8
 88 1396 88 1396 96 1419 c 2,9,-1
 168 1656 l 2,10,11
 175 1681 175 1681 185.5 1694.5 c 128,-1,12
 196 1708 196 1708 212.5 1714.5 c 128,-1,13
 229 1721 229 1721 254 1722.5 c 128,-1,14
 279 1724 279 1724 316 1724 c 0,15,16
 382 1724 382 1724 411 1716.5 c 128,-1,17
 440 1709 440 1709 440 1684 c 0,18,19
 440 1670 440 1670 428.5 1646 c 128,-1,20
 417 1622 417 1622 394 1577 c 2,21,-1
 284 1360 l 1,22,-1
 351 1360 l 2,23,24
 372 1360 372 1360 385.5 1354.5 c 128,-1,25
 399 1349 399 1349 406.5 1340 c 128,-1,26
 414 1331 414 1331 416.5 1319 c 128,-1,27
 419 1307 419 1307 418 1295 c 2,28,-1
 410 1159 l 2,29,30
 409 1138 409 1138 403.5 1123.5 c 128,-1,31
 398 1109 398 1109 382 1101 c 128,-1,32
 366 1093 366 1093 336 1089.5 c 128,-1,33
 306 1086 306 1086 255 1086 c 0,0,1
EndSplineSet
EndChar

StartChar: at
Encoding: 64 64 93
Width: 2089
Flags: W
LayerCount: 2
Fore
SplineSet
190 1078 m 2,0,1
 189 1180 189 1180 220.5 1264.5 c 128,-1,2
 252 1349 252 1349 310 1415.5 c 128,-1,3
 368 1482 368 1482 448 1531 c 128,-1,4
 528 1580 528 1580 624.5 1612 c 128,-1,5
 721 1644 721 1644 829 1660 c 128,-1,6
 937 1676 937 1676 1051 1676 c 256,7,8
 1165 1676 1165 1676 1273.5 1660 c 128,-1,9
 1382 1644 1382 1644 1478 1612 c 128,-1,10
 1574 1580 1574 1580 1654.5 1531 c 128,-1,11
 1735 1482 1735 1482 1793 1415.5 c 128,-1,12
 1851 1349 1851 1349 1882.5 1264.5 c 128,-1,13
 1914 1180 1914 1180 1913 1078 c 2,14,-1
 1905 282 l 1,15,16
 1903 200 1903 200 1882 146 c 128,-1,17
 1861 92 1861 92 1823 59.5 c 128,-1,18
 1785 27 1785 27 1730 13.5 c 128,-1,19
 1675 0 1675 0 1606 0 c 2,20,-1
 1348 0 l 2,21,22
 1319 0 1319 0 1294 3.5 c 128,-1,23
 1269 7 1269 7 1249 17.5 c 128,-1,24
 1229 28 1229 28 1215 47 c 128,-1,25
 1201 66 1201 66 1195 96 c 1,26,27
 1144 46 1144 46 1081.5 15.5 c 128,-1,28
 1019 -15 1019 -15 944 -15 c 0,29,30
 888 -15 888 -15 836 -1.5 c 128,-1,31
 784 12 784 12 743.5 46 c 128,-1,32
 703 80 703 80 677.5 139 c 128,-1,33
 652 198 652 198 650 288 c 2,34,-1
 637 857 l 2,35,36
 635 929 635 929 654.5 986 c 128,-1,37
 674 1043 674 1043 712.5 1082.5 c 128,-1,38
 751 1122 751 1122 806.5 1143 c 128,-1,39
 862 1164 862 1164 931 1164 c 0,40,41
 972 1164 972 1164 1005.5 1156.5 c 128,-1,42
 1039 1149 1039 1149 1065.5 1136.5 c 128,-1,43
 1092 1124 1092 1124 1113 1108.5 c 128,-1,44
 1134 1093 1134 1093 1149 1077 c 1,45,-1
 1149 1080 l 1,46,47
 1148 1101 1148 1101 1154 1115.5 c 128,-1,48
 1160 1130 1160 1130 1177 1138 c 128,-1,49
 1194 1146 1194 1146 1224 1149.5 c 128,-1,50
 1254 1153 1254 1153 1302 1153 c 256,51,52
 1350 1153 1350 1153 1380.5 1149.5 c 128,-1,53
 1411 1146 1411 1146 1428 1138 c 128,-1,54
 1445 1130 1445 1130 1451 1115.5 c 128,-1,55
 1457 1101 1457 1101 1456 1080 c 2,56,-1
 1430 144 l 1,57,-1
 1595 144 l 2,58,59
 1644 144 1644 144 1671.5 175 c 128,-1,60
 1699 206 1699 206 1697 282 c 1,61,-1
 1689 1054 l 2,62,63
 1687 1174 1687 1174 1637.5 1254.5 c 128,-1,64
 1588 1335 1588 1335 1502 1384.5 c 128,-1,65
 1416 1434 1416 1434 1300 1455 c 128,-1,66
 1184 1476 1184 1476 1051 1476 c 256,67,68
 918 1476 918 1476 802.5 1455 c 128,-1,69
 687 1434 687 1434 601 1384.5 c 128,-1,70
 515 1335 515 1335 465 1254.5 c 128,-1,71
 415 1174 415 1174 414 1054 c 2,72,-1
 406 132 l 2,73,74
 405 52 405 52 426.5 -10.5 c 128,-1,75
 448 -73 448 -73 486.5 -120 c 128,-1,76
 525 -167 525 -167 578 -199.5 c 128,-1,77
 631 -232 631 -232 694.5 -252.5 c 128,-1,78
 758 -273 758 -273 828.5 -282.5 c 128,-1,79
 899 -292 899 -292 972 -292 c 2,80,-1
 1242 -292 l 2,81,82
 1264 -292 1264 -292 1276.5 -296 c 128,-1,83
 1289 -300 1289 -300 1295 -308 c 128,-1,84
 1301 -316 1301 -316 1302.5 -329 c 128,-1,85
 1304 -342 1304 -342 1304 -361 c 0,86,87
 1304 -384 1304 -384 1302.5 -399 c 128,-1,88
 1301 -414 1301 -414 1295 -424 c 128,-1,89
 1289 -434 1289 -434 1276.5 -438 c 128,-1,90
 1264 -442 1264 -442 1242 -442 c 2,91,-1
 972 -442 l 2,92,93
 810 -442 810 -442 669.5 -411 c 128,-1,94
 529 -380 529 -380 425 -312 c 128,-1,95
 321 -244 321 -244 260.5 -134.5 c 128,-1,96
 200 -25 200 -25 198 132 c 2,97,-1
 190 1078 l 2,0,1
910 288 m 2,98,99
 909 248 909 248 918.5 221.5 c 128,-1,100
 928 195 928 195 946 179.5 c 128,-1,101
 964 164 964 164 988.5 157.5 c 128,-1,102
 1013 151 1013 151 1042 151 c 0,103,104
 1088 151 1088 151 1121 169 c 128,-1,105
 1154 187 1154 187 1175 210 c 1,106,-1
 1153 946 l 1,107,108
 1133 966 1133 966 1104.5 981.5 c 128,-1,109
 1076 997 1076 997 1047 997 c 0,110,111
 985 997 985 997 956.5 961.5 c 128,-1,112
 928 926 928 926 926 857 c 2,113,-1
 910 288 l 2,98,99
EndSplineSet
EndChar

StartChar: cent
Encoding: 162 162 94
Width: 1062
Flags: W
LayerCount: 2
Fore
SplineSet
111 910 m 2,0,1
 108 977 108 977 133 1028.5 c 128,-1,2
 158 1080 158 1080 202.5 1116.5 c 128,-1,3
 247 1153 247 1153 307 1175.5 c 128,-1,4
 367 1198 367 1198 435 1207 c 1,5,-1
 429 1457 l 2,6,7
 429 1478 429 1478 433 1492.5 c 128,-1,8
 437 1507 437 1507 449.5 1515 c 128,-1,9
 462 1523 462 1523 485 1526.5 c 128,-1,10
 508 1530 508 1530 546 1530 c 256,11,12
 584 1530 584 1530 607 1527 c 128,-1,13
 630 1524 630 1524 642.5 1515.5 c 128,-1,14
 655 1507 655 1507 659 1493 c 128,-1,15
 663 1479 663 1479 663 1458 c 2,16,-1
 657 1205 l 1,17,18
 724 1195 724 1195 782 1172.5 c 128,-1,19
 840 1150 840 1150 883 1113.5 c 128,-1,20
 926 1077 926 1077 949.5 1026.5 c 128,-1,21
 973 976 973 976 971 910 c 2,22,-1
 961 599 l 2,23,24
 960 580 960 580 954 569 c 128,-1,25
 948 558 948 558 932 552 c 128,-1,26
 916 546 916 546 887 544 c 128,-1,27
 858 542 858 542 812 542 c 0,28,29
 765 542 765 542 736 544 c 128,-1,30
 707 546 707 546 691 552 c 128,-1,31
 675 558 675 558 669.5 569 c 128,-1,32
 664 580 664 580 663 599 c 2,33,-1
 654 927 l 2,34,35
 653 969 653 969 644.5 995 c 128,-1,36
 636 1021 636 1021 621 1035 c 128,-1,37
 606 1049 606 1049 586 1053.5 c 128,-1,38
 566 1058 566 1058 541 1058 c 256,39,40
 516 1058 516 1058 496 1053.5 c 128,-1,41
 476 1049 476 1049 461 1035 c 128,-1,42
 446 1021 446 1021 437.5 995 c 128,-1,43
 429 969 429 969 428 927 c 2,44,-1
 408 268 l 2,45,46
 407 230 407 230 414.5 204 c 128,-1,47
 422 178 422 178 438.5 162 c 128,-1,48
 455 146 455 146 480.5 139 c 128,-1,49
 506 132 506 132 541 132 c 0,50,51
 611 132 611 132 642.5 160 c 128,-1,52
 674 188 674 188 674 259 c 2,53,-1
 674 290 l 2,54,55
 674 309 674 309 679 321.5 c 128,-1,56
 684 334 684 334 698.5 341.5 c 128,-1,57
 713 349 713 349 740 352 c 128,-1,58
 767 355 767 355 812 355 c 0,59,60
 856 355 856 355 883 352 c 128,-1,61
 910 349 910 349 924.5 341.5 c 128,-1,62
 939 334 939 334 944 322 c 128,-1,63
 949 310 949 310 949 291 c 2,64,-1
 949 267 l 2,65,66
 949 200 949 200 924 152 c 128,-1,67
 899 104 899 104 856 71 c 128,-1,68
 813 38 813 38 756 19.5 c 128,-1,69
 699 1 699 1 636 -6 c 1,70,-1
 632 -186 l 2,71,72
 632 -205 632 -205 628 -216.5 c 128,-1,73
 624 -228 624 -228 614.5 -234 c 128,-1,74
 605 -240 605 -240 588.5 -242 c 128,-1,75
 572 -244 572 -244 547 -244 c 0,76,77
 521 -244 521 -244 505 -242.5 c 128,-1,78
 489 -241 489 -241 479.5 -235 c 128,-1,79
 470 -229 470 -229 466 -217.5 c 128,-1,80
 462 -206 462 -206 462 -187 c 2,81,-1
 457 -7 l 1,82,83
 392 -1 392 -1 334.5 18 c 128,-1,84
 277 37 277 37 233.5 70.5 c 128,-1,85
 190 104 190 104 163.5 154.5 c 128,-1,86
 137 205 137 205 134 276 c 2,87,-1
 111 910 l 2,0,1
EndSplineSet
EndChar

StartChar: bar
Encoding: 124 124 95
Width: 508
Flags: W
LayerCount: 2
Fore
SplineSet
137 1651 m 2,0,1
 137 1672 137 1672 141 1686.5 c 128,-1,2
 145 1701 145 1701 157.5 1709 c 128,-1,3
 170 1717 170 1717 193 1720.5 c 128,-1,4
 216 1724 216 1724 254 1724 c 256,5,6
 292 1724 292 1724 315 1721 c 128,-1,7
 338 1718 338 1718 350.5 1709.5 c 128,-1,8
 363 1701 363 1701 367 1687 c 128,-1,9
 371 1673 371 1673 371 1652 c 2,10,-1
 340 -362 l 2,11,12
 340 -381 340 -381 336 -392.5 c 128,-1,13
 332 -404 332 -404 322.5 -410 c 128,-1,14
 313 -416 313 -416 296.5 -418 c 128,-1,15
 280 -420 280 -420 255 -420 c 0,16,17
 229 -420 229 -420 213 -418.5 c 128,-1,18
 197 -417 197 -417 187.5 -411 c 128,-1,19
 178 -405 178 -405 174 -393.5 c 128,-1,20
 170 -382 170 -382 170 -363 c 2,21,-1
 137 1651 l 2,0,1
EndSplineSet
EndChar

StartChar: dollar
Encoding: 36 36 96
Width: 1170
Flags: W
LayerCount: 2
Fore
SplineSet
144 415 m 2,0,1
 143 445 143 445 148 463.5 c 128,-1,2
 153 482 153 482 168.5 491.5 c 128,-1,3
 184 501 184 501 212 504 c 128,-1,4
 240 507 240 507 286 507 c 256,5,6
 332 507 332 507 363 504 c 128,-1,7
 394 501 394 501 412.5 491.5 c 128,-1,8
 431 482 431 482 438.5 463.5 c 128,-1,9
 446 445 446 445 445 415 c 2,10,-1
 441 296 l 2,11,12
 439 254 439 254 447.5 226 c 128,-1,13
 456 198 456 198 475.5 181.5 c 128,-1,14
 495 165 495 165 526 158 c 128,-1,15
 557 151 557 151 601 151 c 0,16,17
 646 151 646 151 677.5 158 c 128,-1,18
 709 165 709 165 728 181.5 c 128,-1,19
 747 198 747 198 755 226 c 128,-1,20
 763 254 763 254 763 296 c 2,21,-1
 762 361 l 2,22,23
 762 396 762 396 759 424.5 c 128,-1,24
 756 453 756 453 746.5 476 c 128,-1,25
 737 499 737 499 718.5 517 c 128,-1,26
 700 535 700 535 667 549 c 2,27,-1
 320 697 l 2,28,29
 263 722 263 722 225 753 c 128,-1,30
 187 784 187 784 164.5 824 c 128,-1,31
 142 864 142 864 132 914 c 128,-1,32
 122 964 122 964 120 1026 c 2,33,-1
 110 1365 l 2,34,35
 108 1432 108 1432 128.5 1488.5 c 128,-1,36
 149 1545 149 1545 195.5 1588 c 128,-1,37
 242 1631 242 1631 314.5 1659 c 128,-1,38
 387 1687 387 1687 489 1696 c 1,39,-1
 485 1873 l 2,40,41
 485 1894 485 1894 489 1907.5 c 128,-1,42
 493 1921 493 1921 505.5 1929.5 c 128,-1,43
 518 1938 518 1938 541 1941 c 128,-1,44
 564 1944 564 1944 602 1944 c 256,45,46
 640 1944 640 1944 663 1941 c 128,-1,47
 686 1938 686 1938 698.5 1930 c 128,-1,48
 711 1922 711 1922 715 1908.5 c 128,-1,49
 719 1895 719 1895 719 1874 c 2,50,-1
 715 1695 l 1,51,52
 812 1684 812 1684 881.5 1655.5 c 128,-1,53
 951 1627 951 1627 995 1584.5 c 128,-1,54
 1039 1542 1039 1542 1059 1486.5 c 128,-1,55
 1079 1431 1079 1431 1078 1365 c 2,56,-1
 1068 965 l 2,57,58
 1067 935 1067 935 1059 916.5 c 128,-1,59
 1051 898 1051 898 1032 888.5 c 128,-1,60
 1013 879 1013 879 981.5 876 c 128,-1,61
 950 873 950 873 904 873 c 0,62,63
 857 873 857 873 825.5 876 c 128,-1,64
 794 879 794 879 775 888.5 c 128,-1,65
 756 898 756 898 748 916.5 c 128,-1,66
 740 935 740 935 739 965 c 2,67,-1
 727 1396 l 2,68,69
 726 1440 726 1440 717 1466 c 128,-1,70
 708 1492 708 1492 691.5 1506 c 128,-1,71
 675 1520 675 1520 650.5 1524.5 c 128,-1,72
 626 1529 626 1529 594 1529 c 256,73,74
 562 1529 562 1529 537.5 1524.5 c 128,-1,75
 513 1520 513 1520 496.5 1506 c 128,-1,76
 480 1492 480 1492 471 1466 c 128,-1,77
 462 1440 462 1440 461 1396 c 2,78,-1
 450 997 l 2,79,80
 449 959 449 959 453.5 930.5 c 128,-1,81
 458 902 458 902 470.5 880 c 128,-1,82
 483 858 483 858 504 841 c 128,-1,83
 525 824 525 824 558 810 c 2,84,-1
 882 674 l 2,85,86
 935 652 935 652 970.5 626.5 c 128,-1,87
 1006 601 1006 601 1027 565 c 128,-1,88
 1048 529 1048 529 1055.5 479 c 128,-1,89
 1063 429 1063 429 1059 357 c 1,90,-1
 1057 301 l 2,91,92
 1055 242 1055 242 1033.5 190 c 128,-1,93
 1012 138 1012 138 968 97 c 128,-1,94
 924 56 924 56 856 28.5 c 128,-1,95
 788 1 788 1 692 -8 c 1,96,-1
 688 -182 l 2,97,98
 688 -200 688 -200 684 -211.5 c 128,-1,99
 680 -223 680 -223 670.5 -229 c 128,-1,100
 661 -235 661 -235 644.5 -237 c 128,-1,101
 628 -239 628 -239 603 -239 c 0,102,103
 577 -239 577 -239 561 -237.5 c 128,-1,104
 545 -236 545 -236 535.5 -230 c 128,-1,105
 526 -224 526 -224 522 -212.5 c 128,-1,106
 518 -201 518 -201 518 -183 c 2,107,-1
 513 -8 l 1,108,109
 416 1 416 1 347.5 29 c 128,-1,110
 279 57 279 57 234.5 98.5 c 128,-1,111
 190 140 190 140 169 193 c 128,-1,112
 148 246 148 246 147 305 c 2,113,-1
 144 415 l 2,0,1
EndSplineSet
EndChar

StartChar: Euro
Encoding: 8364 8364 97
Width: 1271
Flags: W
LayerCount: 2
Fore
SplineSet
259 372 m 1,0,-1
 182 372 l 2,1,2
 156 372 156 372 141.5 376.5 c 128,-1,3
 127 381 127 381 120 391 c 128,-1,4
 113 401 113 401 111.5 418 c 128,-1,5
 110 435 110 435 110 459 c 256,6,7
 110 483 110 483 111.5 499.5 c 128,-1,8
 113 516 113 516 120 526 c 128,-1,9
 127 536 127 536 141.5 540.5 c 128,-1,10
 156 545 156 545 182 545 c 2,11,-1
 255 545 l 1,12,-1
 251 705 l 1,13,-1
 186 705 l 2,14,15
 160 705 160 705 145.5 709.5 c 128,-1,16
 131 714 131 714 124 724 c 128,-1,17
 117 734 117 734 115.5 750.5 c 128,-1,18
 114 767 114 767 114 791 c 0,19,20
 114 818 114 818 115.5 836.5 c 128,-1,21
 117 855 117 855 124 866 c 128,-1,22
 131 877 131 877 145.5 882 c 128,-1,23
 160 887 160 887 186 887 c 2,24,-1
 246 887 l 1,25,-1
 234 1360 l 2,26,27
 232 1435 232 1435 257 1497 c 128,-1,28
 282 1559 282 1559 337 1603 c 128,-1,29
 392 1647 392 1647 479.5 1671.5 c 128,-1,30
 567 1696 567 1696 690 1696 c 256,31,32
 813 1696 813 1696 900.5 1671.5 c 128,-1,33
 988 1647 988 1647 1043 1603 c 128,-1,34
 1098 1559 1098 1559 1121.5 1497 c 128,-1,35
 1145 1435 1145 1435 1141 1360 c 2,36,-1
 1130 1087 l 2,37,38
 1128 1056 1128 1056 1120 1038 c 128,-1,39
 1112 1020 1112 1020 1094 1010.5 c 128,-1,40
 1076 1001 1076 1001 1047 998 c 128,-1,41
 1018 995 1018 995 974 995 c 256,42,43
 930 995 930 995 901 998 c 128,-1,44
 872 1001 872 1001 854.5 1010.5 c 128,-1,45
 837 1020 837 1020 829 1038 c 128,-1,46
 821 1056 821 1056 820 1087 c 2,47,-1
 813 1391 l 2,48,49
 811 1435 811 1435 802.5 1461 c 128,-1,50
 794 1487 794 1487 779 1501 c 128,-1,51
 764 1515 764 1515 742 1519.5 c 128,-1,52
 720 1524 720 1524 690 1524 c 256,53,54
 660 1524 660 1524 637.5 1519.5 c 128,-1,55
 615 1515 615 1515 599.5 1501 c 128,-1,56
 584 1487 584 1487 576 1461 c 128,-1,57
 568 1435 568 1435 567 1391 c 2,58,-1
 553 887 l 1,59,-1
 805 887 l 2,60,61
 831 887 831 887 845.5 882 c 128,-1,62
 860 877 860 877 867 865.5 c 128,-1,63
 874 854 874 854 875.5 835.5 c 128,-1,64
 877 817 877 817 877 790 c 0,65,66
 877 766 877 766 875.5 749.5 c 128,-1,67
 874 733 874 733 867 723 c 128,-1,68
 860 713 860 713 845.5 709 c 128,-1,69
 831 705 831 705 805 705 c 2,70,-1
 548 705 l 1,71,-1
 543 545 l 1,72,-1
 804 545 l 2,73,74
 830 545 830 545 844.5 540.5 c 128,-1,75
 859 536 859 536 866 526 c 128,-1,76
 873 516 873 516 874.5 499 c 128,-1,77
 876 482 876 482 876 458 c 256,78,79
 876 434 876 434 874.5 417.5 c 128,-1,80
 873 401 873 401 866 391 c 128,-1,81
 859 381 859 381 844.5 376.5 c 128,-1,82
 830 372 830 372 804 372 c 2,83,-1
 538 372 l 1,84,-1
 537 323 l 2,85,86
 536 281 536 281 544.5 255.5 c 128,-1,87
 553 230 553 230 572.5 216 c 128,-1,88
 592 202 592 202 623.5 197.5 c 128,-1,89
 655 193 655 193 700 193 c 2,90,-1
 948 193 l 2,91,92
 974 193 974 193 988.5 188 c 128,-1,93
 1003 183 1003 183 1010 172 c 128,-1,94
 1017 161 1017 161 1018.5 142 c 128,-1,95
 1020 123 1020 123 1020 96 c 256,96,97
 1020 69 1020 69 1018.5 50.5 c 128,-1,98
 1017 32 1017 32 1010 21 c 128,-1,99
 1003 10 1003 10 988.5 5 c 128,-1,100
 974 0 974 0 948 0 c 2,101,-1
 700 0 l 2,102,103
 588 0 588 0 506.5 21.5 c 128,-1,104
 425 43 425 43 371 81.5 c 128,-1,105
 317 120 317 120 290.5 173 c 128,-1,106
 264 226 264 226 262 289 c 2,107,-1
 259 372 l 1,0,-1
EndSplineSet
EndChar

StartChar: yen
Encoding: 165 165 98
Width: 1135
Flags: W
LayerCount: 2
Fore
SplineSet
230 307 m 1,0,1
 204 307 204 307 189.5 311.5 c 128,-1,2
 175 316 175 316 168 326 c 128,-1,3
 161 336 161 336 159.5 352.5 c 128,-1,4
 158 369 158 369 158 393 c 256,5,6
 158 417 158 417 159.5 433.5 c 128,-1,7
 161 450 161 450 168 460 c 128,-1,8
 175 470 175 470 189.5 474.5 c 128,-1,9
 204 479 204 479 230 479 c 2,10,-1
 418 479 l 1,11,-1
 415 630 l 1,12,-1
 404 658 l 1,13,-1
 214 658 l 2,14,15
 188 658 188 658 173.5 662.5 c 128,-1,16
 159 667 159 667 152 677 c 128,-1,17
 145 687 145 687 143.5 703.5 c 128,-1,18
 142 720 142 720 142 744 c 0,19,20
 142 771 142 771 143.5 789.5 c 128,-1,21
 145 808 145 808 152 819 c 128,-1,22
 159 830 159 830 173.5 835 c 128,-1,23
 188 840 188 840 214 840 c 2,24,-1
 331 840 l 1,25,-1
 52 1541 l 2,26,27
 42 1568 42 1568 36 1590 c 128,-1,28
 30 1612 30 1612 30 1632 c 0,29,30
 30 1651 30 1651 38 1662.5 c 128,-1,31
 46 1674 46 1674 66 1680 c 128,-1,32
 86 1686 86 1686 121.5 1688 c 128,-1,33
 157 1690 157 1690 213 1690 c 256,34,35
 269 1690 269 1690 302.5 1688 c 128,-1,36
 336 1686 336 1686 355.5 1677.5 c 128,-1,37
 375 1669 375 1669 384.5 1651.5 c 128,-1,38
 394 1634 394 1634 400 1602 c 2,39,-1
 567 835 l 1,40,-1
 569 835 l 1,41,-1
 735 1602 l 2,42,43
 742 1634 742 1634 751 1652 c 128,-1,44
 760 1670 760 1670 779.5 1678.5 c 128,-1,45
 799 1687 799 1687 832.5 1688.5 c 128,-1,46
 866 1690 866 1690 922 1690 c 0,47,48
 977 1690 977 1690 1013 1688 c 128,-1,49
 1049 1686 1049 1686 1069 1680 c 128,-1,50
 1089 1674 1089 1674 1097 1662.5 c 128,-1,51
 1105 1651 1105 1651 1105 1632 c 0,52,53
 1105 1612 1105 1612 1098 1590.5 c 128,-1,54
 1091 1569 1091 1569 1082 1541 c 1,55,-1
 806 840 l 1,56,-1
 949 840 l 2,57,58
 975 840 975 840 989.5 835 c 128,-1,59
 1004 830 1004 830 1011 818.5 c 128,-1,60
 1018 807 1018 807 1019.5 788.5 c 128,-1,61
 1021 770 1021 770 1021 743 c 0,62,63
 1021 719 1021 719 1019.5 702.5 c 128,-1,64
 1018 686 1018 686 1011 676 c 128,-1,65
 1004 666 1004 666 989.5 662 c 128,-1,66
 975 658 975 658 949 658 c 2,67,-1
 735 658 l 1,68,-1
 721 623 l 1,69,-1
 717 479 l 1,70,-1
 932 479 l 2,71,72
 958 479 958 479 972.5 474.5 c 128,-1,73
 987 470 987 470 994 460 c 128,-1,74
 1001 450 1001 450 1002.5 433.5 c 128,-1,75
 1004 417 1004 417 1004 392 c 0,76,77
 1004 368 1004 368 1002.5 351.5 c 128,-1,78
 1001 335 1001 335 994 325 c 128,-1,79
 987 315 987 315 972.5 311 c 128,-1,80
 958 307 958 307 932 307 c 2,81,-1
 713 307 l 1,82,-1
 708 68 l 2,83,84
 707 45 707 45 702.5 31.5 c 128,-1,85
 698 18 698 18 683.5 11 c 128,-1,86
 669 4 669 4 641.5 2 c 128,-1,87
 614 0 614 0 568 0 c 0,88,89
 521 0 521 0 494 2 c 128,-1,90
 467 4 467 4 452.5 11 c 128,-1,91
 438 18 438 18 433.5 31.5 c 128,-1,92
 429 45 429 45 428 68 c 2,93,-1
 422 307 l 1,94,-1
 230 307 l 1,95,-1
 230 307 l 1,0,1
EndSplineSet
EndChar

StartChar: paragraph
Encoding: 182 182 99
Width: 1277
Flags: W
LayerCount: 2
Fore
SplineSet
866 1651 m 2,0,1
 866 1672 866 1672 871 1686.5 c 128,-1,2
 876 1701 876 1701 891.5 1709 c 128,-1,3
 907 1717 907 1717 935 1720.5 c 128,-1,4
 963 1724 963 1724 1008 1724 c 0,5,6
 1054 1724 1054 1724 1082 1721 c 128,-1,7
 1110 1718 1110 1718 1125 1709.5 c 128,-1,8
 1140 1701 1140 1701 1145 1687 c 128,-1,9
 1150 1673 1150 1673 1150 1652 c 2,10,-1
 1112 58 l 2,11,12
 1111 39 1111 39 1106.5 27.5 c 128,-1,13
 1102 16 1102 16 1090.5 10 c 128,-1,14
 1079 4 1079 4 1059.5 2 c 128,-1,15
 1040 0 1040 0 1009 0 c 256,16,17
 978 0 978 0 958.5 2 c 128,-1,18
 939 4 939 4 927.5 10 c 128,-1,19
 916 16 916 16 911.5 27 c 128,-1,20
 907 38 907 38 907 57 c 2,21,-1
 866 1651 l 2,0,1
436 708 m 1,22,23
 335 722 335 722 271.5 754 c 128,-1,24
 208 786 208 786 171.5 827.5 c 128,-1,25
 135 869 135 869 121 915 c 128,-1,26
 107 961 107 961 106 1003 c 1,27,-1
 86 1422 l 2,28,29
 84 1478 84 1478 103.5 1522 c 128,-1,30
 123 1566 123 1566 159 1599.5 c 128,-1,31
 195 1633 195 1633 243 1656.5 c 128,-1,32
 291 1680 291 1680 346 1694.5 c 128,-1,33
 401 1709 401 1709 459 1715.5 c 128,-1,34
 517 1722 517 1722 572 1722 c 0,35,36
 609 1722 609 1722 633.5 1719 c 128,-1,37
 658 1716 658 1716 672.5 1708.5 c 128,-1,38
 687 1701 687 1701 692 1687 c 128,-1,39
 697 1673 697 1673 697 1652 c 2,40,-1
 659 58 l 2,41,42
 659 39 659 39 654 27.5 c 128,-1,43
 649 16 649 16 638 10 c 128,-1,44
 627 4 627 4 607 2 c 128,-1,45
 587 0 587 0 557 0 c 0,46,47
 526 0 526 0 506 2 c 128,-1,48
 486 4 486 4 474.5 10 c 128,-1,49
 463 16 463 16 458.5 27 c 128,-1,50
 454 38 454 38 454 57 c 2,51,-1
 436 708 l 1,22,23
EndSplineSet
EndChar

StartChar: ae
Encoding: 230 230 100
Width: 1606
Flags: W
LayerCount: 2
Fore
SplineSet
109 291 m 2,0,1
 108 347 108 347 133 389 c 128,-1,2
 158 431 158 431 198 463 c 128,-1,3
 238 495 238 495 287.5 517.5 c 128,-1,4
 337 540 337 540 386 557 c 1,5,6
 452 578 452 578 524.5 593.5 c 128,-1,7
 597 609 597 609 666 620 c 1,8,-1
 655 972 l 1,9,10
 648 1016 648 1016 623.5 1037 c 128,-1,11
 599 1058 599 1058 550 1058 c 0,12,13
 524 1058 524 1058 503 1054 c 128,-1,14
 482 1050 482 1050 466.5 1038 c 128,-1,15
 451 1026 451 1026 442 1005 c 128,-1,16
 433 984 433 984 432 951 c 2,17,-1
 425 724 l 2,18,19
 425 705 425 705 419.5 694 c 128,-1,20
 414 683 414 683 398 677 c 128,-1,21
 382 671 382 671 352.5 669 c 128,-1,22
 323 667 323 667 274 667 c 0,23,24
 229 667 229 667 201 669 c 128,-1,25
 173 671 173 671 158 677 c 128,-1,26
 143 683 143 683 138 694 c 128,-1,27
 133 705 133 705 132 724 c 2,28,-1
 124 958 l 2,29,30
 122 1006 122 1006 141 1043.5 c 128,-1,31
 160 1081 160 1081 192 1109.5 c 128,-1,32
 224 1138 224 1138 266 1158 c 128,-1,33
 308 1178 308 1178 353 1190.5 c 128,-1,34
 398 1203 398 1203 442 1208.5 c 128,-1,35
 486 1214 486 1214 522 1214 c 0,36,37
 621 1214 621 1214 701.5 1193 c 128,-1,38
 782 1172 782 1172 841 1134 c 1,39,40
 894 1171 894 1171 965 1192.5 c 128,-1,41
 1036 1214 1036 1214 1131 1214 c 0,42,43
 1191 1214 1191 1214 1258.5 1196.5 c 128,-1,44
 1326 1179 1326 1179 1381.5 1142 c 128,-1,45
 1437 1105 1437 1105 1472.5 1047.5 c 128,-1,46
 1508 990 1508 990 1505 910 c 2,47,-1
 1490 541 l 2,48,49
 1489 522 1489 522 1483.5 511 c 128,-1,50
 1478 500 1478 500 1463 494 c 128,-1,51
 1448 488 1448 488 1420.5 486 c 128,-1,52
 1393 484 1393 484 1348 484 c 2,53,-1
 956 484 l 1,54,-1
 950 250 l 2,55,56
 948 187 948 187 985.5 159.5 c 128,-1,57
 1023 132 1023 132 1092 132 c 0,58,59
 1124 132 1124 132 1147.5 136.5 c 128,-1,60
 1171 141 1171 141 1186 154 c 128,-1,61
 1201 167 1201 167 1208.5 189 c 128,-1,62
 1216 211 1216 211 1216 247 c 2,63,-1
 1216 290 l 2,64,65
 1216 309 1216 309 1220.5 321.5 c 128,-1,66
 1225 334 1225 334 1238.5 341.5 c 128,-1,67
 1252 349 1252 349 1277.5 352 c 128,-1,68
 1303 355 1303 355 1344 355 c 0,69,70
 1388 355 1388 355 1415 352 c 128,-1,71
 1442 349 1442 349 1456.5 341.5 c 128,-1,72
 1471 334 1471 334 1475.5 322 c 128,-1,73
 1480 310 1480 310 1480 291 c 2,74,-1
 1480 247 l 2,75,76
 1480 168 1480 168 1446 118 c 128,-1,77
 1412 68 1412 68 1356.5 39 c 128,-1,78
 1301 10 1301 10 1229.5 -1 c 128,-1,79
 1158 -12 1158 -12 1083 -12 c 0,80,81
 1039 -12 1039 -12 993.5 -4.5 c 128,-1,82
 948 3 948 3 903.5 19.5 c 128,-1,83
 859 36 859 36 817 62.5 c 128,-1,84
 775 89 775 89 740 126 c 1,85,86
 714 102 714 102 680 77.5 c 128,-1,87
 646 53 646 53 605.5 33 c 128,-1,88
 565 13 565 13 518.5 0.5 c 128,-1,89
 472 -12 472 -12 421 -12 c 0,90,91
 344 -12 344 -12 286 7.5 c 128,-1,92
 228 27 228 27 189 60.5 c 128,-1,93
 150 94 150 94 130.5 139.5 c 128,-1,94
 111 185 111 185 110 237 c 2,95,-1
 109 291 l 2,0,1
1208 634 m 1,96,-1
 1198 927 l 2,97,98
 1197 969 1197 969 1188.5 995 c 128,-1,99
 1180 1021 1180 1021 1165.5 1035 c 128,-1,100
 1151 1049 1151 1049 1131.5 1053.5 c 128,-1,101
 1112 1058 1112 1058 1090 1058 c 0,102,103
 1065 1058 1065 1058 1043.5 1053.5 c 128,-1,104
 1022 1049 1022 1049 1006 1035 c 128,-1,105
 990 1021 990 1021 980 995 c 128,-1,106
 970 969 970 969 969 927 c 2,107,-1
 960 634 l 1,108,-1
 1208 634 l 1,96,-1
383 267 m 2,109,110
 383 237 383 237 392 215.5 c 128,-1,111
 401 194 401 194 416 180.5 c 128,-1,112
 431 167 431 167 451.5 160.5 c 128,-1,113
 472 154 472 154 496 154 c 0,114,115
 559 154 559 154 604 174.5 c 128,-1,116
 649 195 649 195 679 221 c 1,117,-1
 670 476 l 1,118,119
 613 466 613 466 569.5 454 c 128,-1,120
 526 442 526 442 493 428 c 1,121,122
 443 405 443 405 413 377.5 c 128,-1,123
 383 350 383 350 383 306 c 2,124,-1
 383 267 l 2,109,110
EndSplineSet
EndChar

StartChar: oe
Encoding: 339 339 101
Width: 1596
Flags: W
LayerCount: 2
Fore
SplineSet
111 910 m 2,0,1
 108 990 108 990 143.5 1047.5 c 128,-1,2
 179 1105 179 1105 238 1142 c 128,-1,3
 297 1179 297 1179 372.5 1196.5 c 128,-1,4
 448 1214 448 1214 526 1214 c 0,5,6
 621 1214 621 1214 690.5 1192 c 128,-1,7
 760 1170 760 1170 819 1125 c 1,8,9
 865 1160 865 1160 938.5 1187 c 128,-1,10
 1012 1214 1012 1214 1121 1214 c 0,11,12
 1181 1214 1181 1214 1248.5 1196.5 c 128,-1,13
 1316 1179 1316 1179 1371.5 1142 c 128,-1,14
 1427 1105 1427 1105 1462.5 1047.5 c 128,-1,15
 1498 990 1498 990 1495 910 c 2,16,-1
 1480 541 l 2,17,18
 1479 522 1479 522 1473.5 511 c 128,-1,19
 1468 500 1468 500 1453 494 c 128,-1,20
 1438 488 1438 488 1410.5 486 c 128,-1,21
 1383 484 1383 484 1338 484 c 2,22,-1
 946 484 l 1,23,-1
 940 250 l 2,24,25
 938 187 938 187 975.5 159.5 c 128,-1,26
 1013 132 1013 132 1082 132 c 0,27,28
 1114 132 1114 132 1137.5 136.5 c 128,-1,29
 1161 141 1161 141 1176 154 c 128,-1,30
 1191 167 1191 167 1198.5 189 c 128,-1,31
 1206 211 1206 211 1206 247 c 2,32,-1
 1206 290 l 2,33,34
 1206 309 1206 309 1210.5 321.5 c 128,-1,35
 1215 334 1215 334 1228.5 341.5 c 128,-1,36
 1242 349 1242 349 1267.5 352 c 128,-1,37
 1293 355 1293 355 1334 355 c 0,38,39
 1378 355 1378 355 1405 352 c 128,-1,40
 1432 349 1432 349 1446.5 341.5 c 128,-1,41
 1461 334 1461 334 1465.5 322 c 128,-1,42
 1470 310 1470 310 1470 291 c 2,43,-1
 1470 247 l 2,44,45
 1470 168 1470 168 1436 118 c 128,-1,46
 1402 68 1402 68 1346.5 39 c 128,-1,47
 1291 10 1291 10 1219.5 -1 c 128,-1,48
 1148 -12 1148 -12 1073 -12 c 0,49,50
 1002 -12 1002 -12 928 8 c 128,-1,51
 854 28 854 28 788 75 c 1,52,53
 742 41 742 41 670 14.5 c 128,-1,54
 598 -12 598 -12 495 -12 c 0,55,56
 427 -12 427 -12 363.5 2.5 c 128,-1,57
 300 17 300 17 250 50.5 c 128,-1,58
 200 84 200 84 168.5 139 c 128,-1,59
 137 194 137 194 134 276 c 2,60,-1
 111 910 l 2,0,1
1198 634 m 1,61,-1
 1188 927 l 2,62,63
 1187 969 1187 969 1178.5 995 c 128,-1,64
 1170 1021 1170 1021 1155.5 1035 c 128,-1,65
 1141 1049 1141 1049 1121.5 1053.5 c 128,-1,66
 1102 1058 1102 1058 1080 1058 c 0,67,68
 1055 1058 1055 1058 1033.5 1053.5 c 128,-1,69
 1012 1049 1012 1049 996 1035 c 128,-1,70
 980 1021 980 1021 970 995 c 128,-1,71
 960 969 960 969 959 927 c 2,72,-1
 950 634 l 1,73,-1
 1198 634 l 1,61,-1
408 268 m 2,74,75
 407 230 407 230 414.5 204 c 128,-1,76
 422 178 422 178 438.5 162 c 128,-1,77
 455 146 455 146 480.5 139 c 128,-1,78
 506 132 506 132 541 132 c 0,79,80
 560 132 560 132 582 135 c 128,-1,81
 604 138 604 138 622.5 148.5 c 128,-1,82
 641 159 641 159 653.5 180 c 128,-1,83
 666 201 666 201 668 236 c 1,84,-1
 645 976 l 1,85,86
 640 1002 640 1002 629.5 1018 c 128,-1,87
 619 1034 619 1034 604.5 1043 c 128,-1,88
 590 1052 590 1052 573.5 1055 c 128,-1,89
 557 1058 557 1058 541 1058 c 0,90,91
 516 1058 516 1058 496 1053.5 c 128,-1,92
 476 1049 476 1049 461 1035 c 128,-1,93
 446 1021 446 1021 437.5 995 c 128,-1,94
 429 969 429 969 428 927 c 2,95,-1
 408 268 l 2,74,75
EndSplineSet
EndChar

StartChar: hbar
Encoding: 295 295 102
Width: 1087
Flags: W
LayerCount: 2
Fore
SplineSet
137 1334 m 1,0,-1
 89 1334 l 2,1,2
 63 1334 63 1334 48.5 1337.5 c 128,-1,3
 34 1341 34 1341 27 1351 c 128,-1,4
 20 1361 20 1361 18.5 1378.5 c 128,-1,5
 17 1396 17 1396 17 1424 c 256,6,7
 17 1452 17 1452 18.5 1469.5 c 128,-1,8
 20 1487 20 1487 27 1497 c 128,-1,9
 34 1507 34 1507 48.5 1510.5 c 128,-1,10
 63 1514 63 1514 89 1514 c 2,11,-1
 134 1514 l 1,12,-1
 131 1651 l 2,13,14
 131 1672 131 1672 135.5 1686.5 c 128,-1,15
 140 1701 140 1701 157 1709 c 128,-1,16
 174 1717 174 1717 206.5 1720.5 c 128,-1,17
 239 1724 239 1724 293 1724 c 256,18,19
 347 1724 347 1724 379.5 1720.5 c 128,-1,20
 412 1717 412 1717 429 1709 c 128,-1,21
 446 1701 446 1701 450.5 1686.5 c 128,-1,22
 455 1672 455 1672 455 1651 c 2,23,-1
 452 1514 l 1,24,-1
 631 1514 l 2,25,26
 657 1514 657 1514 671.5 1510.5 c 128,-1,27
 686 1507 686 1507 693 1497 c 128,-1,28
 700 1487 700 1487 701.5 1469.5 c 128,-1,29
 703 1452 703 1452 703 1424 c 256,30,31
 703 1396 703 1396 701.5 1378.5 c 128,-1,32
 700 1361 700 1361 693 1351 c 128,-1,33
 686 1341 686 1341 671.5 1337.5 c 128,-1,34
 657 1334 657 1334 631 1334 c 2,35,-1
 449 1334 l 1,36,-1
 444 1082 l 1,37,38
 471 1111 471 1111 499 1135 c 128,-1,39
 527 1159 527 1159 559 1176.5 c 128,-1,40
 591 1194 591 1194 627 1204 c 128,-1,41
 663 1214 663 1214 706 1214 c 0,42,43
 767 1214 767 1214 819.5 1192 c 128,-1,44
 872 1170 872 1170 909.5 1128 c 128,-1,45
 947 1086 947 1086 967.5 1026 c 128,-1,46
 988 966 988 966 986 890 c 2,47,-1
 962 57 l 2,48,49
 962 38 962 38 957 27 c 128,-1,50
 952 16 952 16 938 10 c 128,-1,51
 924 4 924 4 898.5 2 c 128,-1,52
 873 0 873 0 831 0 c 256,53,54
 789 0 789 0 763.5 2 c 128,-1,55
 738 4 738 4 724.5 10 c 128,-1,56
 711 16 711 16 706 27 c 128,-1,57
 701 38 701 38 701 57 c 2,58,-1
 678 861 l 2,59,60
 677 900 677 900 668 926 c 128,-1,61
 659 952 659 952 644 967 c 128,-1,62
 629 982 629 982 608.5 988 c 128,-1,63
 588 994 588 994 564 994 c 0,64,65
 523 994 523 994 492 969.5 c 128,-1,66
 461 945 461 945 440 913 c 1,67,-1
 424 57 l 2,68,69
 424 38 424 38 419 27 c 128,-1,70
 414 16 414 16 400 10 c 128,-1,71
 386 4 386 4 360.5 2 c 128,-1,72
 335 0 335 0 293 0 c 256,73,74
 251 0 251 0 225.5 2 c 128,-1,75
 200 4 200 4 186.5 10 c 128,-1,76
 173 16 173 16 168 27 c 128,-1,77
 163 38 163 38 163 57 c 2,78,-1
 137 1334 l 1,0,-1
EndSplineSet
EndChar

StartChar: plus
Encoding: 43 43 103
Width: 978
Flags: W
LayerCount: 2
Fore
SplineSet
378 664 m 1,0,-1
 112 664 l 2,1,2
 86 664 86 664 72 668 c 128,-1,3
 58 672 58 672 50.5 682.5 c 128,-1,4
 43 693 43 693 41.5 712 c 128,-1,5
 40 731 40 731 40 760 c 0,6,7
 40 792 40 792 41.5 812.5 c 128,-1,8
 43 833 43 833 50.5 845 c 128,-1,9
 58 857 58 857 72 861.5 c 128,-1,10
 86 866 86 866 112 866 c 2,11,-1
 371 866 l 1,12,-1
 361 1150 l 2,13,14
 361 1176 361 1176 368 1190.5 c 128,-1,15
 375 1205 375 1205 391 1212 c 128,-1,16
 407 1219 407 1219 432.5 1220.5 c 128,-1,17
 458 1222 458 1222 494 1222 c 0,18,19
 527 1222 527 1222 550.5 1220.5 c 128,-1,20
 574 1219 574 1219 588 1212 c 128,-1,21
 602 1205 602 1205 608.5 1190.5 c 128,-1,22
 615 1176 615 1176 615 1150 c 2,23,-1
 605 866 l 1,24,-1
 866 866 l 2,25,26
 891 866 891 866 905.5 861.5 c 128,-1,27
 920 857 920 857 927.5 845 c 128,-1,28
 935 833 935 833 936.5 812 c 128,-1,29
 938 791 938 791 938 759 c 0,30,31
 938 730 938 730 936.5 711.5 c 128,-1,32
 935 693 935 693 927.5 682.5 c 128,-1,33
 920 672 920 672 905.5 668 c 128,-1,34
 891 664 891 664 866 664 c 2,35,-1
 598 664 l 1,36,-1
 589 396 l 2,37,38
 589 370 589 370 584 355.5 c 128,-1,39
 579 341 579 341 568 334 c 128,-1,40
 557 327 557 327 539 325.5 c 128,-1,41
 521 324 521 324 493 324 c 0,42,43
 462 324 462 324 442 325.5 c 128,-1,44
 422 327 422 327 410 334 c 128,-1,45
 398 341 398 341 392.5 355.5 c 128,-1,46
 387 370 387 370 387 396 c 2,47,-1
 378 664 l 1,0,-1
EndSplineSet
EndChar

StartChar: plusminus
Encoding: 177 177 104
Width: 1058
Flags: W
LayerCount: 2
Fore
SplineSet
214 169 m 2,0,1
 188 169 188 169 173.5 173 c 128,-1,2
 159 177 159 177 152 187.5 c 128,-1,3
 145 198 145 198 143.5 215.5 c 128,-1,4
 142 233 142 233 142 259 c 0,5,6
 142 288 142 288 143.5 307.5 c 128,-1,7
 145 327 145 327 152.5 338.5 c 128,-1,8
 160 350 160 350 174 354.5 c 128,-1,9
 188 359 188 359 214 359 c 2,10,-1
 844 359 l 2,11,12
 870 359 870 359 884.5 354 c 128,-1,13
 899 349 899 349 906 337.5 c 128,-1,14
 913 326 913 326 914.5 306.5 c 128,-1,15
 916 287 916 287 916 258 c 0,16,17
 916 232 916 232 914.5 214.5 c 128,-1,18
 913 197 913 197 905.5 187 c 128,-1,19
 898 177 898 177 883.5 173 c 128,-1,20
 869 169 869 169 844 169 c 2,21,-1
 214 169 l 2,0,1
418 867 m 1,22,-1
 152 867 l 2,23,24
 126 867 126 867 112 871 c 128,-1,25
 98 875 98 875 90.5 885.5 c 128,-1,26
 83 896 83 896 81.5 915 c 128,-1,27
 80 934 80 934 80 963 c 0,28,29
 80 995 80 995 81.5 1015.5 c 128,-1,30
 83 1036 83 1036 90.5 1048 c 128,-1,31
 98 1060 98 1060 112 1064.5 c 128,-1,32
 126 1069 126 1069 152 1069 c 2,33,-1
 411 1069 l 1,34,-1
 401 1353 l 2,35,36
 401 1379 401 1379 408 1393.5 c 128,-1,37
 415 1408 415 1408 431 1415 c 128,-1,38
 447 1422 447 1422 472.5 1423.5 c 128,-1,39
 498 1425 498 1425 534 1425 c 0,40,41
 567 1425 567 1425 590.5 1423.5 c 128,-1,42
 614 1422 614 1422 628 1415 c 128,-1,43
 642 1408 642 1408 648.5 1393.5 c 128,-1,44
 655 1379 655 1379 655 1353 c 2,45,-1
 645 1069 l 1,46,-1
 906 1069 l 2,47,48
 931 1069 931 1069 945.5 1064.5 c 128,-1,49
 960 1060 960 1060 967.5 1048 c 128,-1,50
 975 1036 975 1036 976.5 1015 c 128,-1,51
 978 994 978 994 978 962 c 0,52,53
 978 933 978 933 976.5 914.5 c 128,-1,54
 975 896 975 896 967.5 885.5 c 128,-1,55
 960 875 960 875 945.5 871 c 128,-1,56
 931 867 931 867 906 867 c 2,57,-1
 638 867 l 1,58,-1
 629 599 l 2,59,60
 629 573 629 573 624 558.5 c 128,-1,61
 619 544 619 544 608 537 c 128,-1,62
 597 530 597 530 579 528.5 c 128,-1,63
 561 527 561 527 533 527 c 0,64,65
 502 527 502 527 482 528.5 c 128,-1,66
 462 530 462 530 450 537 c 128,-1,67
 438 544 438 544 432.5 558.5 c 128,-1,68
 427 573 427 573 427 599 c 2,69,-1
 418 867 l 1,22,-1
EndSplineSet
EndChar

StartChar: multiply
Encoding: 215 215 105
Width: 1013
Flags: W
LayerCount: 2
Fore
SplineSet
188 340 m 0,0,1
 129 340 129 340 106.5 347.5 c 128,-1,2
 84 355 84 355 84 380 c 0,3,4
 84 396 84 396 96.5 414.5 c 128,-1,5
 109 433 109 433 131 461 c 2,6,-1
 363 762 l 1,7,-1
 94 1080 l 1,8,9
 68 1109 68 1109 54 1125.5 c 128,-1,10
 40 1142 40 1142 40 1158 c 0,11,12
 40 1170 40 1170 46.5 1178.5 c 128,-1,13
 53 1187 53 1187 69.5 1192 c 128,-1,14
 86 1197 86 1197 113.5 1199 c 128,-1,15
 141 1201 141 1201 183 1201 c 0,16,17
 222 1201 222 1201 246 1199.5 c 128,-1,18
 270 1198 270 1198 286.5 1192 c 128,-1,19
 303 1186 303 1186 315 1173.5 c 128,-1,20
 327 1161 327 1161 341 1139 c 1,21,-1
 506 905 l 1,22,-1
 672 1139 l 1,23,24
 686 1161 686 1161 698 1173.5 c 128,-1,25
 710 1186 710 1186 726.5 1192 c 128,-1,26
 743 1198 743 1198 767 1199.5 c 128,-1,27
 791 1201 791 1201 830 1201 c 0,28,29
 872 1201 872 1201 899.5 1199 c 128,-1,30
 927 1197 927 1197 943.5 1192 c 128,-1,31
 960 1187 960 1187 966.5 1178.5 c 128,-1,32
 973 1170 973 1170 973 1158 c 0,33,34
 973 1142 973 1142 958.5 1125.5 c 128,-1,35
 944 1109 944 1109 919 1080 c 2,36,-1
 650 762 l 1,37,-1
 884 461 l 2,38,39
 906 433 906 433 917.5 414.5 c 128,-1,40
 929 396 929 396 929 380 c 0,41,42
 929 355 929 355 906.5 347.5 c 128,-1,43
 884 340 884 340 825 340 c 0,44,45
 805 340 805 340 788.5 340 c 128,-1,46
 772 340 772 340 757 344 c 128,-1,47
 742 348 742 348 728 357.5 c 128,-1,48
 714 367 714 367 699 386 c 2,49,-1
 506 617 l 1,50,-1
 314 386 l 2,51,52
 299 367 299 367 285 357.5 c 128,-1,53
 271 348 271 348 256 344 c 128,-1,54
 241 340 241 340 224.5 340 c 128,-1,55
 208 340 208 340 188 340 c 0,0,1
EndSplineSet
EndChar

StartChar: divide
Encoding: 247 247 106
Width: 976
Flags: W
LayerCount: 2
Fore
SplineSet
489 1002 m 0,0,1
 444 1002 444 1002 415.5 1004.5 c 128,-1,2
 387 1007 387 1007 370.5 1013.5 c 128,-1,3
 354 1020 354 1020 348 1032 c 128,-1,4
 342 1044 342 1044 342 1063 c 2,5,-1
 333 1246 l 2,6,7
 332 1267 332 1267 338 1282 c 128,-1,8
 344 1297 344 1297 361 1306 c 128,-1,9
 378 1315 378 1315 408.5 1319 c 128,-1,10
 439 1323 439 1323 489 1323 c 0,11,12
 538 1323 538 1323 569 1319 c 128,-1,13
 600 1315 600 1315 617 1306 c 128,-1,14
 634 1297 634 1297 639.5 1282 c 128,-1,15
 645 1267 645 1267 644 1246 c 2,16,-1
 633 1063 l 2,17,18
 632 1044 632 1044 625.5 1032 c 128,-1,19
 619 1020 619 1020 602.5 1013.5 c 128,-1,20
 586 1007 586 1007 558.5 1004.5 c 128,-1,21
 531 1002 531 1002 489 1002 c 0,0,1
112 664 m 2,22,23
 86 664 86 664 72 668.5 c 128,-1,24
 58 673 58 673 50.5 684.5 c 128,-1,25
 43 696 43 696 41.5 715.5 c 128,-1,26
 40 735 40 735 40 764 c 0,27,28
 40 796 40 796 41.5 816 c 128,-1,29
 43 836 43 836 50.5 847 c 128,-1,30
 58 858 58 858 72 862 c 128,-1,31
 86 866 86 866 112 866 c 2,32,-1
 864 866 l 2,33,34
 889 866 889 866 903.5 862 c 128,-1,35
 918 858 918 858 925.5 846.5 c 128,-1,36
 933 835 933 835 934.5 815 c 128,-1,37
 936 795 936 795 936 763 c 0,38,39
 936 734 936 734 934.5 714.5 c 128,-1,40
 933 695 933 695 925.5 684 c 128,-1,41
 918 673 918 673 903.5 668.5 c 128,-1,42
 889 664 889 664 864 664 c 2,43,-1
 112 664 l 2,22,23
351 453 m 2,44,45
 350 474 350 474 353.5 488.5 c 128,-1,46
 357 503 357 503 371 511 c 128,-1,47
 385 519 385 519 413 522.5 c 128,-1,48
 441 526 441 526 489 526 c 256,49,50
 537 526 537 526 564.5 522.5 c 128,-1,51
 592 519 592 519 606.5 511 c 128,-1,52
 621 503 621 503 624.5 488.5 c 128,-1,53
 628 474 628 474 627 453 c 2,54,-1
 622 297 l 2,55,56
 621 278 621 278 616 266.5 c 128,-1,57
 611 255 611 255 597 248.5 c 128,-1,58
 583 242 583 242 557 239.5 c 128,-1,59
 531 237 531 237 489 237 c 0,60,61
 446 237 446 237 420.5 239.5 c 128,-1,62
 395 242 395 242 381 248.5 c 128,-1,63
 367 255 367 255 362.5 266.5 c 128,-1,64
 358 278 358 278 357 297 c 2,65,-1
 351 453 l 2,44,45
EndSplineSet
EndChar

StartChar: minus
Encoding: 8722 8722 107
Width: 878
Flags: W
LayerCount: 2
Fore
SplineSet
102 660 m 1,0,1
 76 660 76 660 62 664.5 c 128,-1,2
 48 669 48 669 40.5 680.5 c 128,-1,3
 33 692 33 692 31.5 711.5 c 128,-1,4
 30 731 30 731 30 760 c 0,5,6
 30 792 30 792 31.5 813.5 c 128,-1,7
 33 835 33 835 40.5 847.5 c 128,-1,8
 48 860 48 860 62 865 c 128,-1,9
 76 870 76 870 102 870 c 2,10,-1
 776 870 l 2,11,12
 801 870 801 870 815.5 864.5 c 128,-1,13
 830 859 830 859 837.5 846.5 c 128,-1,14
 845 834 845 834 846.5 812.5 c 128,-1,15
 848 791 848 791 848 759 c 0,16,17
 848 730 848 730 846.5 710.5 c 128,-1,18
 845 691 845 691 837.5 680 c 128,-1,19
 830 669 830 669 815.5 664.5 c 128,-1,20
 801 660 801 660 776 660 c 2,21,-1
 102 660 l 1,22,-1
 102 660 l 1,0,1
EndSplineSet
EndChar

StartChar: underscore
Encoding: 95 95 108
Width: 1243
Flags: W
LayerCount: 2
Fore
SplineSet
1253 -100 m 1,0,-1
 1253 -257 l 1,1,-1
 -10 -257 l 1,2,-1
 -10 -100 l 1,3,-1
 1253 -100 l 1,0,-1
EndSplineSet
EndChar

StartChar: brokenbar
Encoding: 166 166 109
Width: 508
Flags: W
LayerCount: 2
Fore
SplineSet
255 820 m 0,0,1
 223 820 223 820 203 822 c 128,-1,2
 183 824 183 824 171 830 c 128,-1,3
 159 836 159 836 154 847.5 c 128,-1,4
 149 859 149 859 149 878 c 2,5,-1
 137 1651 l 2,6,7
 137 1672 137 1672 141 1686.5 c 128,-1,8
 145 1701 145 1701 157.5 1709 c 128,-1,9
 170 1717 170 1717 193 1720.5 c 128,-1,10
 216 1724 216 1724 254 1724 c 256,11,12
 292 1724 292 1724 315 1721 c 128,-1,13
 338 1718 338 1718 350.5 1709.5 c 128,-1,14
 363 1701 363 1701 367 1687 c 128,-1,15
 371 1673 371 1673 371 1652 c 2,16,-1
 359 878 l 2,17,18
 359 859 359 859 354.5 847.5 c 128,-1,19
 350 836 350 836 338.5 830 c 128,-1,20
 327 824 327 824 306.5 822 c 128,-1,21
 286 820 286 820 255 820 c 0,0,1
154 324 m 2,22,23
 153 348 153 348 157 362.5 c 128,-1,24
 161 377 161 377 172.5 384.5 c 128,-1,25
 184 392 184 392 203.5 394.5 c 128,-1,26
 223 397 223 397 254 397 c 256,27,28
 285 397 285 397 305 395 c 128,-1,29
 325 393 325 393 336.5 385.5 c 128,-1,30
 348 378 348 378 352 363.5 c 128,-1,31
 356 349 356 349 355 325 c 2,32,-1
 347 -362 l 2,33,34
 347 -381 347 -381 342 -392.5 c 128,-1,35
 337 -404 337 -404 326 -410 c 128,-1,36
 315 -416 315 -416 297.5 -418 c 128,-1,37
 280 -420 280 -420 255 -420 c 0,38,39
 229 -420 229 -420 212 -418 c 128,-1,40
 195 -416 195 -416 184 -410 c 128,-1,41
 173 -404 173 -404 168 -393 c 128,-1,42
 163 -382 163 -382 163 -363 c 2,43,-1
 154 324 l 2,22,23
EndSplineSet
EndChar

StartChar: equal
Encoding: 61 61 110
Width: 938
Flags: W
LayerCount: 2
Fore
SplineSet
132 831 m 2,0,1
 106 831 106 831 92 835.5 c 128,-1,2
 78 840 78 840 70.5 851.5 c 128,-1,3
 63 863 63 863 61.5 882.5 c 128,-1,4
 60 902 60 902 60 931 c 0,5,6
 60 963 60 963 61.5 984.5 c 128,-1,7
 63 1006 63 1006 70.5 1018.5 c 128,-1,8
 78 1031 78 1031 92 1036 c 128,-1,9
 106 1041 106 1041 132 1041 c 2,10,-1
 806 1041 l 2,11,12
 831 1041 831 1041 845.5 1035.5 c 128,-1,13
 860 1030 860 1030 867.5 1017.5 c 128,-1,14
 875 1005 875 1005 876.5 983.5 c 128,-1,15
 878 962 878 962 878 930 c 0,16,17
 878 901 878 901 876.5 881.5 c 128,-1,18
 875 862 875 862 867.5 851 c 128,-1,19
 860 840 860 840 845.5 835.5 c 128,-1,20
 831 831 831 831 806 831 c 2,21,-1
 132 831 l 2,0,1
132 428 m 2,22,23
 106 428 106 428 92 432.5 c 128,-1,24
 78 437 78 437 70.5 448.5 c 128,-1,25
 63 460 63 460 61.5 479.5 c 128,-1,26
 60 499 60 499 60 528 c 0,27,28
 60 560 60 560 61.5 581.5 c 128,-1,29
 63 603 63 603 70.5 615.5 c 128,-1,30
 78 628 78 628 92 633 c 128,-1,31
 106 638 106 638 132 638 c 2,32,-1
 806 638 l 2,33,34
 831 638 831 638 845.5 632.5 c 128,-1,35
 860 627 860 627 867.5 614.5 c 128,-1,36
 875 602 875 602 876.5 580.5 c 128,-1,37
 878 559 878 559 878 527 c 0,38,39
 878 498 878 498 876.5 478.5 c 128,-1,40
 875 459 875 459 867.5 448 c 128,-1,41
 860 437 860 437 845.5 432.5 c 128,-1,42
 831 428 831 428 806 428 c 2,43,-1
 132 428 l 2,22,23
EndSplineSet
EndChar

StartChar: question
Encoding: 63 63 111
Width: 1170
Flags: W
LayerCount: 2
Fore
SplineSet
468 622 m 1,0,1
 466 658 466 658 472 681 c 128,-1,2
 478 704 478 704 497 721 c 2,3,-1
 637 840 l 1,4,5
 669 869 669 869 687.5 891.5 c 128,-1,6
 706 914 706 914 715.5 939 c 128,-1,7
 725 964 725 964 727 996.5 c 128,-1,8
 729 1029 729 1029 728 1079 c 2,9,-1
 717 1378 l 2,10,11
 716 1423 716 1423 707 1449.5 c 128,-1,12
 698 1476 698 1476 681.5 1490 c 128,-1,13
 665 1504 665 1504 640.5 1508.5 c 128,-1,14
 616 1513 616 1513 584 1513 c 256,15,16
 552 1513 552 1513 527.5 1508.5 c 128,-1,17
 503 1504 503 1504 486.5 1490 c 128,-1,18
 470 1476 470 1476 461.5 1449.5 c 128,-1,19
 453 1423 453 1423 452 1378 c 2,20,-1
 440 1028 l 2,21,22
 439 997 439 997 431 978.5 c 128,-1,23
 423 960 423 960 405 950 c 128,-1,24
 387 940 387 940 357 937 c 128,-1,25
 327 934 327 934 283 934 c 256,26,27
 239 934 239 934 210 937 c 128,-1,28
 181 940 181 940 164 950 c 128,-1,29
 147 960 147 960 139.5 978.5 c 128,-1,30
 132 997 132 997 131 1028 c 2,31,-1
 121 1370 l 2,32,33
 117 1523 117 1523 234 1610 c 128,-1,34
 351 1697 351 1697 584 1697 c 0,35,36
 698 1697 698 1697 785.5 1674.5 c 128,-1,37
 873 1652 873 1652 932 1610 c 128,-1,38
 991 1568 991 1568 1021 1507 c 128,-1,39
 1051 1446 1051 1446 1049 1370 c 2,40,-1
 1037 1056 l 2,41,42
 1036 1021 1036 1021 1030.5 993.5 c 128,-1,43
 1025 966 1025 966 1012 941.5 c 128,-1,44
 999 917 999 917 978 892.5 c 128,-1,45
 957 868 957 868 925 841 c 2,46,-1
 724 668 l 1,47,-1
 714 534 l 2,48,49
 712 508 712 508 706.5 493.5 c 128,-1,50
 701 479 701 479 687.5 472 c 128,-1,51
 674 465 674 465 652 463.5 c 128,-1,52
 630 462 630 462 596 462 c 0,53,54
 561 462 561 462 538.5 463.5 c 128,-1,55
 516 465 516 465 502.5 472 c 128,-1,56
 489 479 489 479 483.5 493.5 c 128,-1,57
 478 508 478 508 478 534 c 1,58,-1
 468 622 l 1,0,1
433 252 m 2,59,60
 431 273 431 273 436 287.5 c 128,-1,61
 441 302 441 302 458 310 c 128,-1,62
 475 318 475 318 508 321.5 c 128,-1,63
 541 325 541 325 595 325 c 256,64,65
 649 325 649 325 681.5 321.5 c 128,-1,66
 714 318 714 318 731.5 310 c 128,-1,67
 749 302 749 302 753.5 287.5 c 128,-1,68
 758 273 758 273 757 252 c 2,69,-1
 746 57 l 2,70,71
 745 38 745 38 739.5 27 c 128,-1,72
 734 16 734 16 718 10 c 128,-1,73
 702 4 702 4 673 2 c 128,-1,74
 644 0 644 0 595 0 c 256,75,76
 546 0 546 0 517 2 c 128,-1,77
 488 4 488 4 472.5 10 c 128,-1,78
 457 16 457 16 451.5 27 c 128,-1,79
 446 38 446 38 445 57 c 2,80,-1
 433 252 l 2,59,60
EndSplineSet
EndChar

StartChar: questiondown
Encoding: 191 191 112
Width: 1189
Flags: W
LayerCount: 2
Fore
SplineSet
578 1399 m 256,0,1
 529 1399 529 1399 500 1401 c 128,-1,2
 471 1403 471 1403 455.5 1409 c 128,-1,3
 440 1415 440 1415 434.5 1426 c 128,-1,4
 429 1437 429 1437 428 1456 c 2,5,-1
 416 1651 l 2,6,7
 414 1672 414 1672 419 1686.5 c 128,-1,8
 424 1701 424 1701 441 1709 c 128,-1,9
 458 1717 458 1717 491 1720.5 c 128,-1,10
 524 1724 524 1724 578 1724 c 256,11,12
 632 1724 632 1724 664.5 1720.5 c 128,-1,13
 697 1717 697 1717 714.5 1709 c 128,-1,14
 732 1701 732 1701 736.5 1686.5 c 128,-1,15
 741 1672 741 1672 740 1651 c 2,16,-1
 729 1456 l 2,17,18
 728 1437 728 1437 722.5 1426 c 128,-1,19
 717 1415 717 1415 701 1409 c 128,-1,20
 685 1403 685 1403 656 1401 c 128,-1,21
 627 1399 627 1399 578 1399 c 256,0,1
121 642 m 2,22,23
 120 676 120 676 128.5 704 c 128,-1,24
 137 732 137 732 154 756.5 c 128,-1,25
 171 781 171 781 196 805.5 c 128,-1,26
 221 830 221 830 253 857 c 2,27,-1
 459 1034 l 1,28,-1
 449 1194 l 2,29,30
 447 1220 447 1220 455 1234.5 c 128,-1,31
 463 1249 463 1249 480 1256 c 128,-1,32
 497 1263 497 1263 522.5 1264.5 c 128,-1,33
 548 1266 548 1266 582 1266 c 0,34,35
 622 1266 622 1266 649.5 1264.5 c 128,-1,36
 677 1263 677 1263 693.5 1256 c 128,-1,37
 710 1249 710 1249 716 1234 c 128,-1,38
 722 1219 722 1219 721 1193 c 2,39,-1
 715 1071 l 1,40,41
 712 1035 712 1035 707 1015.5 c 128,-1,42
 702 996 702 996 683 980 c 2,43,-1
 527 845 l 2,44,45
 494 817 494 817 476 796.5 c 128,-1,46
 458 776 458 776 450 753 c 128,-1,47
 442 730 442 730 439.5 699 c 128,-1,48
 437 668 437 668 436 619 c 2,49,-1
 427 295 l 2,50,51
 426 250 426 250 437.5 222.5 c 128,-1,52
 449 195 449 195 470.5 180 c 128,-1,53
 492 165 492 165 523.5 159.5 c 128,-1,54
 555 154 555 154 594 154 c 0,55,56
 634 154 634 154 665 160 c 128,-1,57
 696 166 696 166 716 182 c 128,-1,58
 736 198 736 198 745.5 226 c 128,-1,59
 755 254 755 254 753 299 c 2,60,-1
 743 670 l 2,61,62
 742 701 742 701 749 719.5 c 128,-1,63
 756 738 756 738 774 748 c 128,-1,64
 792 758 792 758 821.5 761 c 128,-1,65
 851 764 851 764 895 764 c 0,66,67
 942 764 942 764 973.5 761 c 128,-1,68
 1005 758 1005 758 1024.5 748 c 128,-1,69
 1044 738 1044 738 1052 719.5 c 128,-1,70
 1060 701 1060 701 1059 670 c 2,71,-1
 1051 323 l 2,72,73
 1049 246 1049 246 1021 184.5 c 128,-1,74
 993 123 993 123 937 79 c 128,-1,75
 881 35 881 35 796 11.5 c 128,-1,76
 711 -12 711 -12 594 -12 c 0,77,78
 480 -12 480 -12 394 11 c 128,-1,79
 308 34 308 34 249.5 76.5 c 128,-1,80
 191 119 191 119 161 180 c 128,-1,81
 131 241 131 241 129 318 c 2,82,-1
 121 642 l 2,22,23
EndSplineSet
EndChar

StartChar: quotesingle
Encoding: 39 39 113
Width: 498
Flags: W
LayerCount: 2
Fore
SplineSet
249 1086 m 0,0,1
 214 1086 214 1086 194 1088 c 128,-1,2
 174 1090 174 1090 162.5 1097 c 128,-1,3
 151 1104 151 1104 147 1118 c 128,-1,4
 143 1132 143 1132 141 1155 c 2,5,-1
 101 1640 l 1,6,7
 100 1666 100 1666 105.5 1682.5 c 128,-1,8
 111 1699 111 1699 127.5 1708 c 128,-1,9
 144 1717 144 1717 173 1720.5 c 128,-1,10
 202 1724 202 1724 249 1724 c 256,11,12
 296 1724 296 1724 325 1720.5 c 128,-1,13
 354 1717 354 1717 370.5 1708 c 128,-1,14
 387 1699 387 1699 392.5 1682.5 c 128,-1,15
 398 1666 398 1666 397 1640 c 1,16,-1
 357 1155 l 2,17,18
 355 1132 355 1132 351 1118 c 128,-1,19
 347 1104 347 1104 335.5 1097 c 128,-1,20
 324 1090 324 1090 303.5 1088 c 128,-1,21
 283 1086 283 1086 249 1086 c 0,0,1
EndSplineSet
EndChar

StartChar: less
Encoding: 60 60 115
Width: 802
Flags: W
LayerCount: 2
Fore
SplineSet
100 597 m 2,0,1
 77 617 77 617 68.5 633 c 128,-1,2
 60 649 60 649 60 665 c 256,3,4
 60 681 60 681 67 695 c 128,-1,5
 74 709 74 709 94 733 c 2,6,-1
 401 1099 l 2,7,8
 418 1120 418 1120 433.5 1132 c 128,-1,9
 449 1144 449 1144 468.5 1150.5 c 128,-1,10
 488 1157 488 1157 514.5 1159 c 128,-1,11
 541 1161 541 1161 579 1161 c 0,12,13
 621 1161 621 1161 648.5 1159 c 128,-1,14
 676 1157 676 1157 692.5 1152 c 128,-1,15
 709 1147 709 1147 715.5 1138.5 c 128,-1,16
 722 1130 722 1130 722 1118 c 0,17,18
 722 1102 722 1102 711.5 1085.5 c 128,-1,19
 701 1069 701 1069 676 1040 c 1,20,-1
 323 665 l 1,21,-1
 648 363 l 2,22,23
 676 337 676 337 695.5 317.5 c 128,-1,24
 715 298 715 298 715 282 c 0,25,26
 715 270 715 270 711 262 c 128,-1,27
 707 254 707 254 695 249.5 c 128,-1,28
 683 245 683 245 661.5 243.5 c 128,-1,29
 640 242 640 242 604 242 c 0,30,31
 581 242 581 242 562.5 243 c 128,-1,32
 544 244 544 244 527 248.5 c 128,-1,33
 510 253 510 253 493.5 262 c 128,-1,34
 477 271 477 271 458 288 c 2,35,-1
 100 597 l 2,0,1
EndSplineSet
EndChar

StartChar: logicalnot
Encoding: 172 172 117
Width: 939
Flags: W
LayerCount: 2
Fore
SplineSet
112 660 m 1,0,1
 86 660 86 660 72 664.5 c 128,-1,2
 58 669 58 669 50.5 680.5 c 128,-1,3
 43 692 43 692 41.5 711.5 c 128,-1,4
 40 731 40 731 40 760 c 0,5,6
 40 792 40 792 41.5 813.5 c 128,-1,7
 43 835 43 835 50.5 847.5 c 128,-1,8
 58 860 58 860 72 865 c 128,-1,9
 86 870 86 870 112 870 c 2,10,-1
 786 870 l 2,11,12
 811 870 811 870 825.5 864.5 c 128,-1,13
 840 859 840 859 847.5 846.5 c 128,-1,14
 855 834 855 834 856.5 812.5 c 128,-1,15
 858 791 858 791 858 759 c 1,16,-1
 859 759 l 1,17,-1
 856 369 l 2,18,19
 856 350 856 350 851 338.5 c 128,-1,20
 846 327 846 327 835 321 c 128,-1,21
 824 315 824 315 806.5 313 c 128,-1,22
 789 311 789 311 764 311 c 0,23,24
 738 311 738 311 721 313 c 128,-1,25
 704 315 704 315 693 321 c 128,-1,26
 682 327 682 327 677 338 c 128,-1,27
 672 349 672 349 672 368 c 2,28,-1
 669 660 l 1,29,-1
 112 660 l 1,30,-1
 112 660 l 1,0,1
EndSplineSet
EndChar

StartChar: Thorn
Encoding: 222 222 118
Width: 1180
Flags: W
LayerCount: 2
Fore
SplineSet
125 1607 m 2,0,1
 124 1633 124 1633 130 1649 c 128,-1,2
 136 1665 136 1665 155.5 1674 c 128,-1,3
 175 1683 175 1683 211 1686.5 c 128,-1,4
 247 1690 247 1690 307 1690 c 0,5,6
 366 1690 366 1690 402 1686.5 c 128,-1,7
 438 1683 438 1683 457.5 1674 c 128,-1,8
 477 1665 477 1665 483.5 1649 c 128,-1,9
 490 1633 490 1633 489 1607 c 2,10,-1
 483 1418 l 1,11,-1
 600 1418 l 2,12,13
 702 1418 702 1418 791 1399.5 c 128,-1,14
 880 1381 880 1381 945 1342 c 128,-1,15
 1010 1303 1010 1303 1046.5 1241.5 c 128,-1,16
 1083 1180 1083 1180 1080 1093 c 2,17,-1
 1066 617 l 2,18,19
 1064 560 1064 560 1041.5 503 c 128,-1,20
 1019 446 1019 446 967.5 401 c 128,-1,21
 916 356 916 356 832 327.5 c 128,-1,22
 748 299 748 299 623 299 c 2,23,-1
 451 299 l 1,24,-1
 445 68 l 2,25,26
 445 45 445 45 440.5 31.5 c 128,-1,27
 436 18 436 18 421.5 11 c 128,-1,28
 407 4 407 4 380 2 c 128,-1,29
 353 0 353 0 307 0 c 256,30,31
 261 0 261 0 233.5 2 c 128,-1,32
 206 4 206 4 192 11 c 128,-1,33
 178 18 178 18 173.5 31.5 c 128,-1,34
 169 45 169 45 168 68 c 2,35,-1
 125 1607 l 2,0,1
578 462 m 2,36,37
 626 462 626 462 658 469.5 c 128,-1,38
 690 477 690 477 709 494 c 128,-1,39
 728 511 728 511 735.5 539.5 c 128,-1,40
 743 568 743 568 742 610 c 2,41,-1
 728 1124 l 2,42,43
 727 1163 727 1163 720 1187 c 128,-1,44
 713 1211 713 1211 695 1224 c 128,-1,45
 677 1237 677 1237 646 1241.5 c 128,-1,46
 615 1246 615 1246 567 1246 c 2,47,-1
 478 1246 l 1,48,-1
 456 462 l 1,49,-1
 578 462 l 2,36,37
EndSplineSet
EndChar

StartChar: copyright
Encoding: 169 169 119
Width: 1865
Flags: W
LayerCount: 2
Fore
SplineSet
151 1299 m 2,0,1
 150 1401 150 1401 178.5 1485.5 c 128,-1,2
 207 1570 207 1570 259 1636.5 c 128,-1,3
 311 1703 311 1703 384 1752 c 128,-1,4
 457 1801 457 1801 544 1833 c 128,-1,5
 631 1865 631 1865 729.5 1881 c 128,-1,6
 828 1897 828 1897 932 1897 c 256,7,8
 1036 1897 1036 1897 1134.5 1881 c 128,-1,9
 1233 1865 1233 1865 1320.5 1833 c 128,-1,10
 1408 1801 1408 1801 1481 1752 c 128,-1,11
 1554 1703 1554 1703 1606 1636.5 c 128,-1,12
 1658 1570 1658 1570 1686.5 1485.5 c 128,-1,13
 1715 1401 1715 1401 1714 1299 c 2,14,-1
 1706 643 l 2,15,16
 1704 486 1704 486 1643.5 377 c 128,-1,17
 1583 268 1583 268 1479 200 c 128,-1,18
 1375 132 1375 132 1234.5 101.5 c 128,-1,19
 1094 71 1094 71 932 71 c 256,20,21
 770 71 770 71 630 101.5 c 128,-1,22
 490 132 490 132 386 200 c 128,-1,23
 282 268 282 268 221.5 377 c 128,-1,24
 161 486 161 486 159 643 c 2,25,-1
 151 1299 l 2,0,1
367 643 m 2,26,27
 366 563 366 563 387 501 c 128,-1,28
 408 439 408 439 446.5 392 c 128,-1,29
 485 345 485 345 538.5 312.5 c 128,-1,30
 592 280 592 280 655 259.5 c 128,-1,31
 718 239 718 239 788.5 230 c 128,-1,32
 859 221 859 221 932 221 c 256,33,34
 1005 221 1005 221 1076 230 c 128,-1,35
 1147 239 1147 239 1210 259.5 c 128,-1,36
 1273 280 1273 280 1326.5 312.5 c 128,-1,37
 1380 345 1380 345 1418.5 392 c 128,-1,38
 1457 439 1457 439 1478 501 c 128,-1,39
 1499 563 1499 563 1498 643 c 2,40,-1
 1490 1275 l 2,41,42
 1488 1395 1488 1395 1444 1475.5 c 128,-1,43
 1400 1556 1400 1556 1325 1605.5 c 128,-1,44
 1250 1655 1250 1655 1148.5 1676 c 128,-1,45
 1047 1697 1047 1697 932 1697 c 256,46,47
 817 1697 817 1697 716 1676 c 128,-1,48
 615 1655 615 1655 540 1605.5 c 128,-1,49
 465 1556 465 1556 420.5 1475.5 c 128,-1,50
 376 1395 376 1395 375 1275 c 2,51,-1
 367 643 l 2,26,27
586 1235 m 2,52,53
 585 1280 585 1280 604.5 1318 c 128,-1,54
 624 1356 624 1356 666 1384 c 128,-1,55
 708 1412 708 1412 774 1428 c 128,-1,56
 840 1444 840 1444 933 1444 c 256,57,58
 1026 1444 1026 1444 1092 1428 c 128,-1,59
 1158 1412 1158 1412 1200 1384 c 128,-1,60
 1242 1356 1242 1356 1261.5 1318 c 128,-1,61
 1281 1280 1281 1280 1280 1235 c 2,62,-1
 1273 968 l 2,63,64
 1273 950 1273 950 1266 939 c 128,-1,65
 1259 928 1259 928 1244 922 c 128,-1,66
 1229 916 1229 916 1204.5 914.5 c 128,-1,67
 1180 913 1180 913 1145 913 c 0,68,69
 1108 913 1108 913 1084 914.5 c 128,-1,70
 1060 916 1060 916 1045.5 922 c 128,-1,71
 1031 928 1031 928 1025 939 c 128,-1,72
 1019 950 1019 950 1019 968 c 2,73,-1
 1010 1222 l 2,74,75
 1009 1248 1009 1248 1004 1263.5 c 128,-1,76
 999 1279 999 1279 989.5 1287.5 c 128,-1,77
 980 1296 980 1296 966 1298.5 c 128,-1,78
 952 1301 952 1301 933 1301 c 256,79,80
 914 1301 914 1301 899.5 1298.5 c 128,-1,81
 885 1296 885 1296 875.5 1287.5 c 128,-1,82
 866 1279 866 1279 861 1263.5 c 128,-1,83
 856 1248 856 1248 856 1222 c 2,84,-1
 837 652 l 2,85,86
 836 601 836 601 858 582 c 128,-1,87
 880 563 880 563 933 563 c 256,88,89
 986 563 986 563 1008 582 c 128,-1,90
 1030 601 1030 601 1028 652 c 2,91,-1
 1026 688 l 2,92,93
 1025 707 1025 707 1031 718 c 128,-1,94
 1037 729 1037 729 1051.5 735 c 128,-1,95
 1066 741 1066 741 1090.5 743 c 128,-1,96
 1115 745 1115 745 1151 745 c 0,97,98
 1188 745 1188 745 1210.5 743 c 128,-1,99
 1233 741 1233 741 1245.5 735 c 128,-1,100
 1258 729 1258 729 1261.5 718 c 128,-1,101
 1265 707 1265 707 1265 688 c 2,102,-1
 1263 631 l 2,103,104
 1262 592 1262 592 1243 558 c 128,-1,105
 1224 524 1224 524 1184.5 498 c 128,-1,106
 1145 472 1145 472 1082.5 457 c 128,-1,107
 1020 442 1020 442 933 442 c 256,108,109
 846 442 846 442 783.5 457 c 128,-1,110
 721 472 721 472 681.5 498 c 128,-1,111
 642 524 642 524 623 559 c 128,-1,112
 604 594 604 594 603 633 c 2,113,-1
 586 1235 l 2,52,53
EndSplineSet
EndChar

StartChar: registered
Encoding: 174 174 120
Width: 1865
Flags: W
LayerCount: 2
Fore
SplineSet
151 1299 m 2,0,1
 150 1401 150 1401 178.5 1485.5 c 128,-1,2
 207 1570 207 1570 259 1636.5 c 128,-1,3
 311 1703 311 1703 384 1752 c 128,-1,4
 457 1801 457 1801 544 1833 c 128,-1,5
 631 1865 631 1865 729.5 1881 c 128,-1,6
 828 1897 828 1897 932 1897 c 256,7,8
 1036 1897 1036 1897 1134.5 1881 c 128,-1,9
 1233 1865 1233 1865 1320.5 1833 c 128,-1,10
 1408 1801 1408 1801 1481 1752 c 128,-1,11
 1554 1703 1554 1703 1606 1636.5 c 128,-1,12
 1658 1570 1658 1570 1686.5 1485.5 c 128,-1,13
 1715 1401 1715 1401 1714 1299 c 2,14,-1
 1706 643 l 2,15,16
 1704 486 1704 486 1643.5 377 c 128,-1,17
 1583 268 1583 268 1479 200 c 128,-1,18
 1375 132 1375 132 1234.5 101.5 c 128,-1,19
 1094 71 1094 71 932 71 c 256,20,21
 770 71 770 71 630 101.5 c 128,-1,22
 490 132 490 132 386 200 c 128,-1,23
 282 268 282 268 221.5 377 c 128,-1,24
 161 486 161 486 159 643 c 2,25,-1
 151 1299 l 2,0,1
367 643 m 2,26,27
 366 563 366 563 387 501 c 128,-1,28
 408 439 408 439 446.5 392 c 128,-1,29
 485 345 485 345 538.5 312.5 c 128,-1,30
 592 280 592 280 655 259.5 c 128,-1,31
 718 239 718 239 788.5 230 c 128,-1,32
 859 221 859 221 932 221 c 256,33,34
 1005 221 1005 221 1076 230 c 128,-1,35
 1147 239 1147 239 1210 259.5 c 128,-1,36
 1273 280 1273 280 1326.5 312.5 c 128,-1,37
 1380 345 1380 345 1418.5 392 c 128,-1,38
 1457 439 1457 439 1478 501 c 128,-1,39
 1499 563 1499 563 1498 643 c 2,40,-1
 1490 1275 l 2,41,42
 1488 1395 1488 1395 1444 1475.5 c 128,-1,43
 1400 1556 1400 1556 1325 1605.5 c 128,-1,44
 1250 1655 1250 1655 1148.5 1676 c 128,-1,45
 1047 1697 1047 1697 932 1697 c 256,46,47
 817 1697 817 1697 716 1676 c 128,-1,48
 615 1655 615 1655 540 1605.5 c 128,-1,49
 465 1556 465 1556 420.5 1475.5 c 128,-1,50
 376 1395 376 1395 375 1275 c 2,51,-1
 367 643 l 2,26,27
593 1367 m 2,52,53
 593 1388 593 1388 597.5 1402 c 128,-1,54
 602 1416 602 1416 617 1424 c 128,-1,55
 632 1432 632 1432 659 1435 c 128,-1,56
 686 1438 686 1438 730 1438 c 2,57,-1
 755 1438 l 1,58,-1
 1012 1438 l 2,59,60
 1078 1438 1078 1438 1130.5 1424 c 128,-1,61
 1183 1410 1183 1410 1219 1378 c 128,-1,62
 1255 1346 1255 1346 1273 1295 c 128,-1,63
 1291 1244 1291 1244 1288 1171 c 2,64,-1
 1282 1002 l 2,65,66
 1281 969 1281 969 1273 938 c 128,-1,67
 1265 907 1265 907 1248 881.5 c 128,-1,68
 1231 856 1231 856 1204 836.5 c 128,-1,69
 1177 817 1177 817 1138 805 c 1,70,-1
 1263 542 l 2,71,72
 1282 503 1282 503 1282 485 c 0,73,74
 1282 478 1282 478 1278 471.5 c 128,-1,75
 1274 465 1274 465 1263.5 460.5 c 128,-1,76
 1253 456 1253 456 1233.5 453.5 c 128,-1,77
 1214 451 1214 451 1183 451 c 0,78,79
 1158 451 1158 451 1141 453 c 128,-1,80
 1124 455 1124 455 1112 460 c 128,-1,81
 1100 465 1100 465 1091.5 474.5 c 128,-1,82
 1083 484 1083 484 1074 498 c 2,83,-1
 909 791 l 1,84,-1
 852 791 l 1,85,-1
 845 508 l 2,86,87
 845 489 845 489 840 477.5 c 128,-1,88
 835 466 835 466 822 460 c 128,-1,89
 809 454 809 454 787 452 c 128,-1,90
 765 450 765 450 731 450 c 0,91,92
 696 450 696 450 674 452 c 128,-1,93
 652 454 652 454 639 460 c 128,-1,94
 626 466 626 466 620.5 477.5 c 128,-1,95
 615 489 615 489 615 508 c 2,96,-1
 593 1367 l 2,52,53
936 903 m 2,97,98
 992 903 992 903 1012 925.5 c 128,-1,99
 1032 948 1032 948 1030 997 c 2,100,-1
 1018 1222 l 2,101,102
 1017 1244 1017 1244 1013 1259.5 c 128,-1,103
 1009 1275 1009 1275 998.5 1284 c 128,-1,104
 988 1293 988 1293 970.5 1297 c 128,-1,105
 953 1301 953 1301 925 1301 c 2,106,-1
 865 1301 l 1,107,-1
 855 903 l 1,108,-1
 936 903 l 2,97,98
EndSplineSet
EndChar

StartChar: ring.cap
Encoding: 65537 -1 121
Width: 856
Flags: W
LayerCount: 2
Fore
SplineSet
428 1643 m 256,0,1
 362 1643 362 1643 304.5 1655 c 128,-1,2
 247 1667 247 1667 205 1691.5 c 128,-1,3
 163 1716 163 1716 138.5 1754 c 128,-1,4
 114 1792 114 1792 114 1844 c 2,5,-1
 114 1917 l 2,6,7
 114 1969 114 1969 138.5 2007 c 128,-1,8
 163 2045 163 2045 205 2069.5 c 128,-1,9
 247 2094 247 2094 304.5 2106 c 128,-1,10
 362 2118 362 2118 428 2118 c 256,11,12
 494 2118 494 2118 551.5 2106 c 128,-1,13
 609 2094 609 2094 651 2069.5 c 128,-1,14
 693 2045 693 2045 717.5 2007 c 128,-1,15
 742 1969 742 1969 742 1917 c 2,16,-1
 742 1844 l 2,17,18
 742 1792 742 1792 717.5 1754 c 128,-1,19
 693 1716 693 1716 651 1691.5 c 128,-1,20
 609 1667 609 1667 551.5 1655 c 128,-1,21
 494 1643 494 1643 428 1643 c 256,0,1
428 1763 m 256,22,23
 479 1763 479 1763 503.5 1785 c 128,-1,24
 528 1807 528 1807 528 1845 c 2,25,-1
 528 1916 l 2,26,27
 528 1954 528 1954 503.5 1976 c 128,-1,28
 479 1998 479 1998 428 1998 c 256,29,30
 377 1998 377 1998 352.5 1976 c 128,-1,31
 328 1954 328 1954 328 1916 c 2,32,-1
 328 1845 l 2,33,34
 328 1807 328 1807 352.5 1785 c 128,-1,35
 377 1763 377 1763 428 1763 c 256,22,23
EndSplineSet
EndChar

StartChar: bullet
Encoding: 8226 8226 122
Width: 763
Flags: W
LayerCount: 2
Fore
SplineSet
379 480 m 256,0,1
 319 480 319 480 272 490.5 c 128,-1,2
 225 501 225 501 191.5 525.5 c 128,-1,3
 158 550 158 550 139 590 c 128,-1,4
 120 630 120 630 117 689 c 2,5,-1
 110 836 l 2,6,7
 105 946 105 946 175.5 995.5 c 128,-1,8
 246 1045 246 1045 379 1045 c 256,9,10
 512 1045 512 1045 582.5 995.5 c 128,-1,11
 653 946 653 946 648 836 c 2,12,-1
 641 689 l 2,13,14
 638 630 638 630 619 590 c 128,-1,15
 600 550 600 550 566.5 525.5 c 128,-1,16
 533 501 533 501 486 490.5 c 128,-1,17
 439 480 439 480 379 480 c 256,0,1
EndSplineSet
EndChar

StartChar: ring
Encoding: 730 730 123
Width: 796
Flags: W
LayerCount: 2
Fore
SplineSet
398 1341 m 256,0,1
 339 1341 339 1341 287 1353 c 128,-1,2
 235 1365 235 1365 196.5 1389.5 c 128,-1,3
 158 1414 158 1414 136 1452 c 128,-1,4
 114 1490 114 1490 114 1542 c 2,5,-1
 114 1599 l 2,6,7
 114 1651 114 1651 136 1689 c 128,-1,8
 158 1727 158 1727 196.5 1751.5 c 128,-1,9
 235 1776 235 1776 287 1788 c 128,-1,10
 339 1800 339 1800 398 1800 c 256,11,12
 457 1800 457 1800 509 1788 c 128,-1,13
 561 1776 561 1776 599.5 1751.5 c 128,-1,14
 638 1727 638 1727 660 1689 c 128,-1,15
 682 1651 682 1651 682 1599 c 2,16,-1
 682 1542 l 2,17,18
 682 1490 682 1490 660 1452 c 128,-1,19
 638 1414 638 1414 599.5 1389.5 c 128,-1,20
 561 1365 561 1365 509 1353 c 128,-1,21
 457 1341 457 1341 398 1341 c 256,0,1
398 1461 m 256,22,23
 444 1461 444 1461 466 1483 c 128,-1,24
 488 1505 488 1505 488 1543 c 2,25,-1
 488 1598 l 2,26,27
 488 1636 488 1636 466 1658 c 128,-1,28
 444 1680 444 1680 398 1680 c 256,29,30
 352 1680 352 1680 330 1658 c 128,-1,31
 308 1636 308 1636 308 1598 c 2,32,-1
 308 1543 l 2,33,34
 308 1505 308 1505 330 1483 c 128,-1,35
 352 1461 352 1461 398 1461 c 256,22,23
EndSplineSet
EndChar

StartChar: slash
Encoding: 47 47 124
Width: 964
Flags: W
LayerCount: 2
Fore
SplineSet
616 1686 m 2,0,1
 623 1706 623 1706 629.5 1719.5 c 128,-1,2
 636 1733 636 1733 650.5 1741.5 c 128,-1,3
 665 1750 665 1750 690 1753.5 c 128,-1,4
 715 1757 715 1757 758 1757 c 256,5,6
 801 1757 801 1757 827.5 1753 c 128,-1,7
 854 1749 854 1749 867.5 1741 c 128,-1,8
 881 1733 881 1733 883 1719.5 c 128,-1,9
 885 1706 885 1706 878 1687 c 2,10,-1
 289 48 l 2,11,12
 283 31 283 31 274 21 c 128,-1,13
 265 11 265 11 251.5 6 c 128,-1,14
 238 1 238 1 219.5 0 c 128,-1,15
 201 -1 201 -1 174 -1 c 0,16,17
 108 0 108 0 90 11.5 c 128,-1,18
 72 23 72 23 88 57 c 1,19,-1
 616 1686 l 2,0,1
EndSplineSet
EndChar

StartChar: mu
Encoding: 181 181 126
Width: 1092
Flags: W
LayerCount: 2
Fore
SplineSet
105 1129 m 2,0,1
 104 1150 104 1150 109 1164.5 c 128,-1,2
 114 1179 114 1179 131 1187 c 128,-1,3
 148 1195 148 1195 180.5 1198.5 c 128,-1,4
 213 1202 213 1202 267 1202 c 0,5,6
 318 1202 318 1202 348.5 1198.5 c 128,-1,7
 379 1195 379 1195 394.5 1187 c 128,-1,8
 410 1179 410 1179 414.5 1164.5 c 128,-1,9
 419 1150 419 1150 419 1129 c 2,10,-1
 398 248 l 1,11,12
 421 225 421 225 454 208.5 c 128,-1,13
 487 192 487 192 535 192 c 0,14,15
 593 192 593 192 631 211.5 c 128,-1,16
 669 231 669 231 698 257 c 1,17,-1
 673 1129 l 2,18,19
 672 1150 672 1150 676.5 1164.5 c 128,-1,20
 681 1179 681 1179 696 1187 c 128,-1,21
 711 1195 711 1195 739 1198.5 c 128,-1,22
 767 1202 767 1202 815 1202 c 0,23,24
 869 1202 869 1202 901.5 1198.5 c 128,-1,25
 934 1195 934 1195 951 1187 c 128,-1,26
 968 1179 968 1179 973 1164.5 c 128,-1,27
 978 1150 978 1150 977 1129 c 2,28,-1
 941 190 l 1,29,-1
 991 190 l 2,30,31
 1017 190 1017 190 1031.5 186.5 c 128,-1,32
 1046 183 1046 183 1053 173 c 128,-1,33
 1060 163 1060 163 1061.5 145.5 c 128,-1,34
 1063 128 1063 128 1063 100 c 0,35,36
 1063 69 1063 69 1061.5 49.5 c 128,-1,37
 1060 30 1060 30 1053 19 c 128,-1,38
 1046 8 1046 8 1031.5 4 c 128,-1,39
 1017 0 1017 0 991 0 c 2,40,-1
 866 0 l 1,41,-1
 842 0 l 2,42,43
 809 0 809 0 786.5 10 c 128,-1,44
 764 20 764 20 750.5 37 c 128,-1,45
 737 54 737 54 731.5 77 c 128,-1,46
 726 100 726 100 726 126 c 1,47,-1
 716 126 l 1,48,49
 676 63 676 63 633 31.5 c 128,-1,50
 590 0 590 0 535 0 c 0,51,52
 488 0 488 0 445.5 24.5 c 128,-1,53
 403 49 403 49 368 90 c 1,54,-1
 358 90 l 1,55,-1
 358 -247 l 2,56,57
 358 -276 358 -276 354.5 -296 c 128,-1,58
 351 -316 351 -316 339.5 -329 c 128,-1,59
 328 -342 328 -342 307 -348 c 128,-1,60
 286 -354 286 -354 252 -354 c 0,61,62
 219 -354 219 -354 199 -348 c 128,-1,63
 179 -342 179 -342 168 -329 c 128,-1,64
 157 -316 157 -316 153 -296 c 128,-1,65
 149 -276 149 -276 148 -247 c 2,66,-1
 105 1129 l 2,0,1
EndSplineSet
EndChar

StartChar: currency
Encoding: 164 164 127
Width: 1360
Flags: W
LayerCount: 2
Fore
SplineSet
162 199 m 0,0,1
 162 215 162 215 175 233 c 128,-1,2
 188 251 188 251 209 280 c 2,3,-1
 340 455 l 1,4,5
 315 495 315 495 314 544 c 2,6,-1
 308 805 l 2,7,8
 307 832 307 832 315 856 c 128,-1,9
 323 880 323 880 337 900 c 1,10,-1
 173 1089 l 2,11,12
 147 1118 147 1118 137.5 1134.5 c 128,-1,13
 128 1151 128 1151 128 1167 c 0,14,15
 128 1179 128 1179 134.5 1187.5 c 128,-1,16
 141 1196 141 1196 157.5 1201 c 128,-1,17
 174 1206 174 1206 201.5 1208 c 128,-1,18
 229 1210 229 1210 271 1210 c 0,19,20
 310 1210 310 1210 334 1208.5 c 128,-1,21
 358 1207 358 1207 374.5 1200.5 c 128,-1,22
 391 1194 391 1194 402.5 1181.5 c 128,-1,23
 414 1169 414 1169 429 1148 c 2,24,-1
 525 1008 l 1,25,26
 600 1026 600 1026 682 1026 c 0,27,28
 760 1026 760 1026 833 1009 c 1,29,-1
 929 1148 l 2,30,31
 944 1169 944 1169 955.5 1181.5 c 128,-1,32
 967 1194 967 1194 983.5 1200.5 c 128,-1,33
 1000 1207 1000 1207 1024 1208.5 c 128,-1,34
 1048 1210 1048 1210 1087 1210 c 0,35,36
 1129 1210 1129 1210 1156.5 1208 c 128,-1,37
 1184 1206 1184 1206 1200.5 1201 c 128,-1,38
 1217 1196 1217 1196 1223.5 1187.5 c 128,-1,39
 1230 1179 1230 1179 1230 1167 c 0,40,41
 1230 1151 1230 1151 1220.5 1134.5 c 128,-1,42
 1211 1118 1211 1118 1185 1089 c 2,43,-1
 1021 901 l 1,44,45
 1035 881 1035 881 1043 857.5 c 128,-1,46
 1051 834 1051 834 1050 807 c 2,47,-1
 1044 546 l 2,48,49
 1043 520 1043 520 1036 498.5 c 128,-1,50
 1029 477 1029 477 1018 457 c 1,51,-1
 1149 281 l 2,52,53
 1170 252 1170 252 1183 234 c 128,-1,54
 1196 216 1196 216 1196 200 c 0,55,56
 1196 188 1196 188 1192 180 c 128,-1,57
 1188 172 1188 172 1177.5 167.5 c 128,-1,58
 1167 163 1167 163 1148.5 161.5 c 128,-1,59
 1130 160 1130 160 1100 160 c 0,60,61
 1080 160 1080 160 1063.5 160.5 c 128,-1,62
 1047 161 1047 161 1032 165 c 128,-1,63
 1017 169 1017 169 1003 178.5 c 128,-1,64
 989 188 989 188 974 206 c 2,65,-1
 855 349 l 1,66,67
 814 337 814 337 769.5 331.5 c 128,-1,68
 725 326 725 326 679 326 c 256,69,70
 633 326 633 326 588.5 331.5 c 128,-1,71
 544 337 544 337 503 348 c 1,72,-1
 384 205 l 2,73,74
 369 187 369 187 354.5 177.5 c 128,-1,75
 340 168 340 168 325.5 164 c 128,-1,76
 311 160 311 160 294.5 159.5 c 128,-1,77
 278 159 278 159 258 159 c 0,78,79
 228 159 228 159 209.5 160.5 c 128,-1,80
 191 162 191 162 180.5 166.5 c 128,-1,81
 170 171 170 171 166 179 c 128,-1,82
 162 187 162 187 162 199 c 0,0,1
508 610 m 2,83,84
 507 575 507 575 521 551 c 128,-1,85
 535 527 535 527 559 512.5 c 128,-1,86
 583 498 583 498 614 491.5 c 128,-1,87
 645 485 645 485 679 485 c 0,88,89
 713 486 713 486 744 492.5 c 128,-1,90
 775 499 775 499 799 514 c 128,-1,91
 823 529 823 529 837 553 c 128,-1,92
 851 577 851 577 850 612 c 2,93,-1
 845 745 l 2,94,95
 844 784 844 784 828.5 807.5 c 128,-1,96
 813 831 813 831 789.5 843.5 c 128,-1,97
 766 856 766 856 736.5 860 c 128,-1,98
 707 864 707 864 679 864 c 0,99,100
 650 864 650 864 621 860 c 128,-1,101
 592 856 592 856 568.5 843 c 128,-1,102
 545 830 545 830 529.5 806 c 128,-1,103
 514 782 514 782 513 743 c 2,104,-1
 508 610 l 2,83,84
EndSplineSet
EndChar

